<?xml version="1.0" encoding="UTF-8" standalone="no"?>
<svg
   xmlns:dc="http://purl.org/dc/elements/1.1/"
   xmlns:cc="http://creativecommons.org/ns#"
   xmlns:rdf="http://www.w3.org/1999/02/22-rdf-syntax-ns#"
   xmlns:svg="http://www.w3.org/2000/svg"
   xmlns="http://www.w3.org/2000/svg"
   id="svg106653"
   version="1.1"
   viewBox="0 0 10.198815 7.171011"
   height="7.171011mm"
   width="10.198815mm">
  <defs
     id="defs106647">
    <clipPath
       id="clipPath1752"
       clipPathUnits="userSpaceOnUse">
      <path
         style="clip-rule:evenodd"
         id="path1750"
         d="M 10.1178,287.029 V 10.0094 H 200.138 V 287.029 H 10.1178" />
    </clipPath>
    <clipPath
       id="clipPath1740"
       clipPathUnits="userSpaceOnUse">
      <path
         style="clip-rule:evenodd"
         id="path1738"
         d="M 10.1178,287.029 V 10.0094 H 200.138 V 287.029 H 10.1178" />
    </clipPath>
    <clipPath
       id="clipPath1728"
       clipPathUnits="userSpaceOnUse">
      <path
         style="clip-rule:evenodd"
         id="path1726"
         d="M 10.1178,287.029 V 10.0094 H 200.138 V 287.029 H 10.1178" />
    </clipPath>
    <clipPath
       id="clipPath1716"
       clipPathUnits="userSpaceOnUse">
      <path
         style="clip-rule:evenodd"
         id="path1714"
         d="M 10.1178,287.029 V 10.0094 H 200.138 V 287.029 H 10.1178" />
    </clipPath>
    <clipPath
       id="clipPath1704"
       clipPathUnits="userSpaceOnUse">
      <path
         style="clip-rule:evenodd"
         id="path1702"
         d="M 10.1178,287.029 V 10.0094 H 200.138 V 287.029 H 10.1178" />
    </clipPath>
    <clipPath
       id="clipPath1692"
       clipPathUnits="userSpaceOnUse">
      <path
         style="clip-rule:evenodd"
         id="path1690"
         d="M 10.1178,287.029 V 10.0094 H 200.138 V 287.029 H 10.1178" />
    </clipPath>
    <clipPath
       id="clipPath1680"
       clipPathUnits="userSpaceOnUse">
      <path
         style="clip-rule:evenodd"
         id="path1678"
         d="M 10.1178,287.029 V 10.0094 H 200.138 V 287.029 H 10.1178" />
    </clipPath>
    <clipPath
       id="clipPath1668"
       clipPathUnits="userSpaceOnUse">
      <path
         style="clip-rule:evenodd"
         id="path1666"
         d="M 10.1178,287.029 V 10.0094 H 200.138 V 287.029 H 10.1178" />
    </clipPath>
    <clipPath
       id="clipPath1656"
       clipPathUnits="userSpaceOnUse">
      <path
         style="clip-rule:evenodd"
         id="path1654"
         d="M 10.1178,287.029 V 10.0094 H 200.138 V 287.029 H 10.1178" />
    </clipPath>
    <clipPath
       id="clipPath1644"
       clipPathUnits="userSpaceOnUse">
      <path
         style="clip-rule:evenodd"
         id="path1642"
         d="M 10.1178,287.029 V 10.0094 H 200.138 V 287.029 H 10.1178" />
    </clipPath>
    <clipPath
       id="clipPath1632"
       clipPathUnits="userSpaceOnUse">
      <path
         style="clip-rule:evenodd"
         id="path1630"
         d="M 10.1178,287.029 V 10.0094 H 200.138 V 287.029 H 10.1178" />
    </clipPath>
    <clipPath
       id="clipPath1620"
       clipPathUnits="userSpaceOnUse">
      <path
         style="clip-rule:evenodd"
         id="path1618"
         d="M 10.1178,287.029 V 10.0094 H 200.138 V 287.029 H 10.1178" />
    </clipPath>
    <clipPath
       id="clipPath1608"
       clipPathUnits="userSpaceOnUse">
      <path
         style="clip-rule:evenodd"
         id="path1606"
         d="M 10.1178,287.029 V 10.0094 H 200.138 V 287.029 H 10.1178" />
    </clipPath>
    <clipPath
       id="clipPath1596"
       clipPathUnits="userSpaceOnUse">
      <path
         style="clip-rule:evenodd"
         id="path1594"
         d="M 10.1178,287.029 V 10.0094 H 200.138 V 287.029 H 10.1178" />
    </clipPath>
    <clipPath
       id="clipPath1584"
       clipPathUnits="userSpaceOnUse">
      <path
         style="clip-rule:evenodd"
         id="path1582"
         d="M 10.1178,287.029 V 10.0094 H 200.138 V 287.029 H 10.1178" />
    </clipPath>
    <clipPath
       id="clipPath1572"
       clipPathUnits="userSpaceOnUse">
      <path
         style="clip-rule:evenodd"
         id="path1570"
         d="M 10.1178,287.029 V 10.0094 H 200.138 V 287.029 H 10.1178" />
    </clipPath>
    <clipPath
       id="clipPath1560"
       clipPathUnits="userSpaceOnUse">
      <path
         style="clip-rule:evenodd"
         id="path1558"
         d="M 10.1178,287.029 V 10.0094 H 200.138 V 287.029 H 10.1178" />
    </clipPath>
    <clipPath
       id="clipPath1548"
       clipPathUnits="userSpaceOnUse">
      <path
         style="clip-rule:evenodd"
         id="path1546"
         d="M 10.1178,287.029 V 10.0094 H 200.138 V 287.029 H 10.1178" />
    </clipPath>
    <clipPath
       id="clipPath1536"
       clipPathUnits="userSpaceOnUse">
      <path
         style="clip-rule:evenodd"
         id="path1534"
         d="M 10.1178,287.029 V 10.0094 H 200.138 V 287.029 H 10.1178" />
    </clipPath>
    <clipPath
       id="clipPath1524"
       clipPathUnits="userSpaceOnUse">
      <path
         style="clip-rule:evenodd"
         id="path1522"
         d="M 10.1178,287.029 V 10.0094 H 200.138 V 287.029 H 10.1178" />
    </clipPath>
    <clipPath
       id="clipPath1512"
       clipPathUnits="userSpaceOnUse">
      <path
         style="clip-rule:evenodd"
         id="path1510"
         d="M 10.1178,287.029 V 10.0094 H 200.138 V 287.029 H 10.1178" />
    </clipPath>
    <clipPath
       id="clipPath1500"
       clipPathUnits="userSpaceOnUse">
      <path
         style="clip-rule:evenodd"
         id="path1498"
         d="M 10.1178,287.029 V 10.0094 H 200.138 V 287.029 H 10.1178" />
    </clipPath>
    <clipPath
       id="clipPath1488"
       clipPathUnits="userSpaceOnUse">
      <path
         style="clip-rule:evenodd"
         id="path1486"
         d="M 10.1178,287.029 V 10.0094 H 200.138 V 287.029 H 10.1178" />
    </clipPath>
    <clipPath
       id="clipPath1476"
       clipPathUnits="userSpaceOnUse">
      <path
         style="clip-rule:evenodd"
         id="path1474"
         d="M 10.1178,287.029 V 10.0094 H 200.138 V 287.029 H 10.1178" />
    </clipPath>
    <clipPath
       id="clipPath1464"
       clipPathUnits="userSpaceOnUse">
      <path
         style="clip-rule:evenodd"
         id="path1462"
         d="M 10.1178,287.029 V 10.0094 H 200.138 V 287.029 H 10.1178" />
    </clipPath>
    <clipPath
       id="clipPath1452"
       clipPathUnits="userSpaceOnUse">
      <path
         style="clip-rule:evenodd"
         id="path1450"
         d="M 10.1178,287.029 V 10.0094 H 200.138 V 287.029 H 10.1178" />
    </clipPath>
    <clipPath
       id="clipPath1440"
       clipPathUnits="userSpaceOnUse">
      <path
         style="clip-rule:evenodd"
         id="path1438"
         d="M 10.1178,287.029 V 10.0094 H 200.138 V 287.029 H 10.1178" />
    </clipPath>
    <clipPath
       id="clipPath1428"
       clipPathUnits="userSpaceOnUse">
      <path
         style="clip-rule:evenodd"
         id="path1426"
         d="M 10.1178,287.029 V 10.0094 H 200.138 V 287.029 H 10.1178" />
    </clipPath>
    <clipPath
       id="clipPath1416"
       clipPathUnits="userSpaceOnUse">
      <path
         style="clip-rule:evenodd"
         id="path1414"
         d="M 10.1178,287.029 V 10.0094 H 200.138 V 287.029 H 10.1178" />
    </clipPath>
    <clipPath
       id="clipPath1404"
       clipPathUnits="userSpaceOnUse">
      <path
         style="clip-rule:evenodd"
         id="path1402"
         d="M 10.1178,287.029 V 10.0094 H 200.138 V 287.029 H 10.1178" />
    </clipPath>
    <clipPath
       id="clipPath1392"
       clipPathUnits="userSpaceOnUse">
      <path
         style="clip-rule:evenodd"
         id="path1390"
         d="M 10.1178,287.029 V 10.0094 H 200.138 V 287.029 H 10.1178" />
    </clipPath>
    <clipPath
       id="clipPath1380"
       clipPathUnits="userSpaceOnUse">
      <path
         style="clip-rule:evenodd"
         id="path1378"
         d="M 10.1178,287.029 V 10.0094 H 200.138 V 287.029 H 10.1178" />
    </clipPath>
    <clipPath
       id="clipPath1368"
       clipPathUnits="userSpaceOnUse">
      <path
         style="clip-rule:evenodd"
         id="path1366"
         d="M 10.1178,287.029 V 10.0094 H 200.138 V 287.029 H 10.1178" />
    </clipPath>
    <clipPath
       id="clipPath1356"
       clipPathUnits="userSpaceOnUse">
      <path
         style="clip-rule:evenodd"
         id="path1354"
         d="M 10.1178,287.029 V 10.0094 H 200.138 V 287.029 H 10.1178" />
    </clipPath>
    <clipPath
       id="clipPath1344"
       clipPathUnits="userSpaceOnUse">
      <path
         style="clip-rule:evenodd"
         id="path1342"
         d="M 10.1178,287.029 V 10.0094 H 200.138 V 287.029 H 10.1178" />
    </clipPath>
    <clipPath
       id="clipPath1332"
       clipPathUnits="userSpaceOnUse">
      <path
         style="clip-rule:evenodd"
         id="path1330"
         d="M 10.1178,287.029 V 10.0094 H 200.138 V 287.029 H 10.1178" />
    </clipPath>
    <clipPath
       id="clipPath1320"
       clipPathUnits="userSpaceOnUse">
      <path
         style="clip-rule:evenodd"
         id="path1318"
         d="M 10.1178,287.029 V 10.0094 H 200.138 V 287.029 H 10.1178" />
    </clipPath>
    <clipPath
       id="clipPath1308"
       clipPathUnits="userSpaceOnUse">
      <path
         style="clip-rule:evenodd"
         id="path1306"
         d="M 10.1178,287.029 V 10.0094 H 200.138 V 287.029 H 10.1178" />
    </clipPath>
    <clipPath
       id="clipPath1296"
       clipPathUnits="userSpaceOnUse">
      <path
         style="clip-rule:evenodd"
         id="path1294"
         d="M 10.1178,287.029 V 10.0094 H 200.138 V 287.029 H 10.1178" />
    </clipPath>
    <clipPath
       id="clipPath1284"
       clipPathUnits="userSpaceOnUse">
      <path
         style="clip-rule:evenodd"
         id="path1282"
         d="M 10.1178,287.029 V 10.0094 H 200.138 V 287.029 H 10.1178" />
    </clipPath>
  </defs>
  <metadata
     id="metadata106650">
    <rdf:RDF>
      <cc:Work
         rdf:about="">
        <dc:format>image/svg+xml</dc:format>
        <dc:type
           rdf:resource="http://purl.org/dc/dcmitype/StillImage" />
        <dc:title></dc:title>
      </cc:Work>
    </rdf:RDF>
  </metadata>
  <g
     transform="translate(68.599406,-142.22402)"
     id="layer1">
    <g
       id="g354"
       transform="matrix(1.0000015,0,0,1.0000015,-144.62912,-66.668295)">
      <path
         id="path356"
         style="fill:none;stroke:#000000;stroke-width:0.13;stroke-linecap:round;stroke-linejoin:round;stroke-miterlimit:10;stroke-dasharray:none;stroke-opacity:1"
         d="m 76.956,213.328 6.2666,0.561" />
    </g>
    <g
       id="g358"
       transform="matrix(1.0000015,0,0,1.0000015,-144.62912,-66.668295)">
      <path
         id="path360"
         style="fill:none;stroke:#000000;stroke-width:0.13;stroke-linecap:round;stroke-linejoin:round;stroke-miterlimit:10;stroke-dasharray:none;stroke-opacity:1"
         d="m 83.9419,213.829 1.9786,-0.479" />
    </g>
    <g
       id="g362"
       transform="matrix(1.0000015,0,0,1.0000015,-144.62912,-66.668295)">
      <path
         id="path364"
         style="fill:none;stroke:#000000;stroke-width:0.13;stroke-linecap:round;stroke-linejoin:round;stroke-miterlimit:10;stroke-dasharray:none;stroke-opacity:1"
         d="m 76.7969,210.374 0.1591,2.954" />
    </g>
    <g
       id="g366"
       transform="matrix(1.0000015,0,0,1.0000015,-144.62912,-66.668295)">
      <path
         id="path368"
         style="fill:none;stroke:#000000;stroke-width:0.1;stroke-linecap:round;stroke-linejoin:round;stroke-miterlimit:10;stroke-dasharray:none;stroke-opacity:1"
         d="m 77.1815,212.271 1.4719,0.032" />
    </g>
    <g
       id="g370"
       transform="matrix(1.0000015,0,0,1.0000015,-144.62912,-66.668295)">
      <path
         id="path372"
         style="fill:none;stroke:#000000;stroke-width:0.1;stroke-linecap:round;stroke-linejoin:round;stroke-miterlimit:10;stroke-dasharray:none;stroke-opacity:1"
         d="m 78.6534,212.303 3.8568,0.302" />
    </g>
    <g
       id="g374"
       transform="matrix(1.0000015,0,0,1.0000015,-144.62912,-66.668295)">
      <path
         id="path376"
         style="fill:none;stroke:#000000;stroke-width:0.1;stroke-linecap:round;stroke-linejoin:round;stroke-miterlimit:10;stroke-dasharray:none;stroke-opacity:1"
         d="m 83.7368,212.599 2.123,-0.268" />
    </g>
    <g
       id="g378"
       transform="matrix(1.0000015,0,0,1.0000015,-144.62912,-66.668295)">
      <path
         id="path380"
         style="fill:none;stroke:#000000;stroke-width:0.13;stroke-linecap:round;stroke-linejoin:round;stroke-miterlimit:10;stroke-dasharray:none;stroke-opacity:1"
         d="m 85.9205,213.35 0.0592,0.994" />
    </g>
    <g
       id="g382"
       transform="matrix(1.0000015,0,0,1.0000015,-144.62912,-66.668295)">
      <path
         id="path384"
         style="fill:none;stroke:#000000;stroke-width:0.13;stroke-linecap:round;stroke-linejoin:round;stroke-miterlimit:10;stroke-dasharray:none;stroke-opacity:1"
         d="m 77.1629,214.776 6.1828,0.225" />
    </g>
    <g
       id="g386"
       transform="matrix(1.0000015,0,0,1.0000015,-144.62912,-66.668295)">
      <path
         id="path388"
         style="fill:none;stroke:#000000;stroke-width:0.13;stroke-linecap:round;stroke-linejoin:round;stroke-miterlimit:10;stroke-dasharray:none;stroke-opacity:1"
         d="m 84.1251,214.966 1.3855,-0.398" />
    </g>
    <g
       id="g390"
       transform="matrix(1.0000015,0,0,1.0000015,-144.62912,-66.668295)">
      <path
         id="path392"
         style="fill:none;stroke:#000000;stroke-width:0.13;stroke-linecap:round;stroke-linejoin:round;stroke-miterlimit:10;stroke-dasharray:none;stroke-opacity:1"
         d="m 76.2623,210.117 0.1386,4.572" />
    </g>
    <g
       id="g394"
       transform="matrix(1.0000015,0,0,1.0000015,-144.62912,-66.668295)">
      <path
         id="path396"
         style="fill:none;stroke:#000000;stroke-width:0.13;stroke-linecap:round;stroke-linejoin:round;stroke-miterlimit:10;stroke-dasharray:none;stroke-opacity:1"
         d="m 76.4701,215.625 -0.0173,0.173" />
    </g>
    <g
       id="g398"
       transform="matrix(1.0000015,0,0,1.0000015,-144.62912,-66.668295)">
      <path
         id="path400"
         style="fill:none;stroke:#000000;stroke-width:0.13;stroke-linecap:round;stroke-linejoin:round;stroke-miterlimit:10;stroke-dasharray:none;stroke-opacity:1"
         d="m 76.7646,215.867 0.0173,-0.139" />
    </g>
    <g
       id="g402"
       transform="matrix(1.0000015,0,0,1.0000015,-144.62912,-66.668295)">
      <path
         id="path404"
         style="fill:none;stroke:#000000;stroke-width:0.13;stroke-linecap:round;stroke-linejoin:round;stroke-miterlimit:10;stroke-dasharray:none;stroke-opacity:1"
         d="m 79.478,210.252 0.0976,1.072" />
    </g>
    <g
       id="g406"
       transform="matrix(1.0000015,0,0,1.0000015,-144.62912,-66.668295)">
      <path
         id="path408"
         style="fill:none;stroke:#000000;stroke-width:0.1;stroke-linecap:round;stroke-linejoin:round;stroke-miterlimit:10;stroke-dasharray:none;stroke-opacity:1"
         d="m 78.6782,211.917 0.0293,0.39" />
    </g>
    <g
       id="g410"
       transform="matrix(1.0000015,0,0,1.0000015,-144.62912,-66.668295)">
      <path
         id="path412"
         style="fill:none;stroke:#000000;stroke-width:0.13;stroke-linecap:round;stroke-linejoin:round;stroke-miterlimit:10;stroke-dasharray:none;stroke-opacity:1"
         d="m 79.0522,210.538 0.0467,0.779" />
    </g>
    <g
       id="g414"
       transform="matrix(1.0000015,0,0,1.0000015,-144.62912,-66.668295)">
      <path
         id="path416"
         style="fill:none;stroke:#000000;stroke-width:0.1;stroke-linecap:round;stroke-linejoin:round;stroke-miterlimit:10;stroke-dasharray:none;stroke-opacity:1"
         d="m 77.2017,210.344 0.1073,1.088" />
    </g>
    <g
       id="g418"
       transform="matrix(1.0000015,0,0,1.0000015,-144.62912,-66.668295)">
      <path
         id="path420"
         style="fill:none;stroke:#000000;stroke-width:0.1;stroke-linecap:round;stroke-linejoin:round;stroke-miterlimit:10;stroke-dasharray:none;stroke-opacity:1"
         d="m 77.5035,210.338 0.0933,1.005" />
    </g>
    <g
       id="g422"
       transform="matrix(1.0000015,0,0,1.0000015,-144.62912,-66.668295)">
      <path
         id="path424"
         style="fill:none;stroke:#000000;stroke-width:0.1;stroke-linecap:round;stroke-linejoin:round;stroke-miterlimit:10;stroke-dasharray:none;stroke-opacity:1"
         d="m 77.9135,210.354 0.0534,0.962" />
    </g>
    <g
       id="g426"
       transform="matrix(1.0000015,0,0,1.0000015,-144.62912,-66.668295)">
      <path
         id="path428"
         style="fill:none;stroke:#000000;stroke-width:0.1;stroke-linecap:round;stroke-linejoin:round;stroke-miterlimit:10;stroke-dasharray:none;stroke-opacity:1"
         d="m 78.1906,210.379 0.0147,0.873" />
    </g>
    <g
       id="g430"
       transform="matrix(1.0000015,0,0,1.0000015,-144.62912,-66.668295)">
      <path
         id="path432"
         style="fill:none;stroke:#000000;stroke-width:0.1;stroke-linecap:round;stroke-linejoin:round;stroke-miterlimit:10;stroke-dasharray:none;stroke-opacity:1"
         d="M 78.4695,210.417 78.532,211.3" />
    </g>
    <g
       id="g434"
       transform="matrix(1.0000015,0,0,1.0000015,-144.62912,-66.668295)">
      <path
         id="path436"
         style="fill:none;stroke:#000000;stroke-width:0.1;stroke-linecap:round;stroke-linejoin:round;stroke-miterlimit:10;stroke-dasharray:none;stroke-opacity:1"
         d="m 78.7815,210.475 -0.02,0.828" />
    </g>
    <g
       id="g438"
       transform="matrix(1.0000015,0,0,1.0000015,-144.62912,-66.668295)">
      <path
         id="path440"
         style="fill:none;stroke:#000000;stroke-width:0.1;stroke-linecap:round;stroke-linejoin:round;stroke-miterlimit:10;stroke-dasharray:none;stroke-opacity:1"
         d="m 80.4683,211.879 -0.1331,0.119" />
    </g>
    <g
       id="g442"
       transform="matrix(1.0000015,0,0,1.0000015,-144.62912,-66.668295)">
      <path
         id="path444"
         style="fill:none;stroke:#000000;stroke-width:0.1;stroke-linecap:round;stroke-linejoin:round;stroke-miterlimit:10;stroke-dasharray:none;stroke-opacity:1"
         d="m 80.6505,211.914 -0.1191,0.119" />
    </g>
    <g
       id="g446"
       transform="matrix(1.0000015,0,0,1.0000015,-144.62912,-66.668295)">
      <path
         id="path448"
         style="fill:none;stroke:#000000;stroke-width:0.1;stroke-linecap:round;stroke-linejoin:round;stroke-miterlimit:10;stroke-dasharray:none;stroke-opacity:1"
         d="m 83.6246,212.246 -0.0523,0.07" />
    </g>
    <g
       id="g450"
       transform="matrix(1.0000015,0,0,1.0000015,-144.62912,-66.668295)">
      <path
         id="path452"
         style="fill:none;stroke:#000000;stroke-width:0.1;stroke-linecap:round;stroke-linejoin:round;stroke-miterlimit:10;stroke-dasharray:none;stroke-opacity:1"
         d="m 83.8157,212.236 -0.0404,0.071" />
    </g>
    <g
       id="g454"
       transform="matrix(1.0000015,0,0,1.0000015,-144.62912,-66.668295)">
      <path
         id="path456"
         style="fill:none;stroke:#000000;stroke-width:0.1;stroke-linecap:round;stroke-linejoin:round;stroke-miterlimit:10;stroke-dasharray:none;stroke-opacity:1"
         d="m 83.5735,213.174 -0.0201,0.051" />
    </g>
    <g
       id="g458"
       transform="matrix(1.0000015,0,0,1.0000015,-144.62912,-66.668295)">
      <path
         id="path460"
         style="fill:none;stroke:#000000;stroke-width:0.1;stroke-linecap:round;stroke-linejoin:round;stroke-miterlimit:10;stroke-dasharray:none;stroke-opacity:1"
         d="m 83.5043,213.294 -0.0097,0.034" />
    </g>
    <g
       id="g462"
       transform="matrix(1.0000015,0,0,1.0000015,-144.62912,-66.668295)">
      <path
         id="path464"
         style="fill:none;stroke:#000000;stroke-width:0.1;stroke-linecap:round;stroke-linejoin:round;stroke-miterlimit:10;stroke-dasharray:none;stroke-opacity:1"
         d="m 83.3874,213.469 0.112,0.054" />
    </g>
    <g
       id="g466"
       transform="matrix(1.0000015,0,0,1.0000015,-144.62912,-66.668295)">
      <path
         id="path468"
         style="fill:none;stroke:#000000;stroke-width:0.1;stroke-linecap:round;stroke-linejoin:round;stroke-miterlimit:10;stroke-dasharray:none;stroke-opacity:1"
         d="m 83.7395,214.227 -0.007,0.035" />
    </g>
    <g
       id="g470"
       transform="matrix(1.0000015,0,0,1.0000015,-144.62912,-66.668295)">
      <path
         id="path472"
         style="fill:none;stroke:#000000;stroke-width:0.1;stroke-linecap:round;stroke-linejoin:round;stroke-miterlimit:10;stroke-dasharray:none;stroke-opacity:1"
         d="M 83.7186,214.465 V 214.5" />
    </g>
    <g
       id="g474"
       transform="matrix(1.0000015,0,0,1.0000015,-144.62912,-66.668295)">
      <path
         id="path476"
         style="fill:none;stroke:#000000;stroke-width:0.1;stroke-linecap:round;stroke-linejoin:round;stroke-miterlimit:10;stroke-dasharray:none;stroke-opacity:1"
         d="m 83.6416,214.675 0.056,0.035" />
    </g>
    <g
       id="g478"
       transform="matrix(1.0000015,0,0,1.0000015,-144.62912,-66.668295)">
      <path
         id="path480"
         style="fill:none;stroke:#000000;stroke-width:0.1;stroke-linecap:round;stroke-linejoin:round;stroke-miterlimit:10;stroke-dasharray:none;stroke-opacity:1"
         d="m 77.0653,214.083 -0.0581,0.088" />
    </g>
    <g
       id="g482"
       transform="matrix(1.0000015,0,0,1.0000015,-144.62912,-66.668295)">
      <path
         id="path484"
         style="fill:none;stroke:#000000;stroke-width:0.1;stroke-linecap:round;stroke-linejoin:round;stroke-miterlimit:10;stroke-dasharray:none;stroke-opacity:1"
         d="m 77.0943,214.446 -0.0871,0.03" />
    </g>
    <g
       id="g1278"
       transform="matrix(1.0000015,0,0,1.0000015,-144.62912,-66.668295)">
      <g
         clip-path="url(#clipPath1284)"
         id="g1280">
        <g
           id="g1286">
          <path
             id="path1288"
             style="fill:none;stroke:#000000;stroke-width:0.13;stroke-linecap:round;stroke-linejoin:round;stroke-miterlimit:10;stroke-dasharray:none;stroke-opacity:1"
             d="m 83.9419,213.829 c -0.1498,0.055 -0.3082,0.084 -0.4679,0.084 -0.0843,0 -0.1685,-0.008 -0.2514,-0.024" />
        </g>
      </g>
    </g>
    <g
       id="g1290"
       transform="matrix(1.0000015,0,0,1.0000015,-144.62912,-66.668295)">
      <g
         clip-path="url(#clipPath1296)"
         id="g1292">
        <g
           id="g1298">
          <path
             id="path1300"
             style="fill:none;stroke:#000000;stroke-width:0.1;stroke-linecap:round;stroke-linejoin:round;stroke-miterlimit:10;stroke-dasharray:none;stroke-opacity:1"
             d="m 76.9132,212.532 c -0.0043,-0.017 -0.0064,-0.034 -0.0064,-0.052 0,-0.12 0.0971,-0.217 0.2168,-0.217 0.0196,0 0.0391,0.003 0.0579,0.008" />
        </g>
      </g>
    </g>
    <g
       id="g1302"
       transform="matrix(1.0000015,0,0,1.0000015,-144.62912,-66.668295)">
      <g
         clip-path="url(#clipPath1308)"
         id="g1304">
        <g
           id="g1310">
          <path
             id="path1312"
             style="fill:none;stroke:#000000;stroke-width:0.1;stroke-linecap:round;stroke-linejoin:round;stroke-miterlimit:10;stroke-dasharray:none;stroke-opacity:1"
             d="m 83.7368,212.599 c -0.2027,0.058 -0.4125,0.087 -0.6232,0.087 -0.2039,0 -0.4068,-0.027 -0.6034,-0.081" />
        </g>
      </g>
    </g>
    <g
       id="g1314"
       transform="matrix(1.0000015,0,0,1.0000015,-144.62912,-66.668295)">
      <g
         clip-path="url(#clipPath1320)"
         id="g1316">
        <g
           id="g1322">
          <path
             id="path1324"
             style="fill:none;stroke:#000000;stroke-width:0.1;stroke-linecap:round;stroke-linejoin:round;stroke-miterlimit:10;stroke-dasharray:none;stroke-opacity:1"
             d="m 85.8598,212.331 c 0.0826,0.185 0.1253,0.387 0.1253,0.59 0,0.145 -0.0218,0.29 -0.0646,0.429" />
        </g>
      </g>
    </g>
    <g
       id="g1326"
       transform="matrix(1.0000015,0,0,1.0000015,-144.62912,-66.668295)">
      <g
         clip-path="url(#clipPath1332)"
         id="g1328">
        <g
           id="g1334">
          <path
             id="path1336"
             style="fill:none;stroke:#000000;stroke-width:0.13;stroke-linecap:round;stroke-linejoin:round;stroke-miterlimit:10;stroke-dasharray:none;stroke-opacity:1"
             d="m 76.4701,215.625 c -0.169,-0.108 -0.2715,-0.294 -0.2715,-0.494 0,-0.169 0.0738,-0.331 0.2023,-0.442" />
        </g>
      </g>
    </g>
    <g
       id="g1338"
       transform="matrix(1.0000015,0,0,1.0000015,-144.62912,-66.668295)">
      <g
         clip-path="url(#clipPath1344)"
         id="g1340">
        <g
           id="g1346">
          <path
             id="path1348"
             style="fill:none;stroke:#000000;stroke-width:0.13;stroke-linecap:round;stroke-linejoin:round;stroke-miterlimit:10;stroke-dasharray:none;stroke-opacity:1"
             d="m 77.1629,214.776 c 0.0568,0.099 0.0867,0.211 0.0867,0.325 0,0.29 -0.1903,0.545 -0.4677,0.627" />
        </g>
      </g>
    </g>
    <g
       id="g1350"
       transform="matrix(1.0000015,0,0,1.0000015,-144.62912,-66.668295)">
      <g
         clip-path="url(#clipPath1356)"
         id="g1352">
        <g
           id="g1358">
          <path
             id="path1360"
             style="fill:none;stroke:#000000;stroke-width:0.13;stroke-linecap:round;stroke-linejoin:round;stroke-miterlimit:10;stroke-dasharray:none;stroke-opacity:1"
             d="m 76.7646,215.867 c -0.016,0.073 -0.081,0.126 -0.1561,0.126 -0.0881,0 -0.1596,-0.072 -0.1596,-0.16 0,-0.012 0.0013,-0.024 0.0039,-0.035" />
        </g>
      </g>
    </g>
    <g
       id="g1362"
       transform="matrix(1.0000015,0,0,1.0000015,-144.62912,-66.668295)">
      <g
         clip-path="url(#clipPath1368)"
         id="g1364">
        <g
           id="g1370">
          <path
             id="path1372"
             style="fill:none;stroke:#000000;stroke-width:0.13;stroke-linecap:round;stroke-linejoin:round;stroke-miterlimit:10;stroke-dasharray:none;stroke-opacity:1"
             d="m 78.5706,214.827 c 0,0 0,0 0,0.001 0,0.237 -0.1458,0.451 -0.3673,0.537" />
        </g>
      </g>
    </g>
    <g
       id="g1374"
       transform="matrix(1.0000015,0,0,1.0000015,-144.62912,-66.668295)">
      <g
         clip-path="url(#clipPath1380)"
         id="g1376">
        <g
           id="g1382">
          <path
             id="path1384"
             style="fill:none;stroke:#000000;stroke-width:0.13;stroke-linecap:round;stroke-linejoin:round;stroke-miterlimit:10;stroke-dasharray:none;stroke-opacity:1"
             d="m 77.9528,215.39 c -0.3223,-0.034 -0.5783,-0.286 -0.6182,-0.608" />
        </g>
      </g>
    </g>
    <g
       id="g1386"
       transform="matrix(1.0000015,0,0,1.0000015,-144.62912,-66.668295)">
      <g
         clip-path="url(#clipPath1392)"
         id="g1388">
        <g
           id="g1394">
          <path
             id="path1396"
             style="fill:none;stroke:#000000;stroke-width:0.13;stroke-linecap:round;stroke-linejoin:round;stroke-miterlimit:10;stroke-dasharray:none;stroke-opacity:1"
             d="m 78.2033,215.365 c 0.0055,0.015 0.0083,0.031 0.0083,0.046 0,0.072 -0.0583,0.13 -0.1302,0.13 -0.072,0 -0.1303,-0.058 -0.1303,-0.13 0,-0.007 5e-4,-0.014 0.0017,-0.021" />
        </g>
      </g>
    </g>
    <g
       id="g1398"
       transform="matrix(1.0000015,0,0,1.0000015,-144.62912,-66.668295)">
      <g
         clip-path="url(#clipPath1404)"
         id="g1400">
        <g
           id="g1406">
          <path
             id="path1408"
             style="fill:none;stroke:#000000;stroke-width:0.13;stroke-linecap:round;stroke-linejoin:round;stroke-miterlimit:10;stroke-dasharray:none;stroke-opacity:1"
             d="m 76.2623,210.117 c -0.1037,-0.059 -0.1677,-0.169 -0.1677,-0.289 0,-0.144 0.0928,-0.272 0.23,-0.317" />
        </g>
      </g>
    </g>
    <g
       id="g1410"
       transform="matrix(1.0000015,0,0,1.0000015,-144.62912,-66.668295)">
      <g
         clip-path="url(#clipPath1416)"
         id="g1412">
        <g
           id="g1418">
          <path
             id="path1420"
             style="fill:none;stroke:#000000;stroke-width:0.13;stroke-linecap:round;stroke-linejoin:round;stroke-miterlimit:10;stroke-dasharray:none;stroke-opacity:1"
             d="m 76.3246,209.511 c -0.0735,-0.059 -0.1162,-0.148 -0.1162,-0.243 0,-0.172 0.1396,-0.311 0.3119,-0.311 0.1722,0 0.3119,0.139 0.3119,0.311 0,0.071 -0.0236,0.138 -0.0669,0.193" />
        </g>
      </g>
    </g>
    <g
       id="g1422"
       transform="matrix(1.0000015,0,0,1.0000015,-144.62912,-66.668295)">
      <g
         clip-path="url(#clipPath1428)"
         id="g1424">
        <g
           id="g1430">
          <path
             id="path1432"
             style="fill:none;stroke:#000000;stroke-width:0.13;stroke-linecap:round;stroke-linejoin:round;stroke-miterlimit:10;stroke-dasharray:none;stroke-opacity:1"
             d="m 76.7653,209.461 c 0.1256,0.016 0.2198,0.123 0.2198,0.249 0,0.098 -0.0564,0.186 -0.1446,0.228" />
        </g>
      </g>
    </g>
    <g
       id="g1434"
       transform="matrix(1.0000015,0,0,1.0000015,-144.62912,-66.668295)">
      <g
         clip-path="url(#clipPath1440)"
         id="g1436">
        <g
           id="g1442">
          <path
             id="path1444"
             style="fill:none;stroke:#000000;stroke-width:0.13;stroke-linecap:round;stroke-linejoin:round;stroke-miterlimit:10;stroke-dasharray:none;stroke-opacity:1"
             d="m 76.8405,209.938 c 0.0659,-0.002 0.1319,-0.003 0.1978,-0.003 0.6613,0 1.3204,0.074 1.9654,0.22" />
        </g>
      </g>
    </g>
    <g
       id="g1446"
       transform="matrix(1.0000015,0,0,1.0000015,-144.62912,-66.668295)">
      <g
         clip-path="url(#clipPath1452)"
         id="g1448">
        <g
           id="g1454">
          <path
             id="path1456"
             style="fill:none;stroke:#000000;stroke-width:0.13;stroke-linecap:round;stroke-linejoin:round;stroke-miterlimit:10;stroke-dasharray:none;stroke-opacity:1"
             d="m 79.0037,210.155 c -0.0971,-0.007 -0.1724,-0.088 -0.1724,-0.185 0,-0.102 0.0828,-0.185 0.1849,-0.185 0.0339,0 0.0671,0.01 0.096,0.027" />
        </g>
      </g>
    </g>
    <g
       id="g1458"
       transform="matrix(1.0000015,0,0,1.0000015,-144.62912,-66.668295)">
      <g
         clip-path="url(#clipPath1464)"
         id="g1460">
        <g
           id="g1466">
          <path
             id="path1468"
             style="fill:none;stroke:#000000;stroke-width:0.13;stroke-linecap:round;stroke-linejoin:round;stroke-miterlimit:10;stroke-dasharray:none;stroke-opacity:1"
             d="m 79.1122,209.812 c -0.0046,-0.018 -0.007,-0.037 -0.007,-0.056 0,-0.126 0.1021,-0.228 0.228,-0.228 0.1259,0 0.228,0.102 0.228,0.228 0,0.071 -0.0332,0.138 -0.0898,0.182" />
        </g>
      </g>
    </g>
    <g
       id="g1470"
       transform="matrix(1.0000015,0,0,1.0000015,-144.62912,-66.668295)">
      <g
         clip-path="url(#clipPath1476)"
         id="g1472">
        <g
           id="g1478">
          <path
             id="path1480"
             style="fill:none;stroke:#000000;stroke-width:0.13;stroke-linecap:round;stroke-linejoin:round;stroke-miterlimit:10;stroke-dasharray:none;stroke-opacity:1"
             d="m 79.4714,209.938 c 0.0777,0.012 0.1351,0.079 0.1351,0.157 0,0.076 -0.0538,0.142 -0.1285,0.157" />
        </g>
      </g>
    </g>
    <g
       id="g1482"
       transform="matrix(1.0000015,0,0,1.0000015,-144.62912,-66.668295)">
      <g
         clip-path="url(#clipPath1488)"
         id="g1484">
        <g
           id="g1490">
          <path
             id="path1492"
             style="fill:none;stroke:#000000;stroke-width:0.1;stroke-linecap:round;stroke-linejoin:round;stroke-miterlimit:10;stroke-dasharray:none;stroke-opacity:1"
             d="m 77.1352,212.263 c -0.0622,-0.097 -0.0951,-0.211 -0.0951,-0.326 0,-0.266 0.1722,-0.501 0.4255,-0.581" />
        </g>
      </g>
    </g>
    <g
       id="g1494"
       transform="matrix(1.0000015,0,0,1.0000015,-144.62912,-66.668295)">
      <g
         clip-path="url(#clipPath1500)"
         id="g1496">
        <g
           id="g1502">
          <path
             id="path1504"
             style="fill:none;stroke:#000000;stroke-width:0.1;stroke-linecap:round;stroke-linejoin:round;stroke-miterlimit:10;stroke-dasharray:none;stroke-opacity:1"
             d="m 77.4656,211.356 c 0.0161,0 0.0322,-0.001 0.0483,-0.001 0.4535,0 0.8822,0.207 1.1643,0.562" />
        </g>
      </g>
    </g>
    <g
       id="g1506"
       transform="matrix(1.0000015,0,0,1.0000015,-144.62912,-66.668295)">
      <g
         clip-path="url(#clipPath1512)"
         id="g1508">
        <g
           id="g1514">
          <path
             id="path1516"
             style="fill:none;stroke:#000000;stroke-width:0.1;stroke-linecap:round;stroke-linejoin:round;stroke-miterlimit:10;stroke-dasharray:none;stroke-opacity:1"
             d="m 84.8166,211.847 c 0.1073,-0.063 0.2292,-0.096 0.3534,-0.096 0.3402,0 0.6312,0.244 0.6898,0.58" />
        </g>
      </g>
    </g>
    <g
       id="g1518"
       transform="matrix(1.0000015,0,0,1.0000015,-144.62912,-66.668295)">
      <g
         clip-path="url(#clipPath1524)"
         id="g1520">
        <g
           id="g1526">
          <path
             id="path1528"
             style="fill:none;stroke:#000000;stroke-width:0.1;stroke-linecap:round;stroke-linejoin:round;stroke-miterlimit:10;stroke-dasharray:none;stroke-opacity:1"
             d="m 84.8166,211.847 c -0.1165,0.042 -0.2396,0.064 -0.3636,0.064 -0.159,0 -0.3159,-0.036 -0.4593,-0.105" />
        </g>
      </g>
    </g>
    <g
       id="g1530"
       transform="matrix(1.0000015,0,0,1.0000015,-144.62912,-66.668295)">
      <g
         clip-path="url(#clipPath1536)"
         id="g1532">
        <g
           id="g1538">
          <path
             id="path1540"
             style="fill:none;stroke:#000000;stroke-width:0.1;stroke-linecap:round;stroke-linejoin:round;stroke-miterlimit:10;stroke-dasharray:none;stroke-opacity:1"
             d="m 83.251,211.756 c 0.0968,-0.025 0.1965,-0.038 0.2966,-0.038 0.1531,0 0.3046,0.03 0.4461,0.088" />
        </g>
      </g>
    </g>
    <g
       id="g1542"
       transform="matrix(1.0000015,0,0,1.0000015,-144.62912,-66.668295)">
      <g
         clip-path="url(#clipPath1548)"
         id="g1544">
        <g
           id="g1550">
          <path
             id="path1552"
             style="fill:none;stroke:#000000;stroke-width:0.1;stroke-linecap:round;stroke-linejoin:round;stroke-miterlimit:10;stroke-dasharray:none;stroke-opacity:1"
             d="m 83.251,211.756 c -0.0881,0.024 -0.1788,0.035 -0.27,0.035 -0.1803,0 -0.3576,-0.046 -0.5148,-0.134" />
        </g>
      </g>
    </g>
    <g
       id="g1554"
       transform="matrix(1.0000015,0,0,1.0000015,-144.62912,-66.668295)">
      <g
         clip-path="url(#clipPath1560)"
         id="g1556">
        <g
           id="g1562">
          <path
             id="path1564"
             style="fill:none;stroke:#000000;stroke-width:0.1;stroke-linecap:round;stroke-linejoin:round;stroke-miterlimit:10;stroke-dasharray:none;stroke-opacity:1"
             d="m 81.4741,211.607 c 0.1373,-0.039 0.2794,-0.059 0.4221,-0.059 0.1951,0 0.3885,0.037 0.57,0.109" />
        </g>
      </g>
    </g>
    <g
       id="g1566"
       transform="matrix(1.0000015,0,0,1.0000015,-144.62912,-66.668295)">
      <g
         clip-path="url(#clipPath1572)"
         id="g1568">
        <g
           id="g1574">
          <path
             id="path1576"
             style="fill:none;stroke:#000000;stroke-width:0.1;stroke-linecap:round;stroke-linejoin:round;stroke-miterlimit:10;stroke-dasharray:none;stroke-opacity:1"
             d="m 81.4741,211.607 c -0.0725,0.031 -0.1506,0.047 -0.2296,0.047 -0.1145,0 -0.2264,-0.034 -0.3216,-0.097" />
        </g>
      </g>
    </g>
    <g
       id="g1578"
       transform="matrix(1.0000015,0,0,1.0000015,-144.62912,-66.668295)">
      <g
         clip-path="url(#clipPath1584)"
         id="g1580">
        <g
           id="g1586">
          <path
             id="path1588"
             style="fill:none;stroke:#000000;stroke-width:0.1;stroke-linecap:round;stroke-linejoin:round;stroke-miterlimit:10;stroke-dasharray:none;stroke-opacity:1"
             d="m 79.9108,211.557 c 0.1549,-0.086 0.329,-0.131 0.506,-0.131 0.177,0 0.3512,0.045 0.5061,0.131" />
        </g>
      </g>
    </g>
    <g
       id="g1590"
       transform="matrix(1.0000015,0,0,1.0000015,-144.62912,-66.668295)">
      <g
         clip-path="url(#clipPath1596)"
         id="g1592">
        <g
           id="g1598">
          <path
             id="path1600"
             style="fill:none;stroke:#000000;stroke-width:0.1;stroke-linecap:round;stroke-linejoin:round;stroke-miterlimit:10;stroke-dasharray:none;stroke-opacity:1"
             d="m 79.9108,211.557 c -0.1437,0.068 -0.3007,0.103 -0.4597,0.103 -0.1022,0 -0.2039,-0.015 -0.3019,-0.043" />
        </g>
      </g>
    </g>
    <g
       id="g1602"
       transform="matrix(1.0000015,0,0,1.0000015,-144.62912,-66.668295)">
      <g
         clip-path="url(#clipPath1608)"
         id="g1604">
        <g
           id="g1610">
          <path
             id="path1612"
             style="fill:none;stroke:#000000;stroke-width:0.1;stroke-linecap:round;stroke-linejoin:round;stroke-miterlimit:10;stroke-dasharray:none;stroke-opacity:1"
             d="m 78.6782,211.917 c 0.048,-0.181 0.2118,-0.307 0.3991,-0.307 0.0241,0 0.0481,0.002 0.0719,0.007" />
        </g>
      </g>
    </g>
    <g
       id="g1614"
       transform="matrix(1.0000015,0,0,1.0000015,-144.62912,-66.668295)">
      <g
         clip-path="url(#clipPath1620)"
         id="g1616">
        <g
           id="g1622">
          <path
             id="path1624"
             style="fill:none;stroke:#000000;stroke-width:0.1;stroke-linecap:round;stroke-linejoin:round;stroke-miterlimit:10;stroke-dasharray:none;stroke-opacity:1"
             d="m 77.4656,211.356 c 0.3504,-0.037 0.7026,-0.056 1.055,-0.056 0.3524,0 0.7045,0.019 1.055,0.056" />
        </g>
      </g>
    </g>
    <g
       id="g1626"
       transform="matrix(1.0000015,0,0,1.0000015,-144.62912,-66.668295)">
      <g
         clip-path="url(#clipPath1632)"
         id="g1628">
        <g
           id="g1634">
          <path
             id="path1636"
             style="fill:none;stroke:#000000;stroke-width:0.1;stroke-linecap:round;stroke-linejoin:round;stroke-miterlimit:10;stroke-dasharray:none;stroke-opacity:1"
             d="m 79.5756,211.356 c 0.1286,0.018 0.2386,0.101 0.2903,0.221" />
        </g>
      </g>
    </g>
    <g
       id="g1638"
       transform="matrix(1.0000015,0,0,1.0000015,-144.62912,-66.668295)">
      <g
         clip-path="url(#clipPath1644)"
         id="g1640">
        <g
           id="g1646">
          <path
             id="path1648"
             style="fill:none;stroke:#000000;stroke-width:0.13;stroke-linecap:round;stroke-linejoin:round;stroke-miterlimit:10;stroke-dasharray:none;stroke-opacity:1"
             d="m 76.7969,210.374 c 0.2245,-0.024 0.45,-0.036 0.6757,-0.036 0.5328,0 1.0635,0.067 1.5796,0.2" />
        </g>
      </g>
    </g>
    <g
       id="g1650"
       transform="matrix(1.0000015,0,0,1.0000015,-144.62912,-66.668295)">
      <g
         clip-path="url(#clipPath1656)"
         id="g1652">
        <g
           id="g1658">
          <path
             id="path1660"
             style="fill:none;stroke:#000000;stroke-width:0.1;stroke-linecap:round;stroke-linejoin:round;stroke-miterlimit:10;stroke-dasharray:none;stroke-opacity:1"
             d="m 78.0204,211.942 c -0.0095,0.028 -0.0358,0.047 -0.0654,0.047 -0.0226,0 -0.0437,-0.011 -0.0566,-0.03" />
        </g>
      </g>
    </g>
    <g
       id="g1662"
       transform="matrix(1.0000015,0,0,1.0000015,-144.62912,-66.668295)">
      <g
         clip-path="url(#clipPath1668)"
         id="g1664">
        <g
           id="g1670">
          <path
             id="path1672"
             style="fill:none;stroke:#000000;stroke-width:0.1;stroke-linecap:round;stroke-linejoin:round;stroke-miterlimit:10;stroke-dasharray:none;stroke-opacity:1"
             d="m 78.0291,212.105 c -0.0071,0.024 -0.0294,0.041 -0.0547,0.041 -0.0252,0 -0.0475,-0.017 -0.0546,-0.041" />
        </g>
      </g>
    </g>
    <g
       id="g1674"
       transform="matrix(1.0000015,0,0,1.0000015,-144.62912,-66.668295)">
      <g
         clip-path="url(#clipPath1680)"
         id="g1676">
        <g
           id="g1682">
          <path
             id="path1684"
             style="fill:none;stroke:#000000;stroke-width:0.1;stroke-linecap:round;stroke-linejoin:round;stroke-miterlimit:10;stroke-dasharray:none;stroke-opacity:1"
             d="m 83.1017,212.141 c -0.0685,0.049 -0.1503,0.075 -0.2341,0.075 -0.1274,0 -0.2473,-0.06 -0.3238,-0.162" />
        </g>
      </g>
    </g>
    <g
       id="g1686"
       transform="matrix(1.0000015,0,0,1.0000015,-144.62912,-66.668295)">
      <g
         clip-path="url(#clipPath1692)"
         id="g1688">
        <g
           id="g1694">
          <path
             id="path1696"
             style="fill:none;stroke:#000000;stroke-width:0.13;stroke-linecap:round;stroke-linejoin:round;stroke-miterlimit:10;stroke-dasharray:none;stroke-opacity:1"
             d="m 83.8382,215.715 c 0.0154,0.028 0.0234,0.06 0.0234,0.092 0,0.105 -0.0856,0.191 -0.1912,0.191 -0.1056,0 -0.1913,-0.086 -0.1913,-0.191 0,-0.022 0.0036,-0.043 0.0106,-0.063" />
        </g>
      </g>
    </g>
    <g
       id="g1698"
       transform="matrix(1.0000015,0,0,1.0000015,-144.62912,-66.668295)">
      <g
         clip-path="url(#clipPath1704)"
         id="g1700">
        <g
           id="g1706">
          <path
             id="path1708"
             style="fill:none;stroke:#000000;stroke-width:0.13;stroke-linecap:round;stroke-linejoin:round;stroke-miterlimit:10;stroke-dasharray:none;stroke-opacity:1"
             d="m 83.4897,215.744 c -0.1797,-0.056 -0.3022,-0.222 -0.3022,-0.41 0,-0.129 0.0581,-0.251 0.1582,-0.333" />
        </g>
      </g>
    </g>
    <g
       id="g1710"
       transform="matrix(1.0000015,0,0,1.0000015,-144.62912,-66.668295)">
      <g
         clip-path="url(#clipPath1716)"
         id="g1712">
        <g
           id="g1718">
          <path
             id="path1720"
             style="fill:none;stroke:#000000;stroke-width:0.13;stroke-linecap:round;stroke-linejoin:round;stroke-miterlimit:10;stroke-dasharray:none;stroke-opacity:1"
             d="m 84.1251,214.966 c 0.0585,0.082 0.09,0.18 0.09,0.28 0,0.226 -0.1568,0.421 -0.3769,0.469" />
        </g>
      </g>
    </g>
    <g
       id="g1722"
       transform="matrix(1.0000015,0,0,1.0000015,-144.62912,-66.668295)">
      <g
         clip-path="url(#clipPath1728)"
         id="g1724">
        <g
           id="g1730">
          <path
             id="path1732"
             style="fill:none;stroke:#000000;stroke-width:0.13;stroke-linecap:round;stroke-linejoin:round;stroke-miterlimit:10;stroke-dasharray:none;stroke-opacity:1"
             d="m 85.9797,214.344 c 0.1148,0.078 0.1837,0.207 0.1837,0.345 0,0.169 -0.1025,0.321 -0.2592,0.385" />
        </g>
      </g>
    </g>
    <g
       id="g1734"
       transform="matrix(1.0000015,0,0,1.0000015,-144.62912,-66.668295)">
      <g
         clip-path="url(#clipPath1740)"
         id="g1736">
        <g
           id="g1742">
          <path
             id="path1744"
             style="fill:none;stroke:#000000;stroke-width:0.13;stroke-linecap:round;stroke-linejoin:round;stroke-miterlimit:10;stroke-dasharray:none;stroke-opacity:1"
             d="m 85.715,215.075 c -0.15,-0.038 -0.2549,-0.174 -0.2549,-0.329 0,-0.063 0.0175,-0.124 0.0505,-0.178" />
        </g>
      </g>
    </g>
    <g
       id="g1746"
       transform="matrix(1.0000015,0,0,1.0000015,-144.62912,-66.668295)">
      <g
         clip-path="url(#clipPath1752)"
         id="g1748">
        <g
           id="g1754">
          <path
             id="path1756"
             style="fill:none;stroke:#000000;stroke-width:0.13;stroke-linecap:round;stroke-linejoin:round;stroke-miterlimit:10;stroke-dasharray:none;stroke-opacity:1"
             d="m 85.9042,215.074 c 0.0144,0.02 0.0221,0.043 0.0221,0.068 0,0.064 -0.052,0.116 -0.1162,0.116 -0.0641,0 -0.1161,-0.052 -0.1161,-0.116 0,-0.024 0.0073,-0.047 0.021,-0.067" />
        </g>
      </g>
    </g>
  </g>
</svg>
