<?xml version="1.0" encoding="UTF-8" standalone="no"?>
<svg
   xmlns:dc="http://purl.org/dc/elements/1.1/"
   xmlns:cc="http://creativecommons.org/ns#"
   xmlns:rdf="http://www.w3.org/1999/02/22-rdf-syntax-ns#"
   xmlns:svg="http://www.w3.org/2000/svg"
   xmlns="http://www.w3.org/2000/svg"
   id="svg105720"
   version="1.1"
   viewBox="0 0 7.5218115 7.5690112"
   height="7.5690112mm"
   width="7.5218115mm">
  <defs
     id="defs105714">
    <clipPath
       id="clipPath2316"
       clipPathUnits="userSpaceOnUse">
      <path
         style="clip-rule:evenodd"
         id="path2314"
         d="M 10.1178,287.029 V 10.0094 H 200.138 V 287.029 H 10.1178" />
    </clipPath>
    <clipPath
       id="clipPath2304"
       clipPathUnits="userSpaceOnUse">
      <path
         style="clip-rule:evenodd"
         id="path2302"
         d="M 10.1178,287.029 V 10.0094 H 200.138 V 287.029 H 10.1178" />
    </clipPath>
    <clipPath
       id="clipPath2292"
       clipPathUnits="userSpaceOnUse">
      <path
         style="clip-rule:evenodd"
         id="path2290"
         d="M 10.1178,287.029 V 10.0094 H 200.138 V 287.029 H 10.1178" />
    </clipPath>
    <clipPath
       id="clipPath2280"
       clipPathUnits="userSpaceOnUse">
      <path
         style="clip-rule:evenodd"
         id="path2278"
         d="M 10.1178,287.029 V 10.0094 H 200.138 V 287.029 H 10.1178" />
    </clipPath>
    <clipPath
       id="clipPath2268"
       clipPathUnits="userSpaceOnUse">
      <path
         style="clip-rule:evenodd"
         id="path2266"
         d="M 10.1178,287.029 V 10.0094 H 200.138 V 287.029 H 10.1178" />
    </clipPath>
    <clipPath
       id="clipPath2256"
       clipPathUnits="userSpaceOnUse">
      <path
         style="clip-rule:evenodd"
         id="path2254"
         d="M 10.1178,287.029 V 10.0094 H 200.138 V 287.029 H 10.1178" />
    </clipPath>
    <clipPath
       id="clipPath2244"
       clipPathUnits="userSpaceOnUse">
      <path
         style="clip-rule:evenodd"
         id="path2242"
         d="M 10.1178,287.029 V 10.0094 H 200.138 V 287.029 H 10.1178" />
    </clipPath>
    <clipPath
       id="clipPath2232"
       clipPathUnits="userSpaceOnUse">
      <path
         style="clip-rule:evenodd"
         id="path2230"
         d="M 10.1178,287.029 V 10.0094 H 200.138 V 287.029 H 10.1178" />
    </clipPath>
    <clipPath
       id="clipPath2220"
       clipPathUnits="userSpaceOnUse">
      <path
         style="clip-rule:evenodd"
         id="path2218"
         d="M 10.1178,287.029 V 10.0094 H 200.138 V 287.029 H 10.1178" />
    </clipPath>
    <clipPath
       id="clipPath2208"
       clipPathUnits="userSpaceOnUse">
      <path
         style="clip-rule:evenodd"
         id="path2206"
         d="M 10.1178,287.029 V 10.0094 H 200.138 V 287.029 H 10.1178" />
    </clipPath>
    <clipPath
       id="clipPath2196"
       clipPathUnits="userSpaceOnUse">
      <path
         style="clip-rule:evenodd"
         id="path2194"
         d="M 10.1178,287.029 V 10.0094 H 200.138 V 287.029 H 10.1178" />
    </clipPath>
    <clipPath
       id="clipPath2184"
       clipPathUnits="userSpaceOnUse">
      <path
         style="clip-rule:evenodd"
         id="path2182"
         d="M 10.1178,287.029 V 10.0094 H 200.138 V 287.029 H 10.1178" />
    </clipPath>
    <clipPath
       id="clipPath2172"
       clipPathUnits="userSpaceOnUse">
      <path
         style="clip-rule:evenodd"
         id="path2170"
         d="M 10.1178,287.029 V 10.0094 H 200.138 V 287.029 H 10.1178" />
    </clipPath>
    <clipPath
       id="clipPath2160"
       clipPathUnits="userSpaceOnUse">
      <path
         style="clip-rule:evenodd"
         id="path2158"
         d="M 10.1178,287.029 V 10.0094 H 200.138 V 287.029 H 10.1178" />
    </clipPath>
    <clipPath
       id="clipPath2148"
       clipPathUnits="userSpaceOnUse">
      <path
         style="clip-rule:evenodd"
         id="path2146"
         d="M 10.1178,287.029 V 10.0094 H 200.138 V 287.029 H 10.1178" />
    </clipPath>
    <clipPath
       id="clipPath2136"
       clipPathUnits="userSpaceOnUse">
      <path
         style="clip-rule:evenodd"
         id="path2134"
         d="M 10.1178,287.029 V 10.0094 H 200.138 V 287.029 H 10.1178" />
    </clipPath>
    <clipPath
       id="clipPath2124"
       clipPathUnits="userSpaceOnUse">
      <path
         style="clip-rule:evenodd"
         id="path2122"
         d="M 10.1178,287.029 V 10.0094 H 200.138 V 287.029 H 10.1178" />
    </clipPath>
    <clipPath
       id="clipPath2112"
       clipPathUnits="userSpaceOnUse">
      <path
         style="clip-rule:evenodd"
         id="path2110"
         d="M 10.1178,287.029 V 10.0094 H 200.138 V 287.029 H 10.1178" />
    </clipPath>
    <clipPath
       id="clipPath2100"
       clipPathUnits="userSpaceOnUse">
      <path
         style="clip-rule:evenodd"
         id="path2098"
         d="M 10.1178,287.029 V 10.0094 H 200.138 V 287.029 H 10.1178" />
    </clipPath>
    <clipPath
       id="clipPath2088"
       clipPathUnits="userSpaceOnUse">
      <path
         style="clip-rule:evenodd"
         id="path2086"
         d="M 10.1178,287.029 V 10.0094 H 200.138 V 287.029 H 10.1178" />
    </clipPath>
    <clipPath
       id="clipPath2076"
       clipPathUnits="userSpaceOnUse">
      <path
         style="clip-rule:evenodd"
         id="path2074"
         d="M 10.1178,287.029 V 10.0094 H 200.138 V 287.029 H 10.1178" />
    </clipPath>
    <clipPath
       id="clipPath2064"
       clipPathUnits="userSpaceOnUse">
      <path
         style="clip-rule:evenodd"
         id="path2062"
         d="M 10.1178,287.029 V 10.0094 H 200.138 V 287.029 H 10.1178" />
    </clipPath>
    <clipPath
       id="clipPath2052"
       clipPathUnits="userSpaceOnUse">
      <path
         style="clip-rule:evenodd"
         id="path2050"
         d="M 10.1178,287.029 V 10.0094 H 200.138 V 287.029 H 10.1178" />
    </clipPath>
    <clipPath
       id="clipPath2040"
       clipPathUnits="userSpaceOnUse">
      <path
         style="clip-rule:evenodd"
         id="path2038"
         d="M 10.1178,287.029 V 10.0094 H 200.138 V 287.029 H 10.1178" />
    </clipPath>
    <clipPath
       id="clipPath2028"
       clipPathUnits="userSpaceOnUse">
      <path
         style="clip-rule:evenodd"
         id="path2026"
         d="M 10.1178,287.029 V 10.0094 H 200.138 V 287.029 H 10.1178" />
    </clipPath>
    <clipPath
       id="clipPath2016"
       clipPathUnits="userSpaceOnUse">
      <path
         style="clip-rule:evenodd"
         id="path2014"
         d="M 10.1178,287.029 V 10.0094 H 200.138 V 287.029 H 10.1178" />
    </clipPath>
    <clipPath
       id="clipPath2004"
       clipPathUnits="userSpaceOnUse">
      <path
         style="clip-rule:evenodd"
         id="path2002"
         d="M 10.1178,287.029 V 10.0094 H 200.138 V 287.029 H 10.1178" />
    </clipPath>
    <clipPath
       id="clipPath1992"
       clipPathUnits="userSpaceOnUse">
      <path
         style="clip-rule:evenodd"
         id="path1990"
         d="M 10.1178,287.029 V 10.0094 H 200.138 V 287.029 H 10.1178" />
    </clipPath>
    <clipPath
       id="clipPath1980"
       clipPathUnits="userSpaceOnUse">
      <path
         style="clip-rule:evenodd"
         id="path1978"
         d="M 10.1178,287.029 V 10.0094 H 200.138 V 287.029 H 10.1178" />
    </clipPath>
    <clipPath
       id="clipPath1968"
       clipPathUnits="userSpaceOnUse">
      <path
         style="clip-rule:evenodd"
         id="path1966"
         d="M 10.1178,287.029 V 10.0094 H 200.138 V 287.029 H 10.1178" />
    </clipPath>
    <clipPath
       id="clipPath1956"
       clipPathUnits="userSpaceOnUse">
      <path
         style="clip-rule:evenodd"
         id="path1954"
         d="M 10.1178,287.029 V 10.0094 H 200.138 V 287.029 H 10.1178" />
    </clipPath>
    <clipPath
       id="clipPath1944"
       clipPathUnits="userSpaceOnUse">
      <path
         style="clip-rule:evenodd"
         id="path1942"
         d="M 10.1178,287.029 V 10.0094 H 200.138 V 287.029 H 10.1178" />
    </clipPath>
    <clipPath
       id="clipPath1932"
       clipPathUnits="userSpaceOnUse">
      <path
         style="clip-rule:evenodd"
         id="path1930"
         d="M 10.1178,287.029 V 10.0094 H 200.138 V 287.029 H 10.1178" />
    </clipPath>
    <clipPath
       id="clipPath1920"
       clipPathUnits="userSpaceOnUse">
      <path
         style="clip-rule:evenodd"
         id="path1918"
         d="M 10.1178,287.029 V 10.0094 H 200.138 V 287.029 H 10.1178" />
    </clipPath>
    <clipPath
       id="clipPath1908"
       clipPathUnits="userSpaceOnUse">
      <path
         style="clip-rule:evenodd"
         id="path1906"
         d="M 10.1178,287.029 V 10.0094 H 200.138 V 287.029 H 10.1178" />
    </clipPath>
    <clipPath
       id="clipPath1896"
       clipPathUnits="userSpaceOnUse">
      <path
         style="clip-rule:evenodd"
         id="path1894"
         d="M 10.1178,287.029 V 10.0094 H 200.138 V 287.029 H 10.1178" />
    </clipPath>
    <clipPath
       id="clipPath1884"
       clipPathUnits="userSpaceOnUse">
      <path
         style="clip-rule:evenodd"
         id="path1882"
         d="M 10.1178,287.029 V 10.0094 H 200.138 V 287.029 H 10.1178" />
    </clipPath>
    <clipPath
       id="clipPath1872"
       clipPathUnits="userSpaceOnUse">
      <path
         style="clip-rule:evenodd"
         id="path1870"
         d="M 10.1178,287.029 V 10.0094 H 200.138 V 287.029 H 10.1178" />
    </clipPath>
    <clipPath
       id="clipPath1860"
       clipPathUnits="userSpaceOnUse">
      <path
         style="clip-rule:evenodd"
         id="path1858"
         d="M 10.1178,287.029 V 10.0094 H 200.138 V 287.029 H 10.1178" />
    </clipPath>
    <clipPath
       id="clipPath1848"
       clipPathUnits="userSpaceOnUse">
      <path
         style="clip-rule:evenodd"
         id="path1846"
         d="M 10.1178,287.029 V 10.0094 H 200.138 V 287.029 H 10.1178" />
    </clipPath>
    <clipPath
       id="clipPath1836"
       clipPathUnits="userSpaceOnUse">
      <path
         style="clip-rule:evenodd"
         id="path1834"
         d="M 10.1178,287.029 V 10.0094 H 200.138 V 287.029 H 10.1178" />
    </clipPath>
    <clipPath
       id="clipPath1824"
       clipPathUnits="userSpaceOnUse">
      <path
         style="clip-rule:evenodd"
         id="path1822"
         d="M 10.1178,287.029 V 10.0094 H 200.138 V 287.029 H 10.1178" />
    </clipPath>
    <clipPath
       id="clipPath1812"
       clipPathUnits="userSpaceOnUse">
      <path
         style="clip-rule:evenodd"
         id="path1810"
         d="M 10.1178,287.029 V 10.0094 H 200.138 V 287.029 H 10.1178" />
    </clipPath>
    <clipPath
       id="clipPath1800"
       clipPathUnits="userSpaceOnUse">
      <path
         style="clip-rule:evenodd"
         id="path1798"
         d="M 10.1178,287.029 V 10.0094 H 200.138 V 287.029 H 10.1178" />
    </clipPath>
    <clipPath
       id="clipPath1788"
       clipPathUnits="userSpaceOnUse">
      <path
         style="clip-rule:evenodd"
         id="path1786"
         d="M 10.1178,287.029 V 10.0094 H 200.138 V 287.029 H 10.1178" />
    </clipPath>
    <clipPath
       id="clipPath1776"
       clipPathUnits="userSpaceOnUse">
      <path
         style="clip-rule:evenodd"
         id="path1774"
         d="M 10.1178,287.029 V 10.0094 H 200.138 V 287.029 H 10.1178" />
    </clipPath>
    <clipPath
       id="clipPath1764"
       clipPathUnits="userSpaceOnUse">
      <path
         style="clip-rule:evenodd"
         id="path1762"
         d="M 10.1178,287.029 V 10.0094 H 200.138 V 287.029 H 10.1178" />
    </clipPath>
  </defs>
  <metadata
     id="metadata105717">
    <rdf:RDF>
      <cc:Work
         rdf:about="">
        <dc:format>image/svg+xml</dc:format>
        <dc:type
           rdf:resource="http://purl.org/dc/dcmitype/StillImage" />
        <dc:title></dc:title>
      </cc:Work>
    </rdf:RDF>
  </metadata>
  <g
     transform="translate(290.26685,-38.459543)"
     id="layer1">
    <g
       id="g486"
       transform="matrix(1.0000015,0,0,1.0000015,-367.92887,-156.64275)">
      <path
         id="path488"
         style="fill:none;stroke:#000000;stroke-width:0.13;stroke-linecap:round;stroke-linejoin:round;stroke-miterlimit:10;stroke-dasharray:none;stroke-opacity:1"
         d="m 83.2121,201.522 -0.2815,-3.529" />
    </g>
    <g
       id="g490"
       transform="matrix(1.0000015,0,0,1.0000015,-367.92887,-156.64275)">
      <path
         id="path492"
         style="fill:none;stroke:#000000;stroke-width:0.13;stroke-linecap:round;stroke-linejoin:round;stroke-miterlimit:10;stroke-dasharray:none;stroke-opacity:1"
         d="m 78.281,201.47 0.1689,-1.153" />
    </g>
    <g
       id="g494"
       transform="matrix(1.0000015,0,0,1.0000015,-367.92887,-156.64275)">
      <path
         id="path496"
         style="fill:none;stroke:#000000;stroke-width:0.13;stroke-linecap:round;stroke-linejoin:round;stroke-miterlimit:10;stroke-dasharray:none;stroke-opacity:1"
         d="m 78.9328,200.013 -0.0666,0.894" />
    </g>
    <g
       id="g498"
       transform="matrix(1.0000015,0,0,1.0000015,-367.92887,-156.64275)">
      <path
         id="path500"
         style="fill:none;stroke:#000000;stroke-width:0.13;stroke-linecap:round;stroke-linejoin:round;stroke-miterlimit:10;stroke-dasharray:none;stroke-opacity:1"
         d="m 79.0892,201.15 0.4055,0.031" />
    </g>
    <g
       id="g502"
       transform="matrix(1.0000015,0,0,1.0000015,-367.92887,-156.64275)">
      <path
         id="path504"
         style="fill:none;stroke:#000000;stroke-width:0.13;stroke-linecap:round;stroke-linejoin:round;stroke-miterlimit:10;stroke-dasharray:none;stroke-opacity:1"
         d="m 80.5592,201.313 0.436,0.02" />
    </g>
    <g
       id="g506"
       transform="matrix(1.0000015,0,0,1.0000015,-367.92887,-156.64275)">
      <path
         id="path508"
         style="fill:none;stroke:#000000;stroke-width:0.13;stroke-linecap:round;stroke-linejoin:round;stroke-miterlimit:10;stroke-dasharray:none;stroke-opacity:1"
         d="m 82.002,201.166 0.413,-0.024" />
    </g>
    <g
       id="g1758"
       transform="matrix(1.0000015,0,0,1.0000015,-367.92887,-156.64275)">
      <g
         clip-path="url(#clipPath1764)"
         id="g1760">
        <g
           id="g1766">
          <path
             id="path1768"
             style="fill:none;stroke:#000000;stroke-width:0.13;stroke-linecap:round;stroke-linejoin:round;stroke-miterlimit:10;stroke-dasharray:none;stroke-opacity:1"
             d="m 83.2121,201.522 c -0.7732,0.22 -1.5733,0.332 -2.3773,0.332 -0.8657,0 -1.7265,-0.13 -2.5538,-0.384" />
        </g>
      </g>
    </g>
    <g
       id="g1770"
       transform="matrix(1.0000015,0,0,1.0000015,-367.92887,-156.64275)">
      <g
         clip-path="url(#clipPath1776)"
         id="g1772">
        <g
           id="g1778">
          <path
             id="path1780"
             style="fill:none;stroke:#000000;stroke-width:0.13;stroke-linecap:round;stroke-linejoin:round;stroke-miterlimit:10;stroke-dasharray:none;stroke-opacity:1"
             d="m 83.4561,202.097 c -0.8289,0.336 -1.7149,0.509 -2.6093,0.509 -0.955,0 -1.8996,-0.197 -2.7749,-0.579" />
        </g>
      </g>
    </g>
    <g
       id="g1782"
       transform="matrix(1.0000015,0,0,1.0000015,-367.92887,-156.64275)">
      <g
         clip-path="url(#clipPath1788)"
         id="g1784">
        <g
           id="g1790">
          <path
             id="path1792"
             style="fill:none;stroke:#000000;stroke-width:0.13;stroke-linecap:round;stroke-linejoin:round;stroke-miterlimit:10;stroke-dasharray:none;stroke-opacity:1"
             d="m 78.0719,202.027 c -0.0439,-0.06 -0.0675,-0.134 -0.0675,-0.209 0,-0.166 0.1146,-0.31 0.2766,-0.348" />
        </g>
      </g>
    </g>
    <g
       id="g1794"
       transform="matrix(1.0000015,0,0,1.0000015,-367.92887,-156.64275)">
      <g
         clip-path="url(#clipPath1800)"
         id="g1796">
        <g
           id="g1802">
          <path
             id="path1804"
             style="fill:none;stroke:#000000;stroke-width:0.13;stroke-linecap:round;stroke-linejoin:round;stroke-miterlimit:10;stroke-dasharray:none;stroke-opacity:1"
             d="m 83.2121,201.522 c 0.0209,-0.004 0.0421,-0.006 0.0634,-0.006 0.176,0 0.3187,0.142 0.3187,0.318 0,0.105 -0.0517,0.204 -0.1381,0.263" />
        </g>
      </g>
    </g>
    <g
       id="g1806"
       transform="matrix(1.0000015,0,0,1.0000015,-367.92887,-156.64275)">
      <g
         clip-path="url(#clipPath1812)"
         id="g1808">
        <g
           id="g1814">
          <path
             id="path1816"
             style="fill:none;stroke:#000000;stroke-width:0.13;stroke-linecap:round;stroke-linejoin:round;stroke-miterlimit:10;stroke-dasharray:none;stroke-opacity:1"
             d="m 83.1947,197.375 c 0.1867,-0.203 0.4497,-0.318 0.7252,-0.318 0.2918,0 0.5686,0.129 0.7559,0.353" />
        </g>
      </g>
    </g>
    <g
       id="g1818"
       transform="matrix(1.0000015,0,0,1.0000015,-367.92887,-156.64275)">
      <g
         clip-path="url(#clipPath1824)"
         id="g1820">
        <g
           id="g1826">
          <path
             id="path1828"
             style="fill:none;stroke:#000000;stroke-width:0.13;stroke-linecap:round;stroke-linejoin:round;stroke-miterlimit:10;stroke-dasharray:none;stroke-opacity:1"
             d="m 84.6758,197.41 c 0.2889,0.435 0.4429,0.946 0.4429,1.469 0,0.538 -0.1638,1.064 -0.4696,1.508" />
        </g>
      </g>
    </g>
    <g
       id="g1830"
       transform="matrix(1.0000015,0,0,1.0000015,-367.92887,-156.64275)">
      <g
         clip-path="url(#clipPath1836)"
         id="g1832">
        <g
           id="g1838">
          <path
             id="path1840"
             style="fill:none;stroke:#000000;stroke-width:0.13;stroke-linecap:round;stroke-linejoin:round;stroke-miterlimit:10;stroke-dasharray:none;stroke-opacity:1"
             d="m 84.6491,200.387 c -0.3152,0.277 -0.7203,0.429 -1.1398,0.429 -0.1198,0 -0.2392,-0.012 -0.3564,-0.037" />
        </g>
      </g>
    </g>
    <g
       id="g1842"
       transform="matrix(1.0000015,0,0,1.0000015,-367.92887,-156.64275)">
      <g
         clip-path="url(#clipPath1848)"
         id="g1844">
        <g
           id="g1850">
          <path
             id="path1852"
             style="fill:none;stroke:#000000;stroke-width:0.13;stroke-linecap:round;stroke-linejoin:round;stroke-miterlimit:10;stroke-dasharray:none;stroke-opacity:1"
             d="m 84.4067,199.357 c -0.1424,0.475 -0.5797,0.8 -1.0757,0.8 -0.0772,0 -0.1541,-0.007 -0.2296,-0.023" />
        </g>
      </g>
    </g>
    <g
       id="g1854"
       transform="matrix(1.0000015,0,0,1.0000015,-367.92887,-156.64275)">
      <g
         clip-path="url(#clipPath1860)"
         id="g1856">
        <g
           id="g1862">
          <path
             id="path1864"
             style="fill:none;stroke:#000000;stroke-width:0.13;stroke-linecap:round;stroke-linejoin:round;stroke-miterlimit:10;stroke-dasharray:none;stroke-opacity:1"
             d="m 84.4067,198.357 c 0.027,0.166 0.0405,0.333 0.0405,0.5 0,0.167 -0.0135,0.335 -0.0405,0.5" />
        </g>
      </g>
    </g>
    <g
       id="g1866"
       transform="matrix(1.0000015,0,0,1.0000015,-367.92887,-156.64275)">
      <g
         clip-path="url(#clipPath1872)"
         id="g1868">
        <g
           id="g1874">
          <path
             id="path1876"
             style="fill:none;stroke:#000000;stroke-width:0.13;stroke-linecap:round;stroke-linejoin:round;stroke-miterlimit:10;stroke-dasharray:none;stroke-opacity:1"
             d="m 83.6192,198.034 c 0.0855,-0.063 0.1889,-0.097 0.2951,-0.097 0.245,0 0.4537,0.178 0.4924,0.42" />
        </g>
      </g>
    </g>
    <g
       id="g1878"
       transform="matrix(1.0000015,0,0,1.0000015,-367.92887,-156.64275)">
      <g
         clip-path="url(#clipPath1884)"
         id="g1880">
        <g
           id="g1886">
          <path
             id="path1888"
             style="fill:none;stroke:#000000;stroke-width:0.13;stroke-linecap:round;stroke-linejoin:round;stroke-miterlimit:10;stroke-dasharray:none;stroke-opacity:1"
             d="m 82.9887,198.72 c 0.1546,-0.274 0.3704,-0.509 0.6305,-0.686" />
        </g>
      </g>
    </g>
    <g
       id="g1890"
       transform="matrix(1.0000015,0,0,1.0000015,-367.92887,-156.64275)">
      <g
         clip-path="url(#clipPath1896)"
         id="g1892">
        <g
           id="g1898">
          <path
             id="path1900"
             style="fill:none;stroke:#000000;stroke-width:0.13;stroke-linecap:round;stroke-linejoin:round;stroke-miterlimit:10;stroke-dasharray:none;stroke-opacity:1"
             d="m 79.809,200.877 c -0.0759,-0.556 -0.114,-1.116 -0.114,-1.677 0,-0.474 0.0273,-0.948 0.0818,-1.42" />
        </g>
      </g>
    </g>
    <g
       id="g1902"
       transform="matrix(1.0000015,0,0,1.0000015,-367.92887,-156.64275)">
      <g
         clip-path="url(#clipPath1908)"
         id="g1904">
        <g
           id="g1910">
          <path
             id="path1912"
             style="fill:none;stroke:#000000;stroke-width:0.13;stroke-linecap:round;stroke-linejoin:round;stroke-miterlimit:10;stroke-dasharray:none;stroke-opacity:1"
             d="m 79.809,200.877 c -0.0037,0.169 -0.1417,0.304 -0.3108,0.304 -0.0012,0 -0.0023,0 -0.0035,0" />
        </g>
      </g>
    </g>
    <g
       id="g1914"
       transform="matrix(1.0000015,0,0,1.0000015,-367.92887,-156.64275)">
      <g
         clip-path="url(#clipPath1920)"
         id="g1916">
        <g
           id="g1922">
          <path
             id="path1924"
             style="fill:none;stroke:#000000;stroke-width:0.13;stroke-linecap:round;stroke-linejoin:round;stroke-miterlimit:10;stroke-dasharray:none;stroke-opacity:1"
             d="m 79.0892,201.15 c -0.1237,0 -0.2239,-0.1 -0.2239,-0.224 0,-0.006 3e-4,-0.012 9e-4,-0.019" />
        </g>
      </g>
    </g>
    <g
       id="g1926"
       transform="matrix(1.0000015,0,0,1.0000015,-367.92887,-156.64275)">
      <g
         clip-path="url(#clipPath1932)"
         id="g1928">
        <g
           id="g1934">
          <path
             id="path1936"
             style="fill:none;stroke:#000000;stroke-width:0.13;stroke-linecap:round;stroke-linejoin:round;stroke-miterlimit:10;stroke-dasharray:none;stroke-opacity:1"
             d="m 81.2283,201.079 c -0.0616,-0.388 -0.0925,-0.781 -0.0925,-1.175 0,-0.23 0.0105,-0.461 0.0317,-0.69" />
        </g>
      </g>
    </g>
    <g
       id="g1938"
       transform="matrix(1.0000015,0,0,1.0000015,-367.92887,-156.64275)">
      <g
         clip-path="url(#clipPath1944)"
         id="g1940">
        <g
           id="g1946">
          <path
             id="path1948"
             style="fill:none;stroke:#000000;stroke-width:0.13;stroke-linecap:round;stroke-linejoin:round;stroke-miterlimit:10;stroke-dasharray:none;stroke-opacity:1"
             d="m 80.397,197.896 c 0.0474,0.427 0.0711,0.857 0.0711,1.287 0,0.608 -0.0475,1.215 -0.1421,1.815" />
        </g>
      </g>
    </g>
    <g
       id="g1950"
       transform="matrix(1.0000015,0,0,1.0000015,-367.92887,-156.64275)">
      <g
         clip-path="url(#clipPath1956)"
         id="g1952">
        <g
           id="g1958">
          <path
             id="path1960"
             style="fill:none;stroke:#000000;stroke-width:0.13;stroke-linecap:round;stroke-linejoin:round;stroke-miterlimit:10;stroke-dasharray:none;stroke-opacity:1"
             d="m 80.5592,201.313 c -0.1354,-0.017 -0.237,-0.132 -0.237,-0.269 0,-0.015 0.0013,-0.031 0.0038,-0.046" />
        </g>
      </g>
    </g>
    <g
       id="g1962"
       transform="matrix(1.0000015,0,0,1.0000015,-367.92887,-156.64275)">
      <g
         clip-path="url(#clipPath1968)"
         id="g1964">
        <g
           id="g1970">
          <path
             id="path1972"
             style="fill:none;stroke:#000000;stroke-width:0.13;stroke-linecap:round;stroke-linejoin:round;stroke-miterlimit:10;stroke-dasharray:none;stroke-opacity:1"
             d="m 81.2283,201.079 c 0.0027,0.014 0.0041,0.028 0.0041,0.042 0,0.118 -0.0955,0.213 -0.2134,0.213 -0.008,0 -0.0159,0 -0.0238,-0.001" />
        </g>
      </g>
    </g>
    <g
       id="g1974"
       transform="matrix(1.0000015,0,0,1.0000015,-367.92887,-156.64275)">
      <g
         clip-path="url(#clipPath1980)"
         id="g1976">
        <g
           id="g1982">
          <path
             id="path1984"
             style="fill:none;stroke:#000000;stroke-width:0.13;stroke-linecap:round;stroke-linejoin:round;stroke-miterlimit:10;stroke-dasharray:none;stroke-opacity:1"
             d="m 81.9049,198.992 c 0.006,0.114 0.009,0.228 0.009,0.342 0,0.49 -0.056,0.978 -0.1669,1.456" />
        </g>
      </g>
    </g>
    <g
       id="g1986"
       transform="matrix(1.0000015,0,0,1.0000015,-367.92887,-156.64275)">
      <g
         clip-path="url(#clipPath1992)"
         id="g1988">
        <g
           id="g1994">
          <path
             id="path1996"
             style="fill:none;stroke:#000000;stroke-width:0.13;stroke-linecap:round;stroke-linejoin:round;stroke-miterlimit:10;stroke-dasharray:none;stroke-opacity:1"
             d="m 82.002,201.166 c -0.1516,-0.035 -0.259,-0.17 -0.259,-0.326 0,-0.017 0.0014,-0.034 0.004,-0.05" />
        </g>
      </g>
    </g>
    <g
       id="g1998"
       transform="matrix(1.0000015,0,0,1.0000015,-367.92887,-156.64275)">
      <g
         clip-path="url(#clipPath2004)"
         id="g2000">
        <g
           id="g2006">
          <path
             id="path2008"
             style="fill:none;stroke:#000000;stroke-width:0.13;stroke-linecap:round;stroke-linejoin:round;stroke-miterlimit:10;stroke-dasharray:none;stroke-opacity:1"
             d="m 82.6822,200.826 c 0.0095,0.026 0.0143,0.054 0.0143,0.081 0,0.132 -0.1067,0.239 -0.2383,0.239 -0.0145,0 -0.029,-0.002 -0.0432,-0.004" />
        </g>
      </g>
    </g>
    <g
       id="g2010"
       transform="matrix(1.0000015,0,0,1.0000015,-367.92887,-156.64275)">
      <g
         clip-path="url(#clipPath2016)"
         id="g2012">
        <g
           id="g2018">
          <path
             id="path2020"
             style="fill:none;stroke:#000000;stroke-width:0.13;stroke-linecap:round;stroke-linejoin:round;stroke-miterlimit:10;stroke-dasharray:none;stroke-opacity:1"
             d="m 82.6822,200.826 c -0.0918,-0.383 -0.1382,-0.776 -0.1382,-1.169 0,-0.214 0.0137,-0.428 0.041,-0.641" />
        </g>
      </g>
    </g>
    <g
       id="g2022"
       transform="matrix(1.0000015,0,0,1.0000015,-367.92887,-156.64275)">
      <g
         clip-path="url(#clipPath2028)"
         id="g2024">
        <g
           id="g2030">
          <path
             id="path2032"
             style="fill:none;stroke:#000000;stroke-width:0.1;stroke-linecap:round;stroke-linejoin:round;stroke-miterlimit:10;stroke-dasharray:none;stroke-opacity:1"
             d="m 78.1953,196.046 c 0.1274,-0.415 0.511,-0.699 0.9454,-0.699 0.31,0 0.6021,0.146 0.789,0.393" />
        </g>
      </g>
    </g>
    <g
       id="g2034"
       transform="matrix(1.0000015,0,0,1.0000015,-367.92887,-156.64275)">
      <g
         clip-path="url(#clipPath2040)"
         id="g2036">
        <g
           id="g2042">
          <path
             id="path2044"
             style="fill:none;stroke:#000000;stroke-width:0.1;stroke-linecap:round;stroke-linejoin:round;stroke-miterlimit:10;stroke-dasharray:none;stroke-opacity:1"
             d="m 82.9613,196.192 c 0.0292,-0.006 0.059,-0.01 0.0889,-0.01 0.2291,0 0.4149,0.186 0.4149,0.415 0,0.207 -0.1528,0.383 -0.358,0.411" />
        </g>
      </g>
    </g>
    <g
       id="g2046"
       transform="matrix(1.0000015,0,0,1.0000015,-367.92887,-156.64275)">
      <g
         clip-path="url(#clipPath2052)"
         id="g2048">
        <g
           id="g2054">
          <path
             id="path2056"
             style="fill:none;stroke:#000000;stroke-width:0.1;stroke-linecap:round;stroke-linejoin:round;stroke-miterlimit:10;stroke-dasharray:none;stroke-opacity:1"
             d="m 82.2326,195.74 c 0.0824,-0.08 0.1925,-0.124 0.3071,-0.124 0.2443,0 0.4423,0.198 0.4423,0.442 0,0.046 -0.007,0.091 -0.0207,0.134" />
        </g>
      </g>
    </g>
    <g
       id="g2058"
       transform="matrix(1.0000015,0,0,1.0000015,-367.92887,-156.64275)">
      <g
         clip-path="url(#clipPath2064)"
         id="g2060">
        <g
           id="g2066">
          <path
             id="path2068"
             style="fill:none;stroke:#000000;stroke-width:0.1;stroke-linecap:round;stroke-linejoin:round;stroke-miterlimit:10;stroke-dasharray:none;stroke-opacity:1"
             d="m 80.7896,195.361 c 0.1647,-0.135 0.3714,-0.209 0.5846,-0.209 0.3802,0 0.7213,0.233 0.8584,0.588" />
        </g>
      </g>
    </g>
    <g
       id="g2070"
       transform="matrix(1.0000015,0,0,1.0000015,-367.92887,-156.64275)">
      <g
         clip-path="url(#clipPath2076)"
         id="g2072">
        <g
           id="g2078">
          <path
             id="path2080"
             style="fill:none;stroke:#000000;stroke-width:0.1;stroke-linecap:round;stroke-linejoin:round;stroke-miterlimit:10;stroke-dasharray:none;stroke-opacity:1"
             d="m 79.9297,195.74 c -2e-4,-0.005 -3e-4,-0.011 -3e-4,-0.016 0,-0.28 0.2268,-0.507 0.5066,-0.507 0.1321,0 0.259,0.052 0.3536,0.144" />
        </g>
      </g>
    </g>
    <g
       id="g2082"
       transform="matrix(1.0000015,0,0,1.0000015,-367.92887,-156.64275)">
      <g
         clip-path="url(#clipPath2088)"
         id="g2084">
        <g
           id="g2090">
          <path
             id="path2092"
             style="fill:none;stroke:#000000;stroke-width:0.1;stroke-linecap:round;stroke-linejoin:round;stroke-miterlimit:10;stroke-dasharray:none;stroke-opacity:1"
             d="m 78.3848,198.845 c -0.3754,-0.091 -0.6397,-0.427 -0.6397,-0.813 0,-0.193 0.0663,-0.379 0.1878,-0.528" />
        </g>
      </g>
    </g>
    <g
       id="g2094"
       transform="matrix(1.0000015,0,0,1.0000015,-367.92887,-156.64275)">
      <g
         clip-path="url(#clipPath2100)"
         id="g2096">
        <g
           id="g2102">
          <path
             id="path2104"
             style="fill:none;stroke:#000000;stroke-width:0.1;stroke-linecap:round;stroke-linejoin:round;stroke-miterlimit:10;stroke-dasharray:none;stroke-opacity:1"
             d="m 77.9329,197.504 c -0.138,-0.108 -0.2186,-0.274 -0.2186,-0.449 0,-0.155 0.0632,-0.304 0.1749,-0.411" />
        </g>
      </g>
    </g>
    <g
       id="g2106"
       transform="matrix(1.0000015,0,0,1.0000015,-367.92887,-156.64275)">
      <g
         clip-path="url(#clipPath2112)"
         id="g2108">
        <g
           id="g2114">
          <path
             id="path2116"
             style="fill:none;stroke:#000000;stroke-width:0.1;stroke-linecap:round;stroke-linejoin:round;stroke-miterlimit:10;stroke-dasharray:none;stroke-opacity:1"
             d="m 77.8892,196.644 c -0.1092,-0.059 -0.1773,-0.172 -0.1773,-0.296 0,-0.186 0.1503,-0.336 0.3357,-0.336 0.0512,0 0.1017,0.012 0.1477,0.034" />
        </g>
      </g>
    </g>
    <g
       id="g2118"
       transform="matrix(1.0000015,0,0,1.0000015,-367.92887,-156.64275)">
      <g
         clip-path="url(#clipPath2124)"
         id="g2120">
        <g
           id="g2126">
          <path
             id="path2128"
             style="fill:none;stroke:#000000;stroke-width:0.1;stroke-linecap:round;stroke-linejoin:round;stroke-miterlimit:10;stroke-dasharray:none;stroke-opacity:1"
             d="m 78.7389,200.009 c 0.0052,0.02 0.0079,0.041 0.0079,0.062 0,0.138 -0.1113,0.249 -0.2485,0.249 -0.1373,0 -0.2486,-0.111 -0.2486,-0.249 0,-0.093 0.0522,-0.178 0.1351,-0.221" />
        </g>
      </g>
    </g>
    <g
       id="g2130"
       transform="matrix(1.0000015,0,0,1.0000015,-367.92887,-156.64275)">
      <g
         clip-path="url(#clipPath2136)"
         id="g2132">
        <g
           id="g2138">
          <path
             id="path2140"
             style="fill:none;stroke:#000000;stroke-width:0.1;stroke-linecap:round;stroke-linejoin:round;stroke-miterlimit:10;stroke-dasharray:none;stroke-opacity:1"
             d="m 78.3848,199.85 c -0.0329,-0.072 -0.0498,-0.151 -0.0498,-0.23 0,-0.135 0.0487,-0.266 0.1372,-0.367" />
        </g>
      </g>
    </g>
    <g
       id="g2142"
       transform="matrix(1.0000015,0,0,1.0000015,-367.92887,-156.64275)">
      <g
         clip-path="url(#clipPath2148)"
         id="g2144">
        <g
           id="g2150">
          <path
             id="path2152"
             style="fill:none;stroke:#000000;stroke-width:0.1;stroke-linecap:round;stroke-linejoin:round;stroke-miterlimit:10;stroke-dasharray:none;stroke-opacity:1"
             d="m 78.4722,199.253 c -0.0859,-0.052 -0.1385,-0.145 -0.1385,-0.245 0,-0.059 0.0178,-0.116 0.0511,-0.163" />
        </g>
      </g>
    </g>
    <g
       id="g2154"
       transform="matrix(1.0000015,0,0,1.0000015,-367.92887,-156.64275)">
      <g
         clip-path="url(#clipPath2160)"
         id="g2156">
        <g
           id="g2162">
          <path
             id="path2164"
             style="fill:none;stroke:#000000;stroke-width:0.1;stroke-linecap:round;stroke-linejoin:round;stroke-miterlimit:10;stroke-dasharray:none;stroke-opacity:1"
             d="m 81.9049,198.992 c -0.0836,0.18 -0.2642,0.296 -0.4629,0.296 -0.2818,0 -0.5102,-0.229 -0.5102,-0.511 0,-0.188 0.1041,-0.361 0.2707,-0.45" />
        </g>
      </g>
    </g>
    <g
       id="g2166"
       transform="matrix(1.0000015,0,0,1.0000015,-367.92887,-156.64275)">
      <g
         clip-path="url(#clipPath2172)"
         id="g2168">
        <g
           id="g2174">
          <path
             id="path2176"
             style="fill:none;stroke:#000000;stroke-width:0.1;stroke-linecap:round;stroke-linejoin:round;stroke-miterlimit:10;stroke-dasharray:none;stroke-opacity:1"
             d="m 81.2025,198.327 c -0.1798,-0.062 -0.3003,-0.232 -0.3003,-0.422 0,-0.106 0.0374,-0.208 0.1057,-0.289" />
        </g>
      </g>
    </g>
    <g
       id="g2178"
       transform="matrix(1.0000015,0,0,1.0000015,-367.92887,-156.64275)">
      <g
         clip-path="url(#clipPath2184)"
         id="g2180">
        <g
           id="g2186">
          <path
             id="path2188"
             style="fill:none;stroke:#000000;stroke-width:0.1;stroke-linecap:round;stroke-linejoin:round;stroke-miterlimit:10;stroke-dasharray:none;stroke-opacity:1"
             d="m 81.0079,197.616 c -0.1979,0.186 -0.4589,0.289 -0.7301,0.289 -0.3157,0 -0.6153,-0.14 -0.8182,-0.382" />
        </g>
      </g>
    </g>
    <g
       id="g2190"
       transform="matrix(1.0000015,0,0,1.0000015,-367.92887,-156.64275)">
      <g
         clip-path="url(#clipPath2196)"
         id="g2192">
        <g
           id="g2198">
          <path
             id="path2200"
             style="fill:none;stroke:#000000;stroke-width:0.1;stroke-linecap:round;stroke-linejoin:round;stroke-miterlimit:10;stroke-dasharray:none;stroke-opacity:1"
             d="m 79.4596,197.523 c 0.0041,0.022 0.0062,0.044 0.0062,0.066 0,0.194 -0.1576,0.352 -0.352,0.352 -0.174,0 -0.3219,-0.127 -0.348,-0.299" />
        </g>
      </g>
    </g>
    <g
       id="g2202"
       transform="matrix(1.0000015,0,0,1.0000015,-367.92887,-156.64275)">
      <g
         clip-path="url(#clipPath2208)"
         id="g2204">
        <g
           id="g2210">
          <path
             id="path2212"
             style="fill:none;stroke:#000000;stroke-width:0.1;stroke-linecap:round;stroke-linejoin:round;stroke-miterlimit:10;stroke-dasharray:none;stroke-opacity:1"
             d="m 78.7658,197.642 c 0.0337,0.064 0.0513,0.135 0.0513,0.207 0,0.103 -0.0361,0.204 -0.102,0.283" />
        </g>
      </g>
    </g>
    <g
       id="g2214"
       transform="matrix(1.0000015,0,0,1.0000015,-367.92887,-156.64275)">
      <g
         clip-path="url(#clipPath2220)"
         id="g2216">
        <g
           id="g2222">
          <path
             id="path2224"
             style="fill:none;stroke:#000000;stroke-width:0.1;stroke-linecap:round;stroke-linejoin:round;stroke-miterlimit:10;stroke-dasharray:none;stroke-opacity:1"
             d="m 78.7151,198.132 c 0.1979,0.025 0.3465,0.193 0.3465,0.393 0,0.136 -0.0702,0.263 -0.1858,0.335" />
        </g>
      </g>
    </g>
    <g
       id="g2226"
       transform="matrix(1.0000015,0,0,1.0000015,-367.92887,-156.64275)">
      <g
         clip-path="url(#clipPath2232)"
         id="g2228">
        <g
           id="g2234">
          <path
             id="path2236"
             style="fill:none;stroke:#000000;stroke-width:0.1;stroke-linecap:round;stroke-linejoin:round;stroke-miterlimit:10;stroke-dasharray:none;stroke-opacity:1"
             d="m 78.8758,198.86 c 0.1096,0.095 0.1725,0.233 0.1725,0.379 0,0.111 -0.0369,0.219 -0.1048,0.306" />
        </g>
      </g>
    </g>
    <g
       id="g2238"
       transform="matrix(1.0000015,0,0,1.0000015,-367.92887,-156.64275)">
      <g
         clip-path="url(#clipPath2244)"
         id="g2240">
        <g
           id="g2246">
          <path
             id="path2248"
             style="fill:none;stroke:#000000;stroke-width:0.1;stroke-linecap:round;stroke-linejoin:round;stroke-miterlimit:10;stroke-dasharray:none;stroke-opacity:1"
             d="m 78.9435,199.545 c 0.0914,0.041 0.1502,0.132 0.1502,0.232 0,0.14 -0.1135,0.253 -0.2534,0.253 -0.0349,0 -0.0695,-0.007 -0.1014,-0.021" />
        </g>
      </g>
    </g>
    <g
       id="g2250"
       transform="matrix(1.0000015,0,0,1.0000015,-367.92887,-156.64275)">
      <g
         clip-path="url(#clipPath2256)"
         id="g2252">
        <g
           id="g2258">
          <path
             id="path2260"
             style="fill:none;stroke:#000000;stroke-width:0.1;stroke-linecap:round;stroke-linejoin:round;stroke-miterlimit:10;stroke-dasharray:none;stroke-opacity:1"
             d="m 83.1071,197.008 c 0.0576,0.112 0.0876,0.236 0.0876,0.361 0,0.27 -0.1374,0.52 -0.3644,0.665" />
        </g>
      </g>
    </g>
    <g
       id="g2262"
       transform="matrix(1.0000015,0,0,1.0000015,-367.92887,-156.64275)">
      <g
         clip-path="url(#clipPath2268)"
         id="g2264">
        <g
           id="g2270">
          <path
             id="path2272"
             style="fill:none;stroke:#000000;stroke-width:0.1;stroke-linecap:round;stroke-linejoin:round;stroke-miterlimit:10;stroke-dasharray:none;stroke-opacity:1"
             d="m 82.8303,198.034 c 0.0572,0.103 0.0872,0.219 0.0872,0.338 0,0.384 -0.3118,0.696 -0.6964,0.696 -0.1099,0 -0.2183,-0.026 -0.3162,-0.076" />
        </g>
      </g>
    </g>
    <g
       id="g2274"
       transform="matrix(1.0000015,0,0,1.0000015,-367.92887,-156.64275)">
      <g
         clip-path="url(#clipPath2280)"
         id="g2276">
        <g
           id="g2282">
          <path
             id="path2284"
             style="fill:none;stroke:#000000;stroke-width:0.1;stroke-linecap:round;stroke-linejoin:round;stroke-miterlimit:10;stroke-dasharray:none;stroke-opacity:1"
             d="m 81.0512,196.987 c 0.0476,-0.15 0.1865,-0.252 0.3435,-0.252 0.1733,0 0.322,0.124 0.3542,0.294" />
        </g>
      </g>
    </g>
    <g
       id="g2286"
       transform="matrix(1.0000015,0,0,1.0000015,-367.92887,-156.64275)">
      <g
         clip-path="url(#clipPath2292)"
         id="g2288">
        <g
           id="g2294">
          <path
             id="path2296"
             style="fill:none;stroke:#000000;stroke-width:0.1;stroke-linecap:round;stroke-linejoin:round;stroke-miterlimit:10;stroke-dasharray:none;stroke-opacity:1"
             d="m 81.7489,197.029 c 0.0646,-0.073 0.1576,-0.115 0.2552,-0.115 0.188,0 0.3405,0.152 0.3405,0.34 0,0.017 -0.0012,0.033 -0.0036,0.05" />
        </g>
      </g>
    </g>
    <g
       id="g2298"
       transform="matrix(1.0000015,0,0,1.0000015,-367.92887,-156.64275)">
      <g
         clip-path="url(#clipPath2304)"
         id="g2300">
        <g
           id="g2306">
          <path
             id="path2308"
             style="fill:none;stroke:#000000;stroke-width:0.1;stroke-linecap:round;stroke-linejoin:round;stroke-miterlimit:10;stroke-dasharray:none;stroke-opacity:1"
             d="m 79.4087,196.64 c -0.0019,-0.016 -0.0028,-0.033 -0.0028,-0.05 0,-0.245 0.1986,-0.443 0.4437,-0.443 0.1533,0 0.2958,0.079 0.3768,0.209" />
        </g>
      </g>
    </g>
    <g
       id="g2310"
       transform="matrix(1.0000015,0,0,1.0000015,-367.92887,-156.64275)">
      <g
         clip-path="url(#clipPath2316)"
         id="g2312">
        <g
           id="g2318">
          <path
             id="path2320"
             style="fill:none;stroke:#000000;stroke-width:0.1;stroke-linecap:round;stroke-linejoin:round;stroke-miterlimit:10;stroke-dasharray:none;stroke-opacity:1"
             d="m 78.7901,197.159 c -0.025,-0.054 -0.0379,-0.114 -0.0379,-0.174 0,-0.231 0.1876,-0.419 0.4189,-0.419 0.0849,0 0.1677,0.026 0.2376,0.074" />
        </g>
      </g>
    </g>
  </g>
</svg>
