<?xml version="1.0" encoding="UTF-8" standalone="no"?>
<svg
   xmlns:dc="http://purl.org/dc/elements/1.1/"
   xmlns:cc="http://creativecommons.org/ns#"
   xmlns:rdf="http://www.w3.org/1999/02/22-rdf-syntax-ns#"
   xmlns:svg="http://www.w3.org/2000/svg"
   xmlns="http://www.w3.org/2000/svg"
   id="svg105003"
   version="1.1"
   viewBox="0 0 8.0090122 10.04794"
   height="10.04794mm"
   width="8.0090122mm">
  <defs
     id="defs104997">
    <clipPath
       id="clipPath1272"
       clipPathUnits="userSpaceOnUse">
      <path
         style="clip-rule:evenodd"
         id="path1270"
         d="M 10.1178,287.029 V 10.0094 H 200.138 V 287.029 H 10.1178" />
    </clipPath>
    <clipPath
       id="clipPath1260"
       clipPathUnits="userSpaceOnUse">
      <path
         style="clip-rule:evenodd"
         id="path1258"
         d="M 10.1178,287.029 V 10.0094 H 200.138 V 287.029 H 10.1178" />
    </clipPath>
    <clipPath
       id="clipPath1248"
       clipPathUnits="userSpaceOnUse">
      <path
         style="clip-rule:evenodd"
         id="path1246"
         d="M 10.1178,287.029 V 10.0094 H 200.138 V 287.029 H 10.1178" />
    </clipPath>
    <clipPath
       id="clipPath1236"
       clipPathUnits="userSpaceOnUse">
      <path
         style="clip-rule:evenodd"
         id="path1234"
         d="M 10.1178,287.029 V 10.0094 H 200.138 V 287.029 H 10.1178" />
    </clipPath>
    <clipPath
       id="clipPath1224"
       clipPathUnits="userSpaceOnUse">
      <path
         style="clip-rule:evenodd"
         id="path1222"
         d="M 10.1178,287.029 V 10.0094 H 200.138 V 287.029 H 10.1178" />
    </clipPath>
    <clipPath
       id="clipPath1212"
       clipPathUnits="userSpaceOnUse">
      <path
         style="clip-rule:evenodd"
         id="path1210"
         d="M 10.1178,287.029 V 10.0094 H 200.138 V 287.029 H 10.1178" />
    </clipPath>
    <clipPath
       id="clipPath1200"
       clipPathUnits="userSpaceOnUse">
      <path
         style="clip-rule:evenodd"
         id="path1198"
         d="M 10.1178,287.029 V 10.0094 H 200.138 V 287.029 H 10.1178" />
    </clipPath>
    <clipPath
       id="clipPath1188"
       clipPathUnits="userSpaceOnUse">
      <path
         style="clip-rule:evenodd"
         id="path1186"
         d="M 10.1178,287.029 V 10.0094 H 200.138 V 287.029 H 10.1178" />
    </clipPath>
    <clipPath
       id="clipPath1176"
       clipPathUnits="userSpaceOnUse">
      <path
         style="clip-rule:evenodd"
         id="path1174"
         d="M 10.1178,287.029 V 10.0094 H 200.138 V 287.029 H 10.1178" />
    </clipPath>
    <clipPath
       id="clipPath1164"
       clipPathUnits="userSpaceOnUse">
      <path
         style="clip-rule:evenodd"
         id="path1162"
         d="M 10.1178,287.029 V 10.0094 H 200.138 V 287.029 H 10.1178" />
    </clipPath>
    <clipPath
       id="clipPath1152"
       clipPathUnits="userSpaceOnUse">
      <path
         style="clip-rule:evenodd"
         id="path1150"
         d="M 10.1178,287.029 V 10.0094 H 200.138 V 287.029 H 10.1178" />
    </clipPath>
    <clipPath
       id="clipPath1140"
       clipPathUnits="userSpaceOnUse">
      <path
         style="clip-rule:evenodd"
         id="path1138"
         d="M 10.1178,287.029 V 10.0094 H 200.138 V 287.029 H 10.1178" />
    </clipPath>
    <clipPath
       id="clipPath1128"
       clipPathUnits="userSpaceOnUse">
      <path
         style="clip-rule:evenodd"
         id="path1126"
         d="M 10.1178,287.029 V 10.0094 H 200.138 V 287.029 H 10.1178" />
    </clipPath>
    <clipPath
       id="clipPath1116"
       clipPathUnits="userSpaceOnUse">
      <path
         style="clip-rule:evenodd"
         id="path1114"
         d="M 10.1178,287.029 V 10.0094 H 200.138 V 287.029 H 10.1178" />
    </clipPath>
    <clipPath
       id="clipPath1104"
       clipPathUnits="userSpaceOnUse">
      <path
         style="clip-rule:evenodd"
         id="path1102"
         d="M 10.1178,287.029 V 10.0094 H 200.138 V 287.029 H 10.1178" />
    </clipPath>
    <clipPath
       id="clipPath1092"
       clipPathUnits="userSpaceOnUse">
      <path
         style="clip-rule:evenodd"
         id="path1090"
         d="M 10.1178,287.029 V 10.0094 H 200.138 V 287.029 H 10.1178" />
    </clipPath>
    <clipPath
       id="clipPath1080"
       clipPathUnits="userSpaceOnUse">
      <path
         style="clip-rule:evenodd"
         id="path1078"
         d="M 10.1178,287.029 V 10.0094 H 200.138 V 287.029 H 10.1178" />
    </clipPath>
    <clipPath
       id="clipPath1068"
       clipPathUnits="userSpaceOnUse">
      <path
         style="clip-rule:evenodd"
         id="path1066"
         d="M 10.1178,287.029 V 10.0094 H 200.138 V 287.029 H 10.1178" />
    </clipPath>
    <clipPath
       id="clipPath1056"
       clipPathUnits="userSpaceOnUse">
      <path
         style="clip-rule:evenodd"
         id="path1054"
         d="M 10.1178,287.029 V 10.0094 H 200.138 V 287.029 H 10.1178" />
    </clipPath>
    <clipPath
       id="clipPath1044"
       clipPathUnits="userSpaceOnUse">
      <path
         style="clip-rule:evenodd"
         id="path1042"
         d="M 10.1178,287.029 V 10.0094 H 200.138 V 287.029 H 10.1178" />
    </clipPath>
    <clipPath
       id="clipPath1032"
       clipPathUnits="userSpaceOnUse">
      <path
         style="clip-rule:evenodd"
         id="path1030"
         d="M 10.1178,287.029 V 10.0094 H 200.138 V 287.029 H 10.1178" />
    </clipPath>
    <clipPath
       id="clipPath1020"
       clipPathUnits="userSpaceOnUse">
      <path
         style="clip-rule:evenodd"
         id="path1018"
         d="M 10.1178,287.029 V 10.0094 H 200.138 V 287.029 H 10.1178" />
    </clipPath>
    <clipPath
       id="clipPath1008"
       clipPathUnits="userSpaceOnUse">
      <path
         style="clip-rule:evenodd"
         id="path1006"
         d="M 10.1178,287.029 V 10.0094 H 200.138 V 287.029 H 10.1178" />
    </clipPath>
    <clipPath
       id="clipPath996"
       clipPathUnits="userSpaceOnUse">
      <path
         style="clip-rule:evenodd"
         id="path994"
         d="M 10.1178,287.029 V 10.0094 H 200.138 V 287.029 H 10.1178" />
    </clipPath>
    <clipPath
       id="clipPath984"
       clipPathUnits="userSpaceOnUse">
      <path
         style="clip-rule:evenodd"
         id="path982"
         d="M 10.1178,287.029 V 10.0094 H 200.138 V 287.029 H 10.1178" />
    </clipPath>
    <clipPath
       id="clipPath972"
       clipPathUnits="userSpaceOnUse">
      <path
         style="clip-rule:evenodd"
         id="path970"
         d="M 10.1178,287.029 V 10.0094 H 200.138 V 287.029 H 10.1178" />
    </clipPath>
    <clipPath
       id="clipPath960"
       clipPathUnits="userSpaceOnUse">
      <path
         style="clip-rule:evenodd"
         id="path958"
         d="M 10.1178,287.029 V 10.0094 H 200.138 V 287.029 H 10.1178" />
    </clipPath>
    <clipPath
       id="clipPath948"
       clipPathUnits="userSpaceOnUse">
      <path
         style="clip-rule:evenodd"
         id="path946"
         d="M 10.1178,287.029 V 10.0094 H 200.138 V 287.029 H 10.1178" />
    </clipPath>
  </defs>
  <metadata
     id="metadata105000">
    <rdf:RDF>
      <cc:Work
         rdf:about="">
        <dc:format>image/svg+xml</dc:format>
        <dc:type
           rdf:resource="http://purl.org/dc/dcmitype/StillImage" />
        <dc:title></dc:title>
      </cc:Work>
    </rdf:RDF>
  </metadata>
  <g
     transform="translate(-65.543113,-205.79746)"
     id="layer1">
    <g
       id="g306"
       transform="matrix(1.0000015,0,0,1.0000015,-11.512303,25.865189)">
      <path
         id="path308"
         style="fill:none;stroke:#000000;stroke-width:0.13;stroke-linecap:round;stroke-linejoin:round;stroke-miterlimit:10;stroke-dasharray:none;stroke-opacity:1"
         d="m 77.1321,189.871 7.7794,0.043" />
    </g>
    <g
       id="g310"
       transform="matrix(1.0000015,0,0,1.0000015,-11.512303,25.865189)">
      <path
         id="path312"
         style="fill:none;stroke:#000000;stroke-width:0.13;stroke-linecap:round;stroke-linejoin:round;stroke-miterlimit:10;stroke-dasharray:none;stroke-opacity:1"
         d="m 84.9115,189.914 0.0859,-1.805" />
    </g>
    <g
       id="g314"
       transform="matrix(1.0000015,0,0,1.0000015,-11.512303,25.865189)">
      <path
         id="path316"
         style="fill:none;stroke:#000000;stroke-width:0.13;stroke-linecap:round;stroke-linejoin:round;stroke-miterlimit:10;stroke-dasharray:none;stroke-opacity:1"
         d="m 82.8484,186.003 -4.169,0.344" />
    </g>
    <g
       id="g318"
       transform="matrix(1.0000015,0,0,1.0000015,-11.512303,25.865189)">
      <path
         id="path320"
         style="fill:none;stroke:#000000;stroke-width:0.13;stroke-linecap:round;stroke-linejoin:round;stroke-miterlimit:10;stroke-dasharray:none;stroke-opacity:1"
         d="m 77.1321,188.367 v 1.504" />
    </g>
    <g
       id="g322"
       transform="matrix(1.0000015,0,0,1.0000015,-11.512303,25.865189)">
      <path
         id="path324"
         style="fill:none;stroke:#000000;stroke-width:0.13;stroke-linecap:round;stroke-linejoin:round;stroke-miterlimit:10;stroke-dasharray:none;stroke-opacity:1"
         d="M 78.8126,186.336 78.6617,184.45" />
    </g>
    <g
       id="g326"
       transform="matrix(1.0000015,0,0,1.0000015,-11.512303,25.865189)">
      <path
         id="path328"
         style="fill:none;stroke:#000000;stroke-width:0.13;stroke-linecap:round;stroke-linejoin:round;stroke-miterlimit:10;stroke-dasharray:none;stroke-opacity:1"
         d="m 79.8307,183.405 3.0345,-0.124" />
    </g>
    <g
       id="g330"
       transform="matrix(1.0000015,0,0,1.0000015,-11.512303,25.865189)">
      <path
         id="path332"
         style="fill:none;stroke:#000000;stroke-width:0.13;stroke-linecap:round;stroke-linejoin:round;stroke-miterlimit:10;stroke-dasharray:none;stroke-opacity:1"
         d="m 84.0093,184.4 -0.0571,1.85" />
    </g>
    <g
       id="g334"
       transform="matrix(1.0000015,0,0,1.0000015,-11.512303,25.865189)">
      <path
         id="path336"
         style="fill:none;stroke:#000000;stroke-width:0.13;stroke-linecap:round;stroke-linejoin:round;stroke-miterlimit:10;stroke-dasharray:none;stroke-opacity:1"
         d="m 79.8307,183.405 v -1.569" />
    </g>
    <g
       id="g338"
       transform="matrix(1.0000015,0,0,1.0000015,-11.512303,25.865189)">
      <path
         id="path340"
         style="fill:none;stroke:#000000;stroke-width:0.13;stroke-linecap:round;stroke-linejoin:round;stroke-miterlimit:10;stroke-dasharray:none;stroke-opacity:1"
         d="m 80.581,180.955 2.1763,0.19" />
    </g>
    <g
       id="g342"
       transform="matrix(1.0000015,0,0,1.0000015,-11.512303,25.865189)">
      <path
         id="path344"
         style="fill:none;stroke:#000000;stroke-width:0.13;stroke-linecap:round;stroke-linejoin:round;stroke-miterlimit:10;stroke-dasharray:none;stroke-opacity:1"
         d="m 83.2582,181.646 -0.0335,1.707" />
    </g>
    <g
       id="g346"
       transform="matrix(1.0000015,0,0,1.0000015,-11.512303,25.865189)">
      <path
         id="path348"
         style="fill:none;stroke:#000000;stroke-width:0.13;stroke-linecap:round;stroke-linejoin:round;stroke-miterlimit:10;stroke-dasharray:none;stroke-opacity:1"
         d="m 81.8306,181.064 -0.6184,-0.511" />
    </g>
    <g
       id="g350"
       transform="matrix(1.0000015,0,0,1.0000015,-11.512303,25.865189)">
      <path
         id="path352"
         style="fill:none;stroke:#000000;stroke-width:0.13;stroke-linecap:round;stroke-linejoin:round;stroke-miterlimit:10;stroke-dasharray:none;stroke-opacity:1"
         d="m 81.2122,180.553 0.5863,0.484" />
    </g>
    <g
       id="g942"
       transform="matrix(1.0000015,0,0,1.0000015,-11.512303,25.865189)">
      <g
         clip-path="url(#clipPath948)"
         id="g944">
        <g
           id="g950">
          <path
             id="path952"
             style="fill:none;stroke:#000000;stroke-width:0.13;stroke-linecap:round;stroke-linejoin:round;stroke-miterlimit:10;stroke-dasharray:none;stroke-opacity:1"
             d="m 77.1321,188.367 c -0.0078,-0.069 -0.0118,-0.138 -0.0118,-0.208 0,-0.906 0.6627,-1.677 1.5591,-1.812" />
        </g>
      </g>
    </g>
    <g
       id="g954"
       transform="matrix(1.0000015,0,0,1.0000015,-11.512303,25.865189)">
      <g
         clip-path="url(#clipPath960)"
         id="g956">
        <g
           id="g962">
          <path
             id="path964"
             style="fill:none;stroke:#000000;stroke-width:0.13;stroke-linecap:round;stroke-linejoin:round;stroke-miterlimit:10;stroke-dasharray:none;stroke-opacity:1"
             d="m 82.8484,186.003 c 0.0428,-0.003 0.0857,-0.004 0.1285,-0.004 1.117,0 2.0224,0.905 2.0224,2.022 0,0.03 -6e-4,0.059 -0.0019,0.088" />
        </g>
      </g>
    </g>
    <g
       id="g966"
       transform="matrix(1.0000015,0,0,1.0000015,-11.512303,25.865189)">
      <g
         clip-path="url(#clipPath972)"
         id="g968">
        <g
           id="g974">
          <path
             id="path976"
             style="fill:none;stroke:#000000;stroke-width:0.13;stroke-linecap:round;stroke-linejoin:round;stroke-miterlimit:10;stroke-dasharray:none;stroke-opacity:1"
             d="m 82.8652,183.281 c 0.6109,0.027 1.1038,0.509 1.1441,1.119" />
        </g>
      </g>
    </g>
    <g
       id="g978"
       transform="matrix(1.0000015,0,0,1.0000015,-11.512303,25.865189)">
      <g
         clip-path="url(#clipPath984)"
         id="g980">
        <g
           id="g986">
          <path
             id="path988"
             style="fill:none;stroke:#000000;stroke-width:0.13;stroke-linecap:round;stroke-linejoin:round;stroke-miterlimit:10;stroke-dasharray:none;stroke-opacity:1"
             d="m 78.6617,184.45 c 0.0304,-0.587 0.5149,-1.047 1.1023,-1.047 0.0222,0 0.0445,0.001 0.0667,0.002" />
        </g>
      </g>
    </g>
    <g
       id="g990"
       transform="matrix(1.0000015,0,0,1.0000015,-11.512303,25.865189)">
      <g
         clip-path="url(#clipPath996)"
         id="g992">
        <g
           id="g998">
          <path
             id="path1000"
             style="fill:none;stroke:#000000;stroke-width:0.13;stroke-linecap:round;stroke-linejoin:round;stroke-miterlimit:10;stroke-dasharray:none;stroke-opacity:1"
             d="m 82.7573,181.145 c 0.2746,0.005 0.496,0.226 0.5009,0.501" />
        </g>
      </g>
    </g>
    <g
       id="g1002"
       transform="matrix(1.0000015,0,0,1.0000015,-11.512303,25.865189)">
      <g
         clip-path="url(#clipPath1008)"
         id="g1004">
        <g
           id="g1010">
          <path
             id="path1012"
             style="fill:none;stroke:#000000;stroke-width:0.13;stroke-linecap:round;stroke-linejoin:round;stroke-miterlimit:10;stroke-dasharray:none;stroke-opacity:1"
             d="m 79.8307,181.836 c -6e-4,-0.014 -9e-4,-0.027 -9e-4,-0.04 0,-0.431 0.3233,-0.793 0.7512,-0.841" />
        </g>
      </g>
    </g>
    <g
       id="g1014"
       transform="matrix(1.0000015,0,0,1.0000015,-11.512303,25.865189)">
      <g
         clip-path="url(#clipPath1020)"
         id="g1016">
        <g
           id="g1022">
          <path
             id="path1024"
             style="fill:none;stroke:#000000;stroke-width:0.13;stroke-linecap:round;stroke-linejoin:round;stroke-miterlimit:10;stroke-dasharray:none;stroke-opacity:1"
             d="m 84.4886,186.913 c -0.0647,0.249 -0.2894,0.422 -0.5466,0.422 -0.2651,0 -0.4945,-0.184 -0.5515,-0.443" />
        </g>
      </g>
    </g>
    <g
       id="g1026"
       transform="matrix(1.0000015,0,0,1.0000015,-11.512303,25.865189)">
      <g
         clip-path="url(#clipPath1032)"
         id="g1028">
        <g
           id="g1034">
          <path
             id="path1036"
             style="fill:none;stroke:#000000;stroke-width:0.13;stroke-linecap:round;stroke-linejoin:round;stroke-miterlimit:10;stroke-dasharray:none;stroke-opacity:1"
             d="m 83.3905,186.892 c -0.0989,0.215 -0.3141,0.353 -0.5508,0.353 -0.2531,0 -0.4796,-0.157 -0.5681,-0.394" />
        </g>
      </g>
    </g>
    <g
       id="g1038"
       transform="matrix(1.0000015,0,0,1.0000015,-11.512303,25.865189)">
      <g
         clip-path="url(#clipPath1044)"
         id="g1040">
        <g
           id="g1046">
          <path
             id="path1048"
             style="fill:none;stroke:#000000;stroke-width:0.13;stroke-linecap:round;stroke-linejoin:round;stroke-miterlimit:10;stroke-dasharray:none;stroke-opacity:1"
             d="m 82.2716,186.851 c -0.0419,0.205 -0.2224,0.352 -0.4318,0.352 -0.1691,0 -0.3233,-0.097 -0.3969,-0.249" />
        </g>
      </g>
    </g>
    <g
       id="g1050"
       transform="matrix(1.0000015,0,0,1.0000015,-11.512303,25.865189)">
      <g
         clip-path="url(#clipPath1056)"
         id="g1052">
        <g
           id="g1058">
          <path
             id="path1060"
             style="fill:none;stroke:#000000;stroke-width:0.13;stroke-linecap:round;stroke-linejoin:round;stroke-miterlimit:10;stroke-dasharray:none;stroke-opacity:1"
             d="m 81.4429,186.954 c -0.0746,0.199 -0.2649,0.331 -0.4775,0.331 -0.2367,0 -0.4422,-0.163 -0.4963,-0.393" />
        </g>
      </g>
    </g>
    <g
       id="g1062"
       transform="matrix(1.0000015,0,0,1.0000015,-11.512303,25.865189)">
      <g
         clip-path="url(#clipPath1068)"
         id="g1064">
        <g
           id="g1070">
          <path
             id="path1072"
             style="fill:none;stroke:#000000;stroke-width:0.13;stroke-linecap:round;stroke-linejoin:round;stroke-miterlimit:10;stroke-dasharray:none;stroke-opacity:1"
             d="m 80.4691,186.892 c -0.0012,0.217 -0.1771,0.392 -0.3937,0.392 -0.2166,0 -0.3925,-0.175 -0.3937,-0.392" />
        </g>
      </g>
    </g>
    <g
       id="g1074"
       transform="matrix(1.0000015,0,0,1.0000015,-11.512303,25.865189)">
      <g
         clip-path="url(#clipPath1080)"
         id="g1076">
        <g
           id="g1082">
          <path
             id="path1084"
             style="fill:none;stroke:#000000;stroke-width:0.13;stroke-linecap:round;stroke-linejoin:round;stroke-miterlimit:10;stroke-dasharray:none;stroke-opacity:1"
             d="m 79.6817,186.892 c -0.0216,0.249 -0.2301,0.44 -0.48,0.44 -0.2021,0 -0.3827,-0.126 -0.4523,-0.316" />
        </g>
      </g>
    </g>
    <g
       id="g1086"
       transform="matrix(1.0000015,0,0,1.0000015,-11.512303,25.865189)">
      <g
         clip-path="url(#clipPath1092)"
         id="g1088">
        <g
           id="g1094">
          <path
             id="path1096"
             style="fill:none;stroke:#000000;stroke-width:0.13;stroke-linecap:round;stroke-linejoin:round;stroke-miterlimit:10;stroke-dasharray:none;stroke-opacity:1"
             d="m 78.7494,187.016 c -0.0891,0.214 -0.2981,0.354 -0.5299,0.354 -0.2883,0 -0.5318,-0.214 -0.5691,-0.5" />
        </g>
      </g>
    </g>
    <g
       id="g1098"
       transform="matrix(1.0000015,0,0,1.0000015,-11.512303,25.865189)">
      <g
         clip-path="url(#clipPath1104)"
         id="g1100">
        <g
           id="g1106">
          <path
             id="path1108"
             style="fill:none;stroke:#000000;stroke-width:0.13;stroke-linecap:round;stroke-linejoin:round;stroke-miterlimit:10;stroke-dasharray:none;stroke-opacity:1"
             d="m 83.8222,184.033 c -0.0485,0.149 -0.1873,0.25 -0.3439,0.25 -0.1884,0 -0.3453,-0.145 -0.3604,-0.333" />
        </g>
      </g>
    </g>
    <g
       id="g1110"
       transform="matrix(1.0000015,0,0,1.0000015,-11.512303,25.865189)">
      <g
         clip-path="url(#clipPath1116)"
         id="g1112">
        <g
           id="g1118">
          <path
             id="path1120"
             style="fill:none;stroke:#000000;stroke-width:0.13;stroke-linecap:round;stroke-linejoin:round;stroke-miterlimit:10;stroke-dasharray:none;stroke-opacity:1"
             d="m 83.1179,183.95 c -0.0775,0.177 -0.2523,0.291 -0.4454,0.291 -0.193,0 -0.3678,-0.114 -0.4453,-0.291" />
        </g>
      </g>
    </g>
    <g
       id="g1122"
       transform="matrix(1.0000015,0,0,1.0000015,-11.512303,25.865189)">
      <g
         clip-path="url(#clipPath1128)"
         id="g1124">
        <g
           id="g1130">
          <path
             id="path1132"
             style="fill:none;stroke:#000000;stroke-width:0.13;stroke-linecap:round;stroke-linejoin:round;stroke-miterlimit:10;stroke-dasharray:none;stroke-opacity:1"
             d="m 82.2272,183.95 c -0.0471,0.229 -0.2488,0.394 -0.4828,0.394 -0.1938,0 -0.3696,-0.114 -0.4493,-0.291" />
        </g>
      </g>
    </g>
    <g
       id="g1134"
       transform="matrix(1.0000015,0,0,1.0000015,-11.512303,25.865189)">
      <g
         clip-path="url(#clipPath1140)"
         id="g1136">
        <g
           id="g1142">
          <path
             id="path1144"
             style="fill:none;stroke:#000000;stroke-width:0.13;stroke-linecap:round;stroke-linejoin:round;stroke-miterlimit:10;stroke-dasharray:none;stroke-opacity:1"
             d="m 81.2951,184.053 c -0.0691,0.159 -0.2251,0.261 -0.3976,0.261 -0.2205,0 -0.4059,-0.166 -0.431,-0.385" />
        </g>
      </g>
    </g>
    <g
       id="g1146"
       transform="matrix(1.0000015,0,0,1.0000015,-11.512303,25.865189)">
      <g
         clip-path="url(#clipPath1152)"
         id="g1148">
        <g
           id="g1154">
          <path
             id="path1156"
             style="fill:none;stroke:#000000;stroke-width:0.13;stroke-linecap:round;stroke-linejoin:round;stroke-miterlimit:10;stroke-dasharray:none;stroke-opacity:1"
             d="m 80.4665,183.929 c -0.025,0.249 -0.2343,0.438 -0.4842,0.438 -0.2182,0 -0.4097,-0.145 -0.4686,-0.355" />
        </g>
      </g>
    </g>
    <g
       id="g1158"
       transform="matrix(1.0000015,0,0,1.0000015,-11.512303,25.865189)">
      <g
         clip-path="url(#clipPath1164)"
         id="g1160">
        <g
           id="g1166">
          <path
             id="path1168"
             style="fill:none;stroke:#000000;stroke-width:0.13;stroke-linecap:round;stroke-linejoin:round;stroke-miterlimit:10;stroke-dasharray:none;stroke-opacity:1"
             d="m 79.5137,184.012 c -0.0141,0.201 -0.1809,0.356 -0.3818,0.356 -0.1836,0 -0.3413,-0.13 -0.3759,-0.311" />
        </g>
      </g>
    </g>
    <g
       id="g1170"
       transform="matrix(1.0000015,0,0,1.0000015,-11.512303,25.865189)">
      <g
         clip-path="url(#clipPath1176)"
         id="g1172">
        <g
           id="g1178">
          <path
             id="path1180"
             style="fill:none;stroke:#000000;stroke-width:0.13;stroke-linecap:round;stroke-linejoin:round;stroke-miterlimit:10;stroke-dasharray:none;stroke-opacity:1"
             d="m 83.2565,181.733 c -0.0934,0.19 -0.2872,0.311 -0.4997,0.311 -0.2203,0 -0.4199,-0.13 -0.5089,-0.331" />
        </g>
      </g>
    </g>
    <g
       id="g1182"
       transform="matrix(1.0000015,0,0,1.0000015,-11.512303,25.865189)">
      <g
         clip-path="url(#clipPath1188)"
         id="g1184">
        <g
           id="g1190">
          <path
             id="path1192"
             style="fill:none;stroke:#000000;stroke-width:0.13;stroke-linecap:round;stroke-linejoin:round;stroke-miterlimit:10;stroke-dasharray:none;stroke-opacity:1"
             d="m 82.2479,181.713 c -0.0665,0.176 -0.2352,0.293 -0.4237,0.293 -0.2204,0 -0.4088,-0.159 -0.4463,-0.376" />
        </g>
      </g>
    </g>
    <g
       id="g1194"
       transform="matrix(1.0000015,0,0,1.0000015,-11.512303,25.865189)">
      <g
         clip-path="url(#clipPath1200)"
         id="g1196">
        <g
           id="g1202">
          <path
             id="path1204"
             style="fill:none;stroke:#000000;stroke-width:0.13;stroke-linecap:round;stroke-linejoin:round;stroke-miterlimit:10;stroke-dasharray:none;stroke-opacity:1"
             d="m 81.3779,181.63 c -0.074,0.166 -0.2386,0.273 -0.4203,0.273 -0.1898,0 -0.3601,-0.117 -0.4289,-0.294" />
        </g>
      </g>
    </g>
    <g
       id="g1206"
       transform="matrix(1.0000015,0,0,1.0000015,-11.512303,25.865189)">
      <g
         clip-path="url(#clipPath1212)"
         id="g1208">
        <g
           id="g1214">
          <path
             id="path1216"
             style="fill:none;stroke:#000000;stroke-width:0.13;stroke-linecap:round;stroke-linejoin:round;stroke-miterlimit:10;stroke-dasharray:none;stroke-opacity:1"
             d="m 80.5287,181.609 c -0.0248,0.162 -0.1639,0.281 -0.3273,0.281 -0.1829,0 -0.3312,-0.148 -0.3312,-0.331 0,-0.008 3e-4,-0.016 9e-4,-0.024" />
        </g>
      </g>
    </g>
    <g
       id="g1218"
       transform="matrix(1.0000015,0,0,1.0000015,-11.512303,25.865189)">
      <g
         clip-path="url(#clipPath1224)"
         id="g1220">
        <g
           id="g1226">
          <path
             id="path1228"
             style="fill:none;stroke:#000000;stroke-width:0.13;stroke-linecap:round;stroke-linejoin:round;stroke-miterlimit:10;stroke-dasharray:none;stroke-opacity:1"
             d="m 81.8958,180.159 c 0.059,-0.1 0.167,-0.162 0.2838,-0.162 0.1817,0 0.329,0.147 0.329,0.329 0,0.012 -7e-4,0.025 -0.0022,0.038" />
        </g>
      </g>
    </g>
    <g
       id="g1230"
       transform="matrix(1.0000015,0,0,1.0000015,-11.512303,25.865189)">
      <g
         clip-path="url(#clipPath1236)"
         id="g1232">
        <g
           id="g1238">
          <path
             id="path1240"
             style="fill:none;stroke:#000000;stroke-width:0.13;stroke-linecap:round;stroke-linejoin:round;stroke-miterlimit:10;stroke-dasharray:none;stroke-opacity:1"
             d="m 82.5064,180.364 c -0.0857,0.336 -0.3427,0.602 -0.6758,0.7" />
        </g>
      </g>
    </g>
    <g
       id="g1242"
       transform="matrix(1.0000015,0,0,1.0000015,-11.512303,25.865189)">
      <g
         clip-path="url(#clipPath1248)"
         id="g1244">
        <g
           id="g1250">
          <path
             id="path1252"
             style="fill:none;stroke:#000000;stroke-width:0.13;stroke-linecap:round;stroke-linejoin:round;stroke-miterlimit:10;stroke-dasharray:none;stroke-opacity:1"
             d="m 81.2122,180.553 c -0.075,-0.046 -0.1207,-0.128 -0.1207,-0.216 0,-0.14 0.1135,-0.254 0.2535,-0.254 0.0422,0 0.0838,0.011 0.1209,0.031" />
        </g>
      </g>
    </g>
    <g
       id="g1254"
       transform="matrix(1.0000015,0,0,1.0000015,-11.512303,25.865189)">
      <g
         clip-path="url(#clipPath1260)"
         id="g1256">
        <g
           id="g1262">
          <path
             id="path1264"
             style="fill:none;stroke:#000000;stroke-width:0.13;stroke-linecap:round;stroke-linejoin:round;stroke-miterlimit:10;stroke-dasharray:none;stroke-opacity:1"
             d="m 81.8543,180.429 c -0.005,-0.026 -0.0075,-0.052 -0.0075,-0.078 0,-0.067 0.0168,-0.133 0.049,-0.192" />
        </g>
      </g>
    </g>
    <g
       id="g1266"
       transform="matrix(1.0000015,0,0,1.0000015,-11.512303,25.865189)">
      <g
         clip-path="url(#clipPath1272)"
         id="g1268">
        <g
           id="g1274">
          <path
             id="path1276"
             style="fill:none;stroke:#000000;stroke-width:0.13;stroke-linecap:round;stroke-linejoin:round;stroke-miterlimit:10;stroke-dasharray:none;stroke-opacity:1"
             d="m 81.4659,180.114 c 0.1583,0.063 0.2937,0.173 0.3884,0.315" />
        </g>
      </g>
    </g>
  </g>
</svg>
