<?xml version="1.0" encoding="UTF-8" standalone="no"?>
<svg
   xmlns:dc="http://purl.org/dc/elements/1.1/"
   xmlns:cc="http://creativecommons.org/ns#"
   xmlns:rdf="http://www.w3.org/1999/02/22-rdf-syntax-ns#"
   xmlns:svg="http://www.w3.org/2000/svg"
   xmlns="http://www.w3.org/2000/svg"
   id="svg88490"
   version="1.1"
   viewBox="0 0 7.0454106 9.6989441"
   height="9.6989441mm"
   width="7.0454106mm">
  <defs
     id="defs88484">
    <clipPath
       id="clipPath936"
       clipPathUnits="userSpaceOnUse">
      <path
         style="clip-rule:evenodd"
         id="path934"
         d="M 10.1178,287.029 V 10.0094 H 200.138 V 287.029 H 10.1178" />
    </clipPath>
    <clipPath
       id="clipPath924"
       clipPathUnits="userSpaceOnUse">
      <path
         style="clip-rule:evenodd"
         id="path922"
         d="M 10.1178,287.029 V 10.0094 H 200.138 V 287.029 H 10.1178" />
    </clipPath>
    <clipPath
       id="clipPath912"
       clipPathUnits="userSpaceOnUse">
      <path
         style="clip-rule:evenodd"
         id="path910"
         d="M 10.1178,287.029 V 10.0094 H 200.138 V 287.029 H 10.1178" />
    </clipPath>
    <clipPath
       id="clipPath900"
       clipPathUnits="userSpaceOnUse">
      <path
         style="clip-rule:evenodd"
         id="path898"
         d="M 10.1178,287.029 V 10.0094 H 200.138 V 287.029 H 10.1178" />
    </clipPath>
    <clipPath
       id="clipPath888"
       clipPathUnits="userSpaceOnUse">
      <path
         style="clip-rule:evenodd"
         id="path886"
         d="M 10.1178,287.029 V 10.0094 H 200.138 V 287.029 H 10.1178" />
    </clipPath>
  </defs>
  <metadata
     id="metadata88487">
    <rdf:RDF>
      <cc:Work
         rdf:about="">
        <dc:format>image/svg+xml</dc:format>
        <dc:type
           rdf:resource="http://purl.org/dc/dcmitype/StillImage" />
        <dc:title></dc:title>
      </cc:Work>
    </rdf:RDF>
  </metadata>
  <g
     transform="translate(-66.780866,-162.88267)"
     id="layer1">
    <g
       id="g174"
       transform="matrix(1.0000015,0,0,1.0000015,-10.52175,44.94342)">
      <path
         id="path176"
         style="fill:none;stroke:#000000;stroke-width:0.13;stroke-linecap:round;stroke-linejoin:round;stroke-miterlimit:10;stroke-dasharray:none;stroke-opacity:1"
         d="m 78.686,121.506 h 4.3077" />
    </g>
    <g
       id="g178"
       transform="matrix(1.0000015,0,0,1.0000015,-10.52175,44.94342)">
      <path
         id="path180"
         style="fill:none;stroke:#000000;stroke-width:0.13;stroke-linecap:round;stroke-linejoin:round;stroke-miterlimit:10;stroke-dasharray:none;stroke-opacity:1"
         d="m 82.9937,121.506 -2.1453,-1.768" />
    </g>
    <g
       id="g182"
       transform="matrix(1.0000015,0,0,1.0000015,-10.52175,44.94342)">
      <path
         id="path184"
         style="fill:none;stroke:#000000;stroke-width:0.13;stroke-linecap:round;stroke-linejoin:round;stroke-miterlimit:10;stroke-dasharray:none;stroke-opacity:1"
         d="m 80.8484,119.738 -2.1624,1.768" />
    </g>
    <g
       id="g186"
       transform="matrix(1.0000015,0,0,1.0000015,-10.52175,44.94342)">
      <path
         id="path188"
         style="fill:none;stroke:#000000;stroke-width:0.13;stroke-linecap:round;stroke-linejoin:round;stroke-miterlimit:10;stroke-dasharray:none;stroke-opacity:1"
         d="m 79.1043,121.506 v 1.507" />
    </g>
    <g
       id="g190"
       transform="matrix(1.0000015,0,0,1.0000015,-10.52175,44.94342)">
      <path
         id="path192"
         style="fill:none;stroke:#000000;stroke-width:0.13;stroke-linecap:round;stroke-linejoin:round;stroke-miterlimit:10;stroke-dasharray:none;stroke-opacity:1"
         d="m 80.3125,122.131 -2.8214,2.059" />
    </g>
    <g
       id="g194"
       transform="matrix(1.0000015,0,0,1.0000015,-10.52175,44.94342)">
      <path
         id="path196"
         style="fill:none;stroke:#000000;stroke-width:0.13;stroke-linecap:round;stroke-linejoin:round;stroke-miterlimit:10;stroke-dasharray:none;stroke-opacity:1"
         d="m 80.3125,122.131 3.8219,2.025" />
    </g>
    <g
       id="g198"
       transform="matrix(1.0000015,0,0,1.0000015,-10.52175,44.94342)">
      <path
         id="path200"
         style="fill:none;stroke:#000000;stroke-width:0.13;stroke-linecap:round;stroke-linejoin:round;stroke-miterlimit:10;stroke-dasharray:none;stroke-opacity:1"
         d="m 80.3125,122.921 -2.445,1.785" />
    </g>
    <g
       id="g202"
       transform="matrix(1.0000015,0,0,1.0000015,-10.52175,44.94342)">
      <path
         id="path204"
         style="fill:none;stroke:#000000;stroke-width:0.13;stroke-linecap:round;stroke-linejoin:round;stroke-miterlimit:10;stroke-dasharray:none;stroke-opacity:1"
         d="m 80.3125,122.921 3.5707,1.833" />
    </g>
    <g
       id="g206"
       transform="matrix(1.0000015,0,0,1.0000015,-10.52175,44.94342)">
      <path
         id="path208"
         style="fill:none;stroke:#000000;stroke-width:0.13;stroke-linecap:round;stroke-linejoin:round;stroke-miterlimit:10;stroke-dasharray:none;stroke-opacity:1"
         d="m 82.6151,121.506 v 1.845" />
    </g>
    <g
       id="g210"
       transform="matrix(1.0000015,0,0,1.0000015,-10.52175,44.94342)">
      <path
         id="path212"
         style="fill:none;stroke:#000000;stroke-width:0.13;stroke-linecap:round;stroke-linejoin:round;stroke-miterlimit:10;stroke-dasharray:none;stroke-opacity:1"
         d="m 80.8484,119.738 v -1.733" />
    </g>
    <g
       id="g214"
       transform="matrix(1.0000015,0,0,1.0000015,-10.52175,44.94342)">
      <path
         id="path216"
         style="fill:none;stroke:#000000;stroke-width:0.13;stroke-linecap:round;stroke-linejoin:round;stroke-miterlimit:10;stroke-dasharray:none;stroke-opacity:1"
         d="m 80.042,118.639 h 1.6151" />
    </g>
    <g
       id="g218"
       transform="matrix(1.0000015,0,0,1.0000015,-10.52175,44.94342)">
      <path
         id="path220"
         style="fill:none;stroke:#000000;stroke-width:0.13;stroke-linecap:round;stroke-linejoin:round;stroke-miterlimit:10;stroke-dasharray:none;stroke-opacity:1"
         d="m 78.0451,124.576 v 2.605" />
    </g>
    <g
       id="g222"
       transform="matrix(1.0000015,0,0,1.0000015,-10.52175,44.94342)">
      <path
         id="path224"
         style="fill:none;stroke:#000000;stroke-width:0.13;stroke-linecap:round;stroke-linejoin:round;stroke-miterlimit:10;stroke-dasharray:none;stroke-opacity:1"
         d="m 78.3772,127.572 h 3.1572" />
    </g>
    <g
       id="g226"
       transform="matrix(1.0000015,0,0,1.0000015,-10.52175,44.94342)">
      <path
         id="path228"
         style="fill:none;stroke:#000000;stroke-width:0.13;stroke-linecap:round;stroke-linejoin:round;stroke-miterlimit:10;stroke-dasharray:none;stroke-opacity:1"
         d="m 81.5344,127.572 v -1.255" />
    </g>
    <g
       id="g230"
       transform="matrix(1.0000015,0,0,1.0000015,-10.52175,44.94342)">
      <path
         id="path232"
         style="fill:none;stroke:#000000;stroke-width:0.13;stroke-linecap:round;stroke-linejoin:round;stroke-miterlimit:10;stroke-dasharray:none;stroke-opacity:1"
         d="m 82.9171,127.572 v -1.255" />
    </g>
    <g
       id="g234"
       transform="matrix(1.0000015,0,0,1.0000015,-10.52175,44.94342)">
      <path
         id="path236"
         style="fill:none;stroke:#000000;stroke-width:0.13;stroke-linecap:round;stroke-linejoin:round;stroke-miterlimit:10;stroke-dasharray:none;stroke-opacity:1"
         d="m 82.9171,127.572 h 0.2916" />
    </g>
    <g
       id="g238"
       transform="matrix(1.0000015,0,0,1.0000015,-10.52175,44.94342)">
      <path
         id="path240"
         style="fill:none;stroke:#000000;stroke-width:0.13;stroke-linecap:round;stroke-linejoin:round;stroke-miterlimit:10;stroke-dasharray:none;stroke-opacity:1"
         d="m 83.6002,127.234 v -2.625" />
    </g>
    <g
       id="g242"
       transform="matrix(1.0000015,0,0,1.0000015,-10.52175,44.94342)">
      <path
         id="path244"
         style="fill:none;stroke:#000000;stroke-width:0.13;stroke-linecap:round;stroke-linejoin:round;stroke-miterlimit:10;stroke-dasharray:none;stroke-opacity:1"
         d="m 79.0521,126.176 h 0.5914" />
    </g>
    <g
       id="g246"
       transform="matrix(1.0000015,0,0,1.0000015,-10.52175,44.94342)">
      <path
         id="path248"
         style="fill:none;stroke:#000000;stroke-width:0.13;stroke-linecap:round;stroke-linejoin:round;stroke-miterlimit:10;stroke-dasharray:none;stroke-opacity:1"
         d="m 79.6435,126.176 v 0.608" />
    </g>
    <g
       id="g250"
       transform="matrix(1.0000015,0,0,1.0000015,-10.52175,44.94342)">
      <path
         id="path252"
         style="fill:none;stroke:#000000;stroke-width:0.13;stroke-linecap:round;stroke-linejoin:round;stroke-miterlimit:10;stroke-dasharray:none;stroke-opacity:1"
         d="m 79.0521,126.176 v 0.608" />
    </g>
    <g
       id="g254"
       transform="matrix(1.0000015,0,0,1.0000015,-10.52175,44.94342)">
      <path
         id="path256"
         style="fill:none;stroke:#000000;stroke-width:0.13;stroke-linecap:round;stroke-linejoin:round;stroke-miterlimit:10;stroke-dasharray:none;stroke-opacity:1"
         d="M 79.6435,126.784 H 79.0521" />
    </g>
    <g
       id="g258"
       transform="matrix(1.0000015,0,0,1.0000015,-10.52175,44.94342)">
      <path
         id="path260"
         style="fill:none;stroke:#000000;stroke-width:0.13;stroke-linecap:round;stroke-linejoin:round;stroke-miterlimit:10;stroke-dasharray:none;stroke-opacity:1"
         d="m 79.0521,125.06 h 0.5914" />
    </g>
    <g
       id="g262"
       transform="matrix(1.0000015,0,0,1.0000015,-10.52175,44.94342)">
      <path
         id="path264"
         style="fill:none;stroke:#000000;stroke-width:0.13;stroke-linecap:round;stroke-linejoin:round;stroke-miterlimit:10;stroke-dasharray:none;stroke-opacity:1"
         d="m 79.6435,125.06 v 0.608" />
    </g>
    <g
       id="g266"
       transform="matrix(1.0000015,0,0,1.0000015,-10.52175,44.94342)">
      <path
         id="path268"
         style="fill:none;stroke:#000000;stroke-width:0.13;stroke-linecap:round;stroke-linejoin:round;stroke-miterlimit:10;stroke-dasharray:none;stroke-opacity:1"
         d="m 79.0521,125.06 v 0.608" />
    </g>
    <g
       id="g270"
       transform="matrix(1.0000015,0,0,1.0000015,-10.52175,44.94342)">
      <path
         id="path272"
         style="fill:none;stroke:#000000;stroke-width:0.13;stroke-linecap:round;stroke-linejoin:round;stroke-miterlimit:10;stroke-dasharray:none;stroke-opacity:1"
         d="M 79.6435,125.668 H 79.0521" />
    </g>
    <g
       id="g274"
       transform="matrix(1.0000015,0,0,1.0000015,-10.52175,44.94342)">
      <path
         id="path276"
         style="fill:none;stroke:#000000;stroke-width:0.13;stroke-linecap:round;stroke-linejoin:round;stroke-miterlimit:10;stroke-dasharray:none;stroke-opacity:1"
         d="m 80.135,125.06 h 0.5914" />
    </g>
    <g
       id="g278"
       transform="matrix(1.0000015,0,0,1.0000015,-10.52175,44.94342)">
      <path
         id="path280"
         style="fill:none;stroke:#000000;stroke-width:0.13;stroke-linecap:round;stroke-linejoin:round;stroke-miterlimit:10;stroke-dasharray:none;stroke-opacity:1"
         d="m 80.7264,125.06 v 0.608" />
    </g>
    <g
       id="g282"
       transform="matrix(1.0000015,0,0,1.0000015,-10.52175,44.94342)">
      <path
         id="path284"
         style="fill:none;stroke:#000000;stroke-width:0.13;stroke-linecap:round;stroke-linejoin:round;stroke-miterlimit:10;stroke-dasharray:none;stroke-opacity:1"
         d="m 80.135,125.06 v 0.608" />
    </g>
    <g
       id="g286"
       transform="matrix(1.0000015,0,0,1.0000015,-10.52175,44.94342)">
      <path
         id="path288"
         style="fill:none;stroke:#000000;stroke-width:0.13;stroke-linecap:round;stroke-linejoin:round;stroke-miterlimit:10;stroke-dasharray:none;stroke-opacity:1"
         d="M 80.7264,125.668 H 80.135" />
    </g>
    <g
       id="g290"
       transform="matrix(1.0000015,0,0,1.0000015,-10.52175,44.94342)">
      <path
         id="path292"
         style="fill:none;stroke:#000000;stroke-width:0.13;stroke-linecap:round;stroke-linejoin:round;stroke-miterlimit:10;stroke-dasharray:none;stroke-opacity:1"
         d="m 80.135,126.176 h 0.5914" />
    </g>
    <g
       id="g294"
       transform="matrix(1.0000015,0,0,1.0000015,-10.52175,44.94342)">
      <path
         id="path296"
         style="fill:none;stroke:#000000;stroke-width:0.13;stroke-linecap:round;stroke-linejoin:round;stroke-miterlimit:10;stroke-dasharray:none;stroke-opacity:1"
         d="m 80.7264,126.176 v 0.608" />
    </g>
    <g
       id="g298"
       transform="matrix(1.0000015,0,0,1.0000015,-10.52175,44.94342)">
      <path
         id="path300"
         style="fill:none;stroke:#000000;stroke-width:0.13;stroke-linecap:round;stroke-linejoin:round;stroke-miterlimit:10;stroke-dasharray:none;stroke-opacity:1"
         d="m 80.135,126.176 v 0.608" />
    </g>
    <g
       id="g302"
       transform="matrix(1.0000015,0,0,1.0000015,-10.52175,44.94342)">
      <path
         id="path304"
         style="fill:none;stroke:#000000;stroke-width:0.13;stroke-linecap:round;stroke-linejoin:round;stroke-miterlimit:10;stroke-dasharray:none;stroke-opacity:1"
         d="M 80.7264,126.784 H 80.135" />
    </g>
    <g
       id="g882"
       transform="matrix(1.0000015,0,0,1.0000015,-10.52175,44.94342)">
      <g
         clip-path="url(#clipPath888)"
         id="g884">
        <g
           id="g890">
          <path
             id="path892"
             style="fill:none;stroke:#000000;stroke-width:0.13;stroke-linecap:round;stroke-linejoin:round;stroke-miterlimit:10;stroke-dasharray:none;stroke-opacity:1"
             d="m 84.1344,124.156 c 0.0927,0.061 0.1485,0.164 0.1485,0.275 0,0.183 -0.1477,0.33 -0.33,0.33 -0.0234,0 -0.0468,-0.002 -0.0697,-0.007" />
        </g>
      </g>
    </g>
    <g
       id="g894"
       transform="matrix(1.0000015,0,0,1.0000015,-10.52175,44.94342)">
      <g
         clip-path="url(#clipPath900)"
         id="g896">
        <g
           id="g902">
          <path
             id="path904"
             style="fill:none;stroke:#000000;stroke-width:0.13;stroke-linecap:round;stroke-linejoin:round;stroke-miterlimit:10;stroke-dasharray:none;stroke-opacity:1"
             d="m 77.8675,124.706 c -0.0532,0.036 -0.1162,0.056 -0.1806,0.056 -0.1764,0 -0.3194,-0.143 -0.3194,-0.32 0,-0.098 0.0456,-0.191 0.1236,-0.252" />
        </g>
      </g>
    </g>
    <g
       id="g906"
       transform="matrix(1.0000015,0,0,1.0000015,-10.52175,44.94342)">
      <g
         clip-path="url(#clipPath912)"
         id="g908">
        <g
           id="g914">
          <path
             id="path916"
             style="fill:none;stroke:#000000;stroke-width:0.13;stroke-linecap:round;stroke-linejoin:round;stroke-miterlimit:10;stroke-dasharray:none;stroke-opacity:1"
             d="m 78.3772,127.572 c -0.1909,-0.028 -0.3322,-0.192 -0.3322,-0.385 0,-0.002 1e-4,-0.004 1e-4,-0.006" />
        </g>
      </g>
    </g>
    <g
       id="g918"
       transform="matrix(1.0000015,0,0,1.0000015,-10.52175,44.94342)">
      <g
         clip-path="url(#clipPath924)"
         id="g920">
        <g
           id="g926">
          <path
             id="path928"
             style="fill:none;stroke:#000000;stroke-width:0.13;stroke-linecap:round;stroke-linejoin:round;stroke-miterlimit:10;stroke-dasharray:none;stroke-opacity:1"
             d="m 83.6002,127.234 c -0.0146,0.191 -0.1741,0.339 -0.3661,0.339 -0.0085,0 -0.017,0 -0.0254,-10e-4" />
        </g>
      </g>
    </g>
    <g
       id="g930"
       transform="matrix(1.0000015,0,0,1.0000015,-10.52175,44.94342)">
      <g
         clip-path="url(#clipPath936)"
         id="g932">
        <g
           id="g938">
          <path
             id="path940"
             style="fill:none;stroke:#000000;stroke-width:0.13;stroke-linecap:round;stroke-linejoin:round;stroke-miterlimit:10;stroke-dasharray:none;stroke-opacity:1"
             d="m 81.5344,126.317 c 0.013,-0.372 0.3187,-0.667 0.6913,-0.667 0.3727,0 0.6784,0.295 0.6914,0.667" />
        </g>
      </g>
    </g>
  </g>
</svg>
