<?xml version="1.0" encoding="UTF-8" standalone="no"?>
<svg
   xmlns:dc="http://purl.org/dc/elements/1.1/"
   xmlns:cc="http://creativecommons.org/ns#"
   xmlns:rdf="http://www.w3.org/1999/02/22-rdf-syntax-ns#"
   xmlns:svg="http://www.w3.org/2000/svg"
   xmlns="http://www.w3.org/2000/svg"
   id="svg104637"
   version="1.1"
   viewBox="0 0 7.1658998 6.8421803"
   height="6.8421803mm"
   width="7.1658998mm">
  <defs
     id="defs104631">
    <clipPath
       id="clipPath876"
       clipPathUnits="userSpaceOnUse">
      <path
         style="clip-rule:evenodd"
         id="path874"
         d="M 10.1178,287.029 V 10.0094 H 200.138 V 287.029 H 10.1178" />
    </clipPath>
    <clipPath
       id="clipPath864"
       clipPathUnits="userSpaceOnUse">
      <path
         style="clip-rule:evenodd"
         id="path862"
         d="M 10.1178,287.029 V 10.0094 H 200.138 V 287.029 H 10.1178" />
    </clipPath>
    <clipPath
       id="clipPath852"
       clipPathUnits="userSpaceOnUse">
      <path
         style="clip-rule:evenodd"
         id="path850"
         d="M 10.1178,287.029 V 10.0094 H 200.138 V 287.029 H 10.1178" />
    </clipPath>
    <clipPath
       id="clipPath840"
       clipPathUnits="userSpaceOnUse">
      <path
         style="clip-rule:evenodd"
         id="path838"
         d="M 10.1178,287.029 V 10.0094 H 200.138 V 287.029 H 10.1178" />
    </clipPath>
    <clipPath
       id="clipPath828"
       clipPathUnits="userSpaceOnUse">
      <path
         style="clip-rule:evenodd"
         id="path826"
         d="M 10.1178,287.029 V 10.0094 H 200.138 V 287.029 H 10.1178" />
    </clipPath>
    <clipPath
       id="clipPath816"
       clipPathUnits="userSpaceOnUse">
      <path
         style="clip-rule:evenodd"
         id="path814"
         d="M 10.1178,287.029 V 10.0094 H 200.138 V 287.029 H 10.1178" />
    </clipPath>
  </defs>
  <metadata
     id="metadata104634">
    <rdf:RDF>
      <cc:Work
         rdf:about="">
        <dc:format>image/svg+xml</dc:format>
        <dc:type
           rdf:resource="http://purl.org/dc/dcmitype/StillImage" />
        <dc:title></dc:title>
      </cc:Work>
    </rdf:RDF>
  </metadata>
  <g
     transform="translate(-134.75634,-161.28724)"
     id="layer1">
    <g
       id="g130"
       transform="matrix(1.0000015,0,0,1.0000015,57.732515,-6.2420822)">
      <path
         id="path132"
         style="fill:none;stroke:#000000;stroke-width:0.13;stroke-linecap:round;stroke-linejoin:round;stroke-miterlimit:10;stroke-dasharray:none;stroke-opacity:1"
         d="m 78.1888,168.538 2.4178,0.62" />
    </g>
    <g
       id="g134"
       transform="matrix(1.0000015,0,0,1.0000015,57.732515,-6.2420822)">
      <path
         id="path136"
         style="fill:none;stroke:#000000;stroke-width:0.13;stroke-linecap:round;stroke-linejoin:round;stroke-miterlimit:10;stroke-dasharray:none;stroke-opacity:1"
         d="m 80.4297,170.337 -2.7153,-0.701" />
    </g>
    <g
       id="g138"
       transform="matrix(1.0000015,0,0,1.0000015,57.732515,-6.2420822)">
      <path
         id="path140"
         style="fill:none;stroke:#000000;stroke-width:0.13;stroke-linecap:round;stroke-linejoin:round;stroke-miterlimit:10;stroke-dasharray:none;stroke-opacity:1"
         d="m 78.5409,171.956 -0.563,2.101" />
    </g>
    <g
       id="g142"
       transform="matrix(1.0000015,0,0,1.0000015,57.732515,-6.2420822)">
      <path
         id="path144"
         style="fill:none;stroke:#000000;stroke-width:0.13;stroke-linecap:round;stroke-linejoin:round;stroke-miterlimit:10;stroke-dasharray:none;stroke-opacity:1"
         d="m 77.0896,173.819 1.8204,0.487" />
    </g>
    <g
       id="g146"
       transform="matrix(1.0000015,0,0,1.0000015,57.732515,-6.2420822)">
      <path
         id="path148"
         style="fill:none;stroke:#000000;stroke-width:0.13;stroke-linecap:round;stroke-linejoin:round;stroke-miterlimit:10;stroke-dasharray:none;stroke-opacity:1"
         d="m 80.2501,168.655 -0.4887,-0.81" />
    </g>
    <g
       id="g150"
       transform="matrix(1.0000015,0,0,1.0000015,57.732515,-6.2420822)">
      <path
         id="path152"
         style="fill:none;stroke:#000000;stroke-width:0.13;stroke-linecap:round;stroke-linejoin:round;stroke-miterlimit:10;stroke-dasharray:none;stroke-opacity:1"
         d="m 80.6315,168.56 v -0.965" />
    </g>
    <g
       id="g154"
       transform="matrix(1.0000015,0,0,1.0000015,57.732515,-6.2420822)">
      <path
         id="path156"
         style="fill:none;stroke:#000000;stroke-width:0.13;stroke-linecap:round;stroke-linejoin:round;stroke-miterlimit:10;stroke-dasharray:none;stroke-opacity:1"
         d="m 81.0486,168.643 0.4887,-0.822" />
    </g>
    <g
       id="g158"
       transform="matrix(1.0000015,0,0,1.0000015,57.732515,-6.2420822)">
      <path
         id="path160"
         style="fill:none;stroke:#000000;stroke-width:0.13;stroke-linecap:round;stroke-linejoin:round;stroke-miterlimit:10;stroke-dasharray:none;stroke-opacity:1"
         d="m 83.0244,168.538 -2.4178,0.62" />
    </g>
    <g
       id="g162"
       transform="matrix(1.0000015,0,0,1.0000015,57.732515,-6.2420822)">
      <path
         id="path164"
         style="fill:none;stroke:#000000;stroke-width:0.13;stroke-linecap:round;stroke-linejoin:round;stroke-miterlimit:10;stroke-dasharray:none;stroke-opacity:1"
         d="m 80.7835,170.337 2.7154,-0.701" />
    </g>
    <g
       id="g166"
       transform="matrix(1.0000015,0,0,1.0000015,57.732515,-6.2420822)">
      <path
         id="path168"
         style="fill:none;stroke:#000000;stroke-width:0.13;stroke-linecap:round;stroke-linejoin:round;stroke-miterlimit:10;stroke-dasharray:none;stroke-opacity:1"
         d="m 82.6724,171.956 0.5629,2.101" />
    </g>
    <g
       id="g170"
       transform="matrix(1.0000015,0,0,1.0000015,57.732515,-6.2420822)">
      <path
         id="path172"
         style="fill:none;stroke:#000000;stroke-width:0.13;stroke-linecap:round;stroke-linejoin:round;stroke-miterlimit:10;stroke-dasharray:none;stroke-opacity:1"
         d="m 84.1237,173.819 -1.8204,0.487" />
    </g>
    <g
       id="g810"
       transform="matrix(1.0000015,0,0,1.0000015,57.732515,-6.2420822)">
      <g
         clip-path="url(#clipPath816)"
         id="g812">
        <g
           id="g818">
          <path
             id="path820"
             style="fill:none;stroke:#000000;stroke-width:0.13;stroke-linecap:round;stroke-linejoin:round;stroke-miterlimit:10;stroke-dasharray:none;stroke-opacity:1"
             d="m 77.6544,170.914 c -0.0224,-0.159 -0.0336,-0.319 -0.0336,-0.48 0,-0.674 0.1975,-1.333 0.568,-1.896" />
        </g>
      </g>
    </g>
    <g
       id="g822"
       transform="matrix(1.0000015,0,0,1.0000015,57.732515,-6.2420822)">
      <g
         clip-path="url(#clipPath828)"
         id="g824">
        <g
           id="g830">
          <path
             id="path832"
             style="fill:none;stroke:#000000;stroke-width:0.13;stroke-linecap:round;stroke-linejoin:round;stroke-miterlimit:10;stroke-dasharray:none;stroke-opacity:1"
             d="m 80.6066,169.158 c 0.0046,0.071 0.007,0.143 0.007,0.215 0,0.811 -0.2961,1.594 -0.8326,2.202" />
        </g>
      </g>
    </g>
    <g
       id="g834"
       transform="matrix(1.0000015,0,0,1.0000015,57.732515,-6.2420822)">
      <g
         clip-path="url(#clipPath840)"
         id="g836">
        <g
           id="g842">
          <path
             id="path844"
             style="fill:none;stroke:#000000;stroke-width:0.13;stroke-linecap:round;stroke-linejoin:round;stroke-miterlimit:10;stroke-dasharray:none;stroke-opacity:1"
             d="m 79.781,171.575 c -0.2304,0.269 -0.5666,0.423 -0.9205,0.423 -0.62,0 -1.1402,-0.467 -1.2061,-1.084" />
        </g>
      </g>
    </g>
    <g
       id="g846"
       transform="matrix(1.0000015,0,0,1.0000015,57.732515,-6.2420822)">
      <g
         clip-path="url(#clipPath852)"
         id="g848">
        <g
           id="g854">
          <path
             id="path856"
             style="fill:none;stroke:#000000;stroke-width:0.13;stroke-linecap:round;stroke-linejoin:round;stroke-miterlimit:10;stroke-dasharray:none;stroke-opacity:1"
             d="m 83.0244,168.538 c 0.3706,0.563 0.568,1.222 0.568,1.896 0,0.161 -0.0112,0.321 -0.0336,0.48" />
        </g>
      </g>
    </g>
    <g
       id="g858"
       transform="matrix(1.0000015,0,0,1.0000015,57.732515,-6.2420822)">
      <g
         clip-path="url(#clipPath864)"
         id="g860">
        <g
           id="g866">
          <path
             id="path868"
             style="fill:none;stroke:#000000;stroke-width:0.13;stroke-linecap:round;stroke-linejoin:round;stroke-miterlimit:10;stroke-dasharray:none;stroke-opacity:1"
             d="m 81.4322,171.575 c -0.5365,-0.608 -0.8325,-1.391 -0.8325,-2.202 0,-0.072 0.0023,-0.144 0.0069,-0.215" />
        </g>
      </g>
    </g>
    <g
       id="g870"
       transform="matrix(1.0000015,0,0,1.0000015,57.732515,-6.2420822)">
      <g
         clip-path="url(#clipPath876)"
         id="g872">
        <g
           id="g878">
          <path
             id="path880"
             style="fill:none;stroke:#000000;stroke-width:0.13;stroke-linecap:round;stroke-linejoin:round;stroke-miterlimit:10;stroke-dasharray:none;stroke-opacity:1"
             d="m 83.5588,170.914 c -0.0659,0.617 -0.5861,1.084 -1.2061,1.084 -0.3538,0 -0.6901,-0.154 -0.9205,-0.423" />
        </g>
      </g>
    </g>
  </g>
</svg>
