<?xml version="1.0" encoding="UTF-8" standalone="no"?>
<svg
   xmlns:dc="http://purl.org/dc/elements/1.1/"
   xmlns:cc="http://creativecommons.org/ns#"
   xmlns:rdf="http://www.w3.org/1999/02/22-rdf-syntax-ns#"
   xmlns:svg="http://www.w3.org/2000/svg"
   xmlns="http://www.w3.org/2000/svg"
   id="svg88865"
   version="1.1"
   viewBox="0 0 8.801631 4.0159583"
   height="4.0159583mm"
   width="8.801631mm">
  <defs
     id="defs88859">
    <clipPath
       id="clipPath804"
       clipPathUnits="userSpaceOnUse">
      <path
         style="clip-rule:evenodd"
         id="path802"
         d="M 10.1178,287.029 V 10.0094 H 200.138 V 287.029 H 10.1178" />
    </clipPath>
    <clipPath
       id="clipPath792"
       clipPathUnits="userSpaceOnUse">
      <path
         style="clip-rule:evenodd"
         id="path790"
         d="M 10.1178,287.029 V 10.0094 H 200.138 V 287.029 H 10.1178" />
    </clipPath>
    <clipPath
       id="clipPath780"
       clipPathUnits="userSpaceOnUse">
      <path
         style="clip-rule:evenodd"
         id="path778"
         d="M 10.1178,287.029 V 10.0094 H 200.138 V 287.029 H 10.1178" />
    </clipPath>
    <clipPath
       id="clipPath768"
       clipPathUnits="userSpaceOnUse">
      <path
         style="clip-rule:evenodd"
         id="path766"
         d="M 10.1178,287.029 V 10.0094 H 200.138 V 287.029 H 10.1178" />
    </clipPath>
    <clipPath
       id="clipPath756"
       clipPathUnits="userSpaceOnUse">
      <path
         style="clip-rule:evenodd"
         id="path754"
         d="M 10.1178,287.029 V 10.0094 H 200.138 V 287.029 H 10.1178" />
    </clipPath>
    <clipPath
       id="clipPath744"
       clipPathUnits="userSpaceOnUse">
      <path
         style="clip-rule:evenodd"
         id="path742"
         d="M 10.1178,287.029 V 10.0094 H 200.138 V 287.029 H 10.1178" />
    </clipPath>
  </defs>
  <metadata
     id="metadata88862">
    <rdf:RDF>
      <cc:Work
         rdf:about="">
        <dc:format>image/svg+xml</dc:format>
        <dc:type
           rdf:resource="http://purl.org/dc/dcmitype/StillImage" />
        <dc:title></dc:title>
      </cc:Work>
    </rdf:RDF>
  </metadata>
  <g
     transform="translate(-124.86704,-226.95631)"
     id="layer1">
    <g
       id="g106"
       transform="matrix(1.0000015,0,0,1.0000015,48.722416,91.614029)">
      <path
         id="path108"
         style="fill:none;stroke:#000000;stroke-width:0.13;stroke-linecap:round;stroke-linejoin:round;stroke-miterlimit:10;stroke-dasharray:none;stroke-opacity:1"
         d="m 78.1137,135.408 h 4.7862" />
    </g>
    <g
       id="g110"
       transform="matrix(1.0000015,0,0,1.0000015,48.722416,91.614029)">
      <path
         id="path112"
         style="fill:none;stroke:#000000;stroke-width:0.13;stroke-linecap:round;stroke-linejoin:round;stroke-miterlimit:10;stroke-dasharray:none;stroke-opacity:1"
         d="M 84.3091,137.425 H 76.7774" />
    </g>
    <g
       id="g114"
       transform="matrix(1.0000015,0,0,1.0000015,48.722416,91.614029)">
      <path
         id="path116"
         style="fill:none;stroke:#000000;stroke-width:0.13;stroke-linecap:round;stroke-linejoin:round;stroke-miterlimit:10;stroke-dasharray:none;stroke-opacity:1"
         d="m 77.9132,139.293 h 5.1883" />
    </g>
    <g
       id="g118"
       transform="matrix(1.0000015,0,0,1.0000015,48.722416,91.614029)">
      <path
         id="path120"
         style="fill:none;stroke:#000000;stroke-width:0.13;stroke-linecap:round;stroke-linejoin:round;stroke-miterlimit:10;stroke-dasharray:none;stroke-opacity:1"
         d="m 79.0587,135.408 v 0.904" />
    </g>
    <g
       id="g122"
       transform="matrix(1.0000015,0,0,1.0000015,48.722416,91.614029)">
      <path
         id="path124"
         style="fill:none;stroke:#000000;stroke-width:0.13;stroke-linecap:round;stroke-linejoin:round;stroke-miterlimit:10;stroke-dasharray:none;stroke-opacity:1"
         d="m 80.5084,135.408 v 0.904" />
    </g>
    <g
       id="g126"
       transform="matrix(1.0000015,0,0,1.0000015,48.722416,91.614029)">
      <path
         id="path128"
         style="fill:none;stroke:#000000;stroke-width:0.13;stroke-linecap:round;stroke-linejoin:round;stroke-miterlimit:10;stroke-dasharray:none;stroke-opacity:1"
         d="m 82.0072,135.408 v 0.904" />
    </g>
    <g
       id="g738"
       transform="matrix(1.0000015,0,0,1.0000015,48.722416,91.614029)">
      <g
         clip-path="url(#clipPath744)"
         id="g740">
        <g
           id="g746">
          <path
             id="path748"
             style="fill:none;stroke:#000000;stroke-width:0.13;stroke-linecap:round;stroke-linejoin:round;stroke-miterlimit:10;stroke-dasharray:none;stroke-opacity:1"
             d="m 76.5102,137.206 c 0,-0.002 0,-0.005 0,-0.008 0,-0.918 0.6908,-1.689 1.6035,-1.79" />
        </g>
      </g>
    </g>
    <g
       id="g750"
       transform="matrix(1.0000015,0,0,1.0000015,48.722416,91.614029)">
      <g
         clip-path="url(#clipPath756)"
         id="g752">
        <g
           id="g758">
          <path
             id="path760"
             style="fill:none;stroke:#000000;stroke-width:0.13;stroke-linecap:round;stroke-linejoin:round;stroke-miterlimit:10;stroke-dasharray:none;stroke-opacity:1"
             d="m 82.8999,135.408 c 0.9204,0.066 1.6334,0.832 1.6334,1.755 0,0.047 -0.0018,0.094 -0.0056,0.14" />
        </g>
      </g>
    </g>
    <g
       id="g762"
       transform="matrix(1.0000015,0,0,1.0000015,48.722416,91.614029)">
      <g
         clip-path="url(#clipPath768)"
         id="g764">
        <g
           id="g770">
          <path
             id="path772"
             style="fill:none;stroke:#000000;stroke-width:0.13;stroke-linecap:round;stroke-linejoin:round;stroke-miterlimit:10;stroke-dasharray:none;stroke-opacity:1"
             d="m 76.7774,137.425 c -0.0142,0.003 -0.0288,0.004 -0.0433,0.004 -0.1233,0 -0.2234,-0.099 -0.2239,-0.223" />
        </g>
      </g>
    </g>
    <g
       id="g774"
       transform="matrix(1.0000015,0,0,1.0000015,48.722416,91.614029)">
      <g
         clip-path="url(#clipPath780)"
         id="g776">
        <g
           id="g782">
          <path
             id="path784"
             style="fill:none;stroke:#000000;stroke-width:0.13;stroke-linecap:round;stroke-linejoin:round;stroke-miterlimit:10;stroke-dasharray:none;stroke-opacity:1"
             d="m 84.5277,137.303 c -0.018,0.077 -0.0862,0.131 -0.1646,0.131 -0.0184,0 -0.0366,-0.003 -0.054,-0.009" />
        </g>
      </g>
    </g>
    <g
       id="g786"
       transform="matrix(1.0000015,0,0,1.0000015,48.722416,91.614029)">
      <g
         clip-path="url(#clipPath792)"
         id="g788">
        <g
           id="g794">
          <path
             id="path796"
             style="fill:none;stroke:#000000;stroke-width:0.13;stroke-linecap:round;stroke-linejoin:round;stroke-miterlimit:10;stroke-dasharray:none;stroke-opacity:1"
             d="m 77.9132,139.293 c -0.551,-0.012 -1.0401,-0.356 -1.2389,-0.87" />
        </g>
      </g>
    </g>
    <g
       id="g798"
       transform="matrix(1.0000015,0,0,1.0000015,48.722416,91.614029)">
      <g
         clip-path="url(#clipPath804)"
         id="g800">
        <g
           id="g806">
          <path
             id="path808"
             style="fill:none;stroke:#000000;stroke-width:0.13;stroke-linecap:round;stroke-linejoin:round;stroke-miterlimit:10;stroke-dasharray:none;stroke-opacity:1"
             d="m 84.3489,138.405 c -0.184,0.532 -0.6846,0.888 -1.247,0.888 -1e-4,0 -3e-4,0 -4e-4,0" />
        </g>
      </g>
    </g>
    <g
       id="g21506"
       transform="matrix(1.0000015,0,0,1.0000015,48.722416,91.614029)">
      <path
         id="path21508"
         style="fill:none;stroke:#000000;stroke-width:0.13;stroke-linecap:round;stroke-linejoin:round;stroke-miterlimit:10;stroke-dasharray:none;stroke-opacity:1"
         d="m 76.6258,137.401 -0.1397,0.261" />
    </g>
    <g
       id="g21510"
       transform="matrix(1.0000015,0,0,1.0000015,48.722416,91.614029)">
      <path
         id="path21512"
         style="fill:none;stroke:#000000;stroke-width:0.13;stroke-linecap:round;stroke-linejoin:round;stroke-miterlimit:10;stroke-dasharray:none;stroke-opacity:1"
         d="m 76.4861,137.662 0.1166,0.144" />
    </g>
    <g
       id="g21514"
       transform="matrix(1.0000015,0,0,1.0000015,48.722416,91.614029)">
      <path
         id="path21516"
         style="fill:none;stroke:#000000;stroke-width:0.13;stroke-linecap:round;stroke-linejoin:round;stroke-miterlimit:10;stroke-dasharray:none;stroke-opacity:1"
         d="m 76.6027,137.806 0.2739,0.108" />
    </g>
    <g
       id="g21518"
       transform="matrix(1.0000015,0,0,1.0000015,48.722416,91.614029)">
      <path
         id="path21520"
         style="fill:none;stroke:#000000;stroke-width:0.13;stroke-linecap:round;stroke-linejoin:round;stroke-miterlimit:10;stroke-dasharray:none;stroke-opacity:1"
         d="m 76.8766,137.914 0.5511,0.014" />
    </g>
    <g
       id="g21522"
       transform="matrix(1.0000015,0,0,1.0000015,48.722416,91.614029)">
      <path
         id="path21524"
         style="fill:none;stroke:#000000;stroke-width:0.13;stroke-linecap:round;stroke-linejoin:round;stroke-miterlimit:10;stroke-dasharray:none;stroke-opacity:1"
         d="m 77.4277,137.928 0.5657,-0.043" />
    </g>
    <g
       id="g21526"
       transform="matrix(1.0000015,0,0,1.0000015,48.722416,91.614029)">
      <path
         id="path21528"
         style="fill:none;stroke:#000000;stroke-width:0.13;stroke-linecap:round;stroke-linejoin:round;stroke-miterlimit:10;stroke-dasharray:none;stroke-opacity:1"
         d="m 77.9934,137.885 0.542,0.122" />
    </g>
    <g
       id="g21530"
       transform="matrix(1.0000015,0,0,1.0000015,48.722416,91.614029)">
      <path
         id="path21532"
         style="fill:none;stroke:#000000;stroke-width:0.13;stroke-linecap:round;stroke-linejoin:round;stroke-miterlimit:10;stroke-dasharray:none;stroke-opacity:1"
         d="m 78.5354,138.007 0.5612,-0.039" />
    </g>
    <g
       id="g21534"
       transform="matrix(1.0000015,0,0,1.0000015,48.722416,91.614029)">
      <path
         id="path21536"
         style="fill:none;stroke:#000000;stroke-width:0.13;stroke-linecap:round;stroke-linejoin:round;stroke-miterlimit:10;stroke-dasharray:none;stroke-opacity:1"
         d="m 79.0966,137.968 0.5568,-0.15" />
    </g>
    <g
       id="g21538"
       transform="matrix(1.0000015,0,0,1.0000015,48.722416,91.614029)">
      <path
         id="path21540"
         style="fill:none;stroke:#000000;stroke-width:0.13;stroke-linecap:round;stroke-linejoin:round;stroke-miterlimit:10;stroke-dasharray:none;stroke-opacity:1"
         d="m 79.6534,137.818 0.9365,-0.124" />
    </g>
    <g
       id="g21542"
       transform="matrix(1.0000015,0,0,1.0000015,48.722416,91.614029)">
      <path
         id="path21544"
         style="fill:none;stroke:#000000;stroke-width:0.13;stroke-linecap:round;stroke-linejoin:round;stroke-miterlimit:10;stroke-dasharray:none;stroke-opacity:1"
         d="m 80.5899,137.694 0.9282,0.139" />
    </g>
    <g
       id="g21546"
       transform="matrix(1.0000015,0,0,1.0000015,48.722416,91.614029)">
      <path
         id="path21548"
         style="fill:none;stroke:#000000;stroke-width:0.13;stroke-linecap:round;stroke-linejoin:round;stroke-miterlimit:10;stroke-dasharray:none;stroke-opacity:1"
         d="m 81.5181,137.833 0.2344,0.078" />
    </g>
    <g
       id="g21550"
       transform="matrix(1.0000015,0,0,1.0000015,48.722416,91.614029)">
      <path
         id="path21552"
         style="fill:none;stroke:#000000;stroke-width:0.13;stroke-linecap:round;stroke-linejoin:round;stroke-miterlimit:10;stroke-dasharray:none;stroke-opacity:1"
         d="m 81.7525,137.911 0.6503,0.067" />
    </g>
    <g
       id="g21554"
       transform="matrix(1.0000015,0,0,1.0000015,48.722416,91.614029)">
      <path
         id="path21556"
         style="fill:none;stroke:#000000;stroke-width:0.13;stroke-linecap:round;stroke-linejoin:round;stroke-miterlimit:10;stroke-dasharray:none;stroke-opacity:1"
         d="m 82.4028,137.978 0.6489,-0.125" />
    </g>
    <g
       id="g21558"
       transform="matrix(1.0000015,0,0,1.0000015,48.722416,91.614029)">
      <path
         id="path21560"
         style="fill:none;stroke:#000000;stroke-width:0.13;stroke-linecap:round;stroke-linejoin:round;stroke-miterlimit:10;stroke-dasharray:none;stroke-opacity:1"
         d="m 83.0517,137.853 0.9552,-0.428" />
    </g>
    <g
       id="g21562"
       transform="matrix(1.0000015,0,0,1.0000015,48.722416,91.614029)">
      <path
         id="path21564"
         style="fill:none;stroke:#000000;stroke-width:0.13;stroke-linecap:round;stroke-linejoin:round;stroke-miterlimit:10;stroke-dasharray:none;stroke-opacity:1"
         d="M 77.9934,137.885 77.598,137.768" />
    </g>
    <g
       id="g21566"
       transform="matrix(1.0000015,0,0,1.0000015,48.722416,91.614029)">
      <path
         id="path21568"
         style="fill:none;stroke:#000000;stroke-width:0.13;stroke-linecap:round;stroke-linejoin:round;stroke-miterlimit:10;stroke-dasharray:none;stroke-opacity:1"
         d="m 77.598,137.768 -0.4408,-0.343" />
    </g>
    <g
       id="g21570"
       transform="matrix(1.0000015,0,0,1.0000015,48.722416,91.614029)">
      <path
         id="path21572"
         style="fill:none;stroke:#000000;stroke-width:0.13;stroke-linecap:round;stroke-linejoin:round;stroke-miterlimit:10;stroke-dasharray:none;stroke-opacity:1"
         d="m 79.7127,137.803 0.8437,0.171" />
    </g>
    <g
       id="g21574"
       transform="matrix(1.0000015,0,0,1.0000015,48.722416,91.614029)">
      <path
         id="path21576"
         style="fill:none;stroke:#000000;stroke-width:0.13;stroke-linecap:round;stroke-linejoin:round;stroke-miterlimit:10;stroke-dasharray:none;stroke-opacity:1"
         d="m 80.5564,137.974 0.9253,-0.152" />
    </g>
    <g
       id="g21578"
       transform="matrix(1.0000015,0,0,1.0000015,48.722416,91.614029)">
      <path
         id="path21580"
         style="fill:none;stroke:#000000;stroke-width:0.13;stroke-linecap:round;stroke-linejoin:round;stroke-miterlimit:10;stroke-dasharray:none;stroke-opacity:1"
         d="m 82.96,137.88 0.7164,0.084" />
    </g>
    <g
       id="g21582"
       transform="matrix(1.0000015,0,0,1.0000015,48.722416,91.614029)">
      <path
         id="path21584"
         style="fill:none;stroke:#000000;stroke-width:0.13;stroke-linecap:round;stroke-linejoin:round;stroke-miterlimit:10;stroke-dasharray:none;stroke-opacity:1"
         d="m 83.6764,137.964 0.2873,0.012" />
    </g>
    <g
       id="g21586"
       transform="matrix(1.0000015,0,0,1.0000015,48.722416,91.614029)">
      <path
         id="path21588"
         style="fill:none;stroke:#000000;stroke-width:0.13;stroke-linecap:round;stroke-linejoin:round;stroke-miterlimit:10;stroke-dasharray:none;stroke-opacity:1"
         d="m 83.9637,137.976 0.2626,-0.081" />
    </g>
    <g
       id="g21590"
       transform="matrix(1.0000015,0,0,1.0000015,48.722416,91.614029)">
      <path
         id="path21592"
         style="fill:none;stroke:#000000;stroke-width:0.13;stroke-linecap:round;stroke-linejoin:round;stroke-miterlimit:10;stroke-dasharray:none;stroke-opacity:1"
         d="m 84.2263,137.895 0.2041,-0.297" />
    </g>
    <g
       id="g21594"
       transform="matrix(1.0000015,0,0,1.0000015,48.722416,91.614029)">
      <path
         id="path21596"
         style="fill:none;stroke:#000000;stroke-width:0.13;stroke-linecap:round;stroke-linejoin:round;stroke-miterlimit:10;stroke-dasharray:none;stroke-opacity:1"
         d="m 84.4304,137.598 0.0314,-0.196" />
    </g>
    <g
       id="g21598"
       transform="matrix(1.0000015,0,0,1.0000015,48.722416,91.614029)">
      <path
         id="path21600"
         style="fill:none;stroke:#000000;stroke-width:0.13;stroke-linecap:round;stroke-linejoin:round;stroke-miterlimit:10;stroke-dasharray:none;stroke-opacity:1"
         d="m 76.5558,137.775 -0.3366,0.198" />
    </g>
    <g
       id="g21602"
       transform="matrix(1.0000015,0,0,1.0000015,48.722416,91.614029)">
      <path
         id="path21604"
         style="fill:none;stroke:#000000;stroke-width:0.13;stroke-linecap:round;stroke-linejoin:round;stroke-miterlimit:10;stroke-dasharray:none;stroke-opacity:1"
         d="m 76.2192,137.973 -0.009,0.212" />
    </g>
    <g
       id="g21606"
       transform="matrix(1.0000015,0,0,1.0000015,48.722416,91.614029)">
      <path
         id="path21608"
         style="fill:none;stroke:#000000;stroke-width:0.13;stroke-linecap:round;stroke-linejoin:round;stroke-miterlimit:10;stroke-dasharray:none;stroke-opacity:1"
         d="m 76.2102,138.185 0.0731,0.066" />
    </g>
    <g
       id="g21610"
       transform="matrix(1.0000015,0,0,1.0000015,48.722416,91.614029)">
      <path
         id="path21612"
         style="fill:none;stroke:#000000;stroke-width:0.13;stroke-linecap:round;stroke-linejoin:round;stroke-miterlimit:10;stroke-dasharray:none;stroke-opacity:1"
         d="m 76.2833,138.251 0.5033,0.193" />
    </g>
    <g
       id="g21614"
       transform="matrix(1.0000015,0,0,1.0000015,48.722416,91.614029)">
      <path
         id="path21616"
         style="fill:none;stroke:#000000;stroke-width:0.13;stroke-linecap:round;stroke-linejoin:round;stroke-miterlimit:10;stroke-dasharray:none;stroke-opacity:1"
         d="m 76.7866,138.444 0.577,0.015" />
    </g>
    <g
       id="g21618"
       transform="matrix(1.0000015,0,0,1.0000015,48.722416,91.614029)">
      <path
         id="path21620"
         style="fill:none;stroke:#000000;stroke-width:0.13;stroke-linecap:round;stroke-linejoin:round;stroke-miterlimit:10;stroke-dasharray:none;stroke-opacity:1"
         d="m 77.3636,138.459 0.5509,-0.148" />
    </g>
    <g
       id="g21622"
       transform="matrix(1.0000015,0,0,1.0000015,48.722416,91.614029)">
      <path
         id="path21624"
         style="fill:none;stroke:#000000;stroke-width:0.13;stroke-linecap:round;stroke-linejoin:round;stroke-miterlimit:10;stroke-dasharray:none;stroke-opacity:1"
         d="m 77.9145,138.311 0.558,-0.106" />
    </g>
    <g
       id="g21626"
       transform="matrix(1.0000015,0,0,1.0000015,48.722416,91.614029)">
      <path
         id="path21628"
         style="fill:none;stroke:#000000;stroke-width:0.13;stroke-linecap:round;stroke-linejoin:round;stroke-miterlimit:10;stroke-dasharray:none;stroke-opacity:1"
         d="m 78.4725,138.205 0.5603,0.165" />
    </g>
    <g
       id="g21630"
       transform="matrix(1.0000015,0,0,1.0000015,48.722416,91.614029)">
      <path
         id="path21632"
         style="fill:none;stroke:#000000;stroke-width:0.13;stroke-linecap:round;stroke-linejoin:round;stroke-miterlimit:10;stroke-dasharray:none;stroke-opacity:1"
         d="m 79.0328,138.37 0.4447,0.083" />
    </g>
    <g
       id="g21634"
       transform="matrix(1.0000015,0,0,1.0000015,48.722416,91.614029)">
      <path
         id="path21636"
         style="fill:none;stroke:#000000;stroke-width:0.13;stroke-linecap:round;stroke-linejoin:round;stroke-miterlimit:10;stroke-dasharray:none;stroke-opacity:1"
         d="m 79.4775,138.453 0.4499,-0.107" />
    </g>
    <g
       id="g21638"
       transform="matrix(1.0000015,0,0,1.0000015,48.722416,91.614029)">
      <path
         id="path21640"
         style="fill:none;stroke:#000000;stroke-width:0.13;stroke-linecap:round;stroke-linejoin:round;stroke-miterlimit:10;stroke-dasharray:none;stroke-opacity:1"
         d="m 79.9274,138.346 0.274,-0.117" />
    </g>
    <g
       id="g21642"
       transform="matrix(1.0000015,0,0,1.0000015,48.722416,91.614029)">
      <path
         id="path21644"
         style="fill:none;stroke:#000000;stroke-width:0.13;stroke-linecap:round;stroke-linejoin:round;stroke-miterlimit:10;stroke-dasharray:none;stroke-opacity:1"
         d="m 80.2014,138.229 0.3146,-0.036" />
    </g>
    <g
       id="g21646"
       transform="matrix(1.0000015,0,0,1.0000015,48.722416,91.614029)">
      <path
         id="path21648"
         style="fill:none;stroke:#000000;stroke-width:0.13;stroke-linecap:round;stroke-linejoin:round;stroke-miterlimit:10;stroke-dasharray:none;stroke-opacity:1"
         d="m 80.516,138.193 0.3297,0.044" />
    </g>
    <g
       id="g21650"
       transform="matrix(1.0000015,0,0,1.0000015,48.722416,91.614029)">
      <path
         id="path21652"
         style="fill:none;stroke:#000000;stroke-width:0.13;stroke-linecap:round;stroke-linejoin:round;stroke-miterlimit:10;stroke-dasharray:none;stroke-opacity:1"
         d="m 80.8457,138.237 0.2236,0.109" />
    </g>
    <g
       id="g21654"
       transform="matrix(1.0000015,0,0,1.0000015,48.722416,91.614029)">
      <path
         id="path21656"
         style="fill:none;stroke:#000000;stroke-width:0.13;stroke-linecap:round;stroke-linejoin:round;stroke-miterlimit:10;stroke-dasharray:none;stroke-opacity:1"
         d="m 81.0693,138.346 0.5437,0.131" />
    </g>
    <g
       id="g21658"
       transform="matrix(1.0000015,0,0,1.0000015,48.722416,91.614029)">
      <path
         id="path21660"
         style="fill:none;stroke:#000000;stroke-width:0.13;stroke-linecap:round;stroke-linejoin:round;stroke-miterlimit:10;stroke-dasharray:none;stroke-opacity:1"
         d="m 81.613,138.477 0.5981,-0.201" />
    </g>
    <g
       id="g21662"
       transform="matrix(1.0000015,0,0,1.0000015,48.722416,91.614029)">
      <path
         id="path21664"
         style="fill:none;stroke:#000000;stroke-width:0.13;stroke-linecap:round;stroke-linejoin:round;stroke-miterlimit:10;stroke-dasharray:none;stroke-opacity:1"
         d="m 82.2111,138.276 0.5307,-0.087" />
    </g>
    <g
       id="g21666"
       transform="matrix(1.0000015,0,0,1.0000015,48.722416,91.614029)">
      <path
         id="path21668"
         style="fill:none;stroke:#000000;stroke-width:0.13;stroke-linecap:round;stroke-linejoin:round;stroke-miterlimit:10;stroke-dasharray:none;stroke-opacity:1"
         d="m 82.7418,138.189 0.5523,0.193" />
    </g>
    <g
       id="g21670"
       transform="matrix(1.0000015,0,0,1.0000015,48.722416,91.614029)">
      <path
         id="path21672"
         style="fill:none;stroke:#000000;stroke-width:0.13;stroke-linecap:round;stroke-linejoin:round;stroke-miterlimit:10;stroke-dasharray:none;stroke-opacity:1"
         d="m 83.2941,138.382 0.5166,0.113" />
    </g>
    <g
       id="g21674"
       transform="matrix(1.0000015,0,0,1.0000015,48.722416,91.614029)">
      <path
         id="path21676"
         style="fill:none;stroke:#000000;stroke-width:0.13;stroke-linecap:round;stroke-linejoin:round;stroke-miterlimit:10;stroke-dasharray:none;stroke-opacity:1"
         d="m 83.8107,138.495 0.5382,-0.09" />
    </g>
    <g
       id="g21678"
       transform="matrix(1.0000015,0,0,1.0000015,48.722416,91.614029)">
      <path
         id="path21680"
         style="fill:none;stroke:#000000;stroke-width:0.13;stroke-linecap:round;stroke-linejoin:round;stroke-miterlimit:10;stroke-dasharray:none;stroke-opacity:1"
         d="m 84.3489,138.405 0.4171,-0.18" />
    </g>
    <g
       id="g21682"
       transform="matrix(1.0000015,0,0,1.0000015,48.722416,91.614029)">
      <path
         id="path21684"
         style="fill:none;stroke:#000000;stroke-width:0.13;stroke-linecap:round;stroke-linejoin:round;stroke-miterlimit:10;stroke-dasharray:none;stroke-opacity:1"
         d="m 84.766,138.225 0.1144,-0.09" />
    </g>
    <g
       id="g21686"
       transform="matrix(1.0000015,0,0,1.0000015,48.722416,91.614029)">
      <path
         id="path21688"
         style="fill:none;stroke:#000000;stroke-width:0.13;stroke-linecap:round;stroke-linejoin:round;stroke-miterlimit:10;stroke-dasharray:none;stroke-opacity:1"
         d="m 84.8804,138.135 -0.049,-0.155" />
    </g>
    <g
       id="g21690"
       transform="matrix(1.0000015,0,0,1.0000015,48.722416,91.614029)">
      <path
         id="path21692"
         style="fill:none;stroke:#000000;stroke-width:0.13;stroke-linecap:round;stroke-linejoin:round;stroke-miterlimit:10;stroke-dasharray:none;stroke-opacity:1"
         d="m 84.8314,137.98 -0.1979,-0.164" />
    </g>
    <g
       id="g21694"
       transform="matrix(1.0000015,0,0,1.0000015,48.722416,91.614029)">
      <path
         id="path21696"
         style="fill:none;stroke:#000000;stroke-width:0.13;stroke-linecap:round;stroke-linejoin:round;stroke-miterlimit:10;stroke-dasharray:none;stroke-opacity:1"
         d="m 84.6335,137.816 -0.2568,-0.087" />
    </g>
  </g>
</svg>
