<?xml version="1.0" encoding="UTF-8" standalone="no"?>
<svg
   xmlns:dc="http://purl.org/dc/elements/1.1/"
   xmlns:cc="http://creativecommons.org/ns#"
   xmlns:rdf="http://www.w3.org/1999/02/22-rdf-syntax-ns#"
   xmlns:svg="http://www.w3.org/2000/svg"
   xmlns="http://www.w3.org/2000/svg"
   id="svg72530"
   version="1.1"
   viewBox="0 0 5.7526922 7.6029344"
   height="7.6029344mm"
   width="5.7526922mm">
  <defs
     id="defs72524">
    <clipPath
       id="clipPath732"
       clipPathUnits="userSpaceOnUse">
      <path
         style="clip-rule:evenodd"
         id="path730"
         d="M 10.1178,287.029 V 10.0094 H 200.138 V 287.029 H 10.1178" />
    </clipPath>
    <clipPath
       id="clipPath720"
       clipPathUnits="userSpaceOnUse">
      <path
         style="clip-rule:evenodd"
         id="path718"
         d="M 10.1178,287.029 V 10.0094 H 200.138 V 287.029 H 10.1178" />
    </clipPath>
    <clipPath
       id="clipPath708"
       clipPathUnits="userSpaceOnUse">
      <path
         style="clip-rule:evenodd"
         id="path706"
         d="M 10.1178,287.029 V 10.0094 H 200.138 V 287.029 H 10.1178" />
    </clipPath>
    <clipPath
       id="clipPath696"
       clipPathUnits="userSpaceOnUse">
      <path
         style="clip-rule:evenodd"
         id="path694"
         d="M 10.1178,287.029 V 10.0094 H 200.138 V 287.029 H 10.1178" />
    </clipPath>
    <clipPath
       id="clipPath684"
       clipPathUnits="userSpaceOnUse">
      <path
         style="clip-rule:evenodd"
         id="path682"
         d="M 10.1178,287.029 V 10.0094 H 200.138 V 287.029 H 10.1178" />
    </clipPath>
    <clipPath
       id="clipPath672"
       clipPathUnits="userSpaceOnUse">
      <path
         style="clip-rule:evenodd"
         id="path670"
         d="M 10.1178,287.029 V 10.0094 H 200.138 V 287.029 H 10.1178" />
    </clipPath>
    <clipPath
       id="clipPath660"
       clipPathUnits="userSpaceOnUse">
      <path
         style="clip-rule:evenodd"
         id="path658"
         d="M 10.1178,287.029 V 10.0094 H 200.138 V 287.029 H 10.1178" />
    </clipPath>
    <clipPath
       id="clipPath648"
       clipPathUnits="userSpaceOnUse">
      <path
         style="clip-rule:evenodd"
         id="path646"
         d="M 10.1178,287.029 V 10.0094 H 200.138 V 287.029 H 10.1178" />
    </clipPath>
    <clipPath
       id="clipPath636"
       clipPathUnits="userSpaceOnUse">
      <path
         style="clip-rule:evenodd"
         id="path634"
         d="M 10.1178,287.029 V 10.0094 H 200.138 V 287.029 H 10.1178" />
    </clipPath>
    <clipPath
       id="clipPath624"
       clipPathUnits="userSpaceOnUse">
      <path
         style="clip-rule:evenodd"
         id="path622"
         d="M 10.1178,287.029 V 10.0094 H 200.138 V 287.029 H 10.1178" />
    </clipPath>
    <clipPath
       id="clipPath612"
       clipPathUnits="userSpaceOnUse">
      <path
         style="clip-rule:evenodd"
         id="path610"
         d="M 10.1178,287.029 V 10.0094 H 200.138 V 287.029 H 10.1178" />
    </clipPath>
    <clipPath
       id="clipPath600"
       clipPathUnits="userSpaceOnUse">
      <path
         style="clip-rule:evenodd"
         id="path598"
         d="M 10.1178,287.029 V 10.0094 H 200.138 V 287.029 H 10.1178" />
    </clipPath>
    <clipPath
       id="clipPath588"
       clipPathUnits="userSpaceOnUse">
      <path
         style="clip-rule:evenodd"
         id="path586"
         d="M 10.1178,287.029 V 10.0094 H 200.138 V 287.029 H 10.1178" />
    </clipPath>
    <clipPath
       id="clipPath576"
       clipPathUnits="userSpaceOnUse">
      <path
         style="clip-rule:evenodd"
         id="path574"
         d="M 10.1178,287.029 V 10.0094 H 200.138 V 287.029 H 10.1178" />
    </clipPath>
    <clipPath
       id="clipPath564"
       clipPathUnits="userSpaceOnUse">
      <path
         style="clip-rule:evenodd"
         id="path562"
         d="M 10.1178,287.029 V 10.0094 H 200.138 V 287.029 H 10.1178" />
    </clipPath>
    <clipPath
       id="clipPath552"
       clipPathUnits="userSpaceOnUse">
      <path
         style="clip-rule:evenodd"
         id="path550"
         d="M 10.1178,287.029 V 10.0094 H 200.138 V 287.029 H 10.1178" />
    </clipPath>
    <clipPath
       id="clipPath540"
       clipPathUnits="userSpaceOnUse">
      <path
         style="clip-rule:evenodd"
         id="path538"
         d="M 10.1178,287.029 V 10.0094 H 200.138 V 287.029 H 10.1178" />
    </clipPath>
    <clipPath
       id="clipPath528"
       clipPathUnits="userSpaceOnUse">
      <path
         style="clip-rule:evenodd"
         id="path526"
         d="M 10.1178,287.029 V 10.0094 H 200.138 V 287.029 H 10.1178" />
    </clipPath>
    <clipPath
       id="clipPath516"
       clipPathUnits="userSpaceOnUse">
      <path
         style="clip-rule:evenodd"
         id="path514"
         d="M 10.1178,287.029 V 10.0094 H 200.138 V 287.029 H 10.1178" />
    </clipPath>
  </defs>
  <metadata
     id="metadata72527">
    <rdf:RDF>
      <cc:Work
         rdf:about="">
        <dc:format>image/svg+xml</dc:format>
        <dc:type
           rdf:resource="http://purl.org/dc/dcmitype/StillImage" />
        <dc:title></dc:title>
      </cc:Work>
    </rdf:RDF>
  </metadata>
  <g
     transform="translate(205.47159,-90.603295)"
     id="layer1">
    <g
       id="g30"
       transform="matrix(1.0000015,0,0,1.0000015,-282.85768,9.6826733)">
      <path
         id="path32"
         style="fill:none;stroke:#000000;stroke-width:0.1;stroke-linecap:round;stroke-linejoin:round;stroke-miterlimit:10;stroke-dasharray:none;stroke-opacity:1"
         d="m 77.9889,84.8348 0.6617,-0.5051" />
    </g>
    <g
       id="g34"
       transform="matrix(1.0000015,0,0,1.0000015,-282.85768,9.6826733)">
      <path
         id="path36"
         style="fill:none;stroke:#000000;stroke-width:0.1;stroke-linecap:round;stroke-linejoin:round;stroke-miterlimit:10;stroke-dasharray:none;stroke-opacity:1"
         d="m 78.3462,85.2785 0.6616,-0.5051" />
    </g>
    <g
       id="g38"
       transform="matrix(1.0000015,0,0,1.0000015,-282.85768,9.6826733)">
      <path
         id="path40"
         style="fill:none;stroke:#000000;stroke-width:0.1;stroke-linecap:round;stroke-linejoin:round;stroke-miterlimit:10;stroke-dasharray:none;stroke-opacity:1"
         d="m 78.4006,81.8549 0.4999,0.6656" />
    </g>
    <g
       id="g42"
       transform="matrix(1.0000015,0,0,1.0000015,-282.85768,9.6826733)">
      <path
         id="path44"
         style="fill:none;stroke:#000000;stroke-width:0.1;stroke-linecap:round;stroke-linejoin:round;stroke-miterlimit:10;stroke-dasharray:none;stroke-opacity:1"
         d="m 78.8648,81.5247 0.4999,0.6656" />
    </g>
    <g
       id="g46"
       transform="matrix(1.0000015,0,0,1.0000015,-282.85768,9.6826733)">
      <path
         id="path48"
         style="fill:none;stroke:#000000;stroke-width:0.1;stroke-linecap:round;stroke-linejoin:round;stroke-miterlimit:10;stroke-dasharray:none;stroke-opacity:1"
         d="m 78.4006,81.8549 0.4999,0.6656" />
    </g>
    <g
       id="g50"
       transform="matrix(1.0000015,0,0,1.0000015,-282.85768,9.6826733)">
      <path
         id="path52"
         style="fill:none;stroke:#000000;stroke-width:0.1;stroke-linecap:round;stroke-linejoin:round;stroke-miterlimit:10;stroke-dasharray:none;stroke-opacity:1"
         d="m 78.8648,81.5247 0.4999,0.6656" />
    </g>
    <g
       id="g54"
       transform="matrix(1.0000015,0,0,1.0000015,-282.85768,9.6826733)">
      <path
         id="path56"
         style="fill:none;stroke:#000000;stroke-width:0.1;stroke-linecap:round;stroke-linejoin:round;stroke-miterlimit:10;stroke-dasharray:none;stroke-opacity:1"
         d="m 80.1297,81.1865 -0.1183,0.824" />
    </g>
    <g
       id="g58"
       transform="matrix(1.0000015,0,0,1.0000015,-282.85768,9.6826733)">
      <path
         id="path60"
         style="fill:none;stroke:#000000;stroke-width:0.1;stroke-linecap:round;stroke-linejoin:round;stroke-miterlimit:10;stroke-dasharray:none;stroke-opacity:1"
         d="M 80.6912,81.282 80.573,82.1059" />
    </g>
    <g
       id="g62"
       transform="matrix(1.0000015,0,0,1.0000015,-282.85768,9.6826733)">
      <path
         id="path64"
         style="fill:none;stroke:#000000;stroke-width:0.1;stroke-linecap:round;stroke-linejoin:round;stroke-miterlimit:10;stroke-dasharray:none;stroke-opacity:1"
         d="m 80.1297,81.1865 -0.1183,0.824" />
    </g>
    <g
       id="g66"
       transform="matrix(1.0000015,0,0,1.0000015,-282.85768,9.6826733)">
      <path
         id="path68"
         style="fill:none;stroke:#000000;stroke-width:0.1;stroke-linecap:round;stroke-linejoin:round;stroke-miterlimit:10;stroke-dasharray:none;stroke-opacity:1"
         d="M 80.6912,81.282 80.573,82.1059" />
    </g>
    <g
       id="g70"
       transform="matrix(1.0000015,0,0,1.0000015,-282.85768,9.6826733)">
      <path
         id="path72"
         style="fill:none;stroke:#000000;stroke-width:0.1;stroke-linecap:round;stroke-linejoin:round;stroke-miterlimit:10;stroke-dasharray:none;stroke-opacity:1"
         d="m 82.1637,82.4226 -0.6714,0.4921" />
    </g>
    <g
       id="g74"
       transform="matrix(1.0000015,0,0,1.0000015,-282.85768,9.6826733)">
      <path
         id="path76"
         style="fill:none;stroke:#000000;stroke-width:0.1;stroke-linecap:round;stroke-linejoin:round;stroke-miterlimit:10;stroke-dasharray:none;stroke-opacity:1"
         d="m 81.8389,81.9546 -0.6714,0.4921" />
    </g>
    <g
       id="g78"
       transform="matrix(1.0000015,0,0,1.0000015,-282.85768,9.6826733)">
      <path
         id="path80"
         style="fill:none;stroke:#000000;stroke-width:0.1;stroke-linecap:round;stroke-linejoin:round;stroke-miterlimit:10;stroke-dasharray:none;stroke-opacity:1"
         d="m 82.1637,82.4226 -0.6714,0.4921" />
    </g>
    <g
       id="g82"
       transform="matrix(1.0000015,0,0,1.0000015,-282.85768,9.6826733)">
      <path
         id="path84"
         style="fill:none;stroke:#000000;stroke-width:0.1;stroke-linecap:round;stroke-linejoin:round;stroke-miterlimit:10;stroke-dasharray:none;stroke-opacity:1"
         d="m 77.6533,83.5329 0.8234,0.1223" />
    </g>
    <g
       id="g86"
       transform="matrix(1.0000015,0,0,1.0000015,-282.85768,9.6826733)">
      <path
         id="path88"
         style="fill:none;stroke:#000000;stroke-width:0.1;stroke-linecap:round;stroke-linejoin:round;stroke-miterlimit:10;stroke-dasharray:none;stroke-opacity:1"
         d="m 77.7516,82.9718 0.8233,0.1223" />
    </g>
    <g
       id="g90"
       transform="matrix(1.0000015,0,0,1.0000015,-282.85768,9.6826733)">
      <path
         id="path92"
         style="fill:none;stroke:#000000;stroke-width:0.1;stroke-linecap:round;stroke-linejoin:round;stroke-miterlimit:10;stroke-dasharray:none;stroke-opacity:1"
         d="m 77.6533,83.5329 0.8234,0.1223" />
    </g>
    <g
       id="g94"
       transform="matrix(1.0000015,0,0,1.0000015,-282.85768,9.6826733)">
      <path
         id="path96"
         style="fill:none;stroke:#000000;stroke-width:0.1;stroke-linecap:round;stroke-linejoin:round;stroke-miterlimit:10;stroke-dasharray:none;stroke-opacity:1"
         d="m 77.7516,82.9718 0.8233,0.1223" />
    </g>
    <g
       id="g98"
       transform="matrix(1.0000015,0,0,1.0000015,-282.85768,9.6826733)">
      <path
         id="path100"
         style="fill:none;stroke:#000000;stroke-width:0.18000001;stroke-linecap:round;stroke-linejoin:round;stroke-miterlimit:10;stroke-dasharray:none;stroke-opacity:1"
         d="m 81.6628,88.0871 -2.2504,0.2043" />
    </g>
    <g
       id="g102"
       transform="matrix(1.0000015,0,0,1.0000015,-282.85768,9.6826733)">
      <path
         id="path104"
         style="fill:none;stroke:#000000;stroke-width:0.18000001;stroke-linecap:round;stroke-linejoin:round;stroke-miterlimit:10;stroke-dasharray:none;stroke-opacity:1"
         d="M 79.4124,88.2914 79.2792,86.4349" />
    </g>
    <g
       id="g510"
       transform="matrix(1.0000015,0,0,1.0000015,-282.85768,9.6826733)">
      <g
         clip-path="url(#clipPath516)"
         id="g512">
        <g
           id="g518">
          <path
             id="path520"
             style="fill:none;stroke:#000000;stroke-width:0.18000001;stroke-linecap:round;stroke-linejoin:round;stroke-miterlimit:10;stroke-dasharray:none;stroke-opacity:1"
             d="m 81.1705,83.604 c 0,-0.6075 -0.4925,-1.1 -1.1,-1.1 -0.6075,0 -1.1,0.4925 -1.1,1.1 0,0.6075 0.4925,1.1 1.1,1.1 0.6075,0 1.1,-0.4925 1.1,-1.1" />
        </g>
      </g>
    </g>
    <g
       id="g522"
       transform="matrix(1.0000015,0,0,1.0000015,-282.85768,9.6826733)">
      <g
         clip-path="url(#clipPath528)"
         id="g524">
        <g
           id="g530">
          <path
             id="path532"
             style="fill:none;stroke:#000000;stroke-width:0.1;stroke-linecap:round;stroke-linejoin:round;stroke-miterlimit:10;stroke-dasharray:none;stroke-opacity:1"
             d="m 78.6506,84.3297 c 0.0471,-0.0317 0.1026,-0.0486 0.1594,-0.0486 0.1579,0 0.2859,0.128 0.2859,0.2859 0,0.0779 -0.0318,0.1525 -0.0881,0.2064" />
        </g>
      </g>
    </g>
    <g
       id="g534"
       transform="matrix(1.0000015,0,0,1.0000015,-282.85768,9.6826733)">
      <g
         clip-path="url(#clipPath540)"
         id="g536">
        <g
           id="g542">
          <path
             id="path544"
             style="fill:none;stroke:#000000;stroke-width:0.1;stroke-linecap:round;stroke-linejoin:round;stroke-miterlimit:10;stroke-dasharray:none;stroke-opacity:1"
             d="m 78.3462,85.2785 c -0.0475,0.0325 -0.1038,0.0499 -0.1613,0.0499 -0.1578,0 -0.2857,-0.128 -0.2857,-0.2857 0,-0.0787 0.0324,-0.154 0.0897,-0.2079" />
        </g>
      </g>
    </g>
    <g
       id="g546"
       transform="matrix(1.0000015,0,0,1.0000015,-282.85768,9.6826733)">
      <g
         clip-path="url(#clipPath552)"
         id="g548">
        <g
           id="g554">
          <path
             id="path556"
             style="fill:none;stroke:#000000;stroke-width:0.1;stroke-linecap:round;stroke-linejoin:round;stroke-miterlimit:10;stroke-dasharray:none;stroke-opacity:1"
             d="m 79.3647,82.1903 c 0.0259,0.0439 0.0395,0.094 0.0395,0.145 0,0.1579 -0.128,0.2859 -0.2859,0.2859 -0.0838,0 -0.1634,-0.0368 -0.2178,-0.1007" />
        </g>
      </g>
    </g>
    <g
       id="g558"
       transform="matrix(1.0000015,0,0,1.0000015,-282.85768,9.6826733)">
      <g
         clip-path="url(#clipPath564)"
         id="g560">
        <g
           id="g566">
          <path
             id="path568"
             style="fill:none;stroke:#000000;stroke-width:0.1;stroke-linecap:round;stroke-linejoin:round;stroke-miterlimit:10;stroke-dasharray:none;stroke-opacity:1"
             d="m 78.4006,81.8549 c -0.0266,-0.0444 -0.0407,-0.0952 -0.0407,-0.147 0,-0.1577 0.1279,-0.2856 0.2857,-0.2856 0.0847,0 0.1649,0.0375 0.2192,0.1024" />
        </g>
      </g>
    </g>
    <g
       id="g570"
       transform="matrix(1.0000015,0,0,1.0000015,-282.85768,9.6826733)">
      <g
         clip-path="url(#clipPath576)"
         id="g572">
        <g
           id="g578">
          <path
             id="path580"
             style="fill:none;stroke:#000000;stroke-width:0.1;stroke-linecap:round;stroke-linejoin:round;stroke-miterlimit:10;stroke-dasharray:none;stroke-opacity:1"
             d="m 79.3647,82.1903 c 0.0259,0.0439 0.0395,0.094 0.0395,0.145 0,0.1579 -0.128,0.2859 -0.2859,0.2859 -0.0838,0 -0.1634,-0.0368 -0.2178,-0.1007" />
        </g>
      </g>
    </g>
    <g
       id="g582"
       transform="matrix(1.0000015,0,0,1.0000015,-282.85768,9.6826733)">
      <g
         clip-path="url(#clipPath588)"
         id="g584">
        <g
           id="g590">
          <path
             id="path592"
             style="fill:none;stroke:#000000;stroke-width:0.1;stroke-linecap:round;stroke-linejoin:round;stroke-miterlimit:10;stroke-dasharray:none;stroke-opacity:1"
             d="m 78.4006,81.8549 c -0.0266,-0.0444 -0.0407,-0.0952 -0.0407,-0.147 0,-0.1577 0.1279,-0.2856 0.2857,-0.2856 0.0847,0 0.1649,0.0375 0.2192,0.1024" />
        </g>
      </g>
    </g>
    <g
       id="g594"
       transform="matrix(1.0000015,0,0,1.0000015,-282.85768,9.6826733)">
      <g
         clip-path="url(#clipPath600)"
         id="g596">
        <g
           id="g602">
          <path
             id="path604"
             style="fill:none;stroke:#000000;stroke-width:0.1;stroke-linecap:round;stroke-linejoin:round;stroke-miterlimit:10;stroke-dasharray:none;stroke-opacity:1"
             d="m 80.573,82.1059 c -0.0328,0.126 -0.1465,0.2139 -0.2766,0.2139 -0.1579,0 -0.2859,-0.128 -0.2859,-0.2859 0,-0.0078 3e-4,-0.0156 9e-4,-0.0234" />
        </g>
      </g>
    </g>
    <g
       id="g606"
       transform="matrix(1.0000015,0,0,1.0000015,-282.85768,9.6826733)">
      <g
         clip-path="url(#clipPath612)"
         id="g608">
        <g
           id="g614">
          <path
             id="path616"
             style="fill:none;stroke:#000000;stroke-width:0.1;stroke-linecap:round;stroke-linejoin:round;stroke-miterlimit:10;stroke-dasharray:none;stroke-opacity:1"
             d="m 80.1297,81.1865 c 0.0319,-0.127 0.1461,-0.216 0.277,-0.216 0.1578,0 0.2857,0.1279 0.2857,0.2857 0,0.0086 -4e-4,0.0172 -0.0012,0.0258" />
        </g>
      </g>
    </g>
    <g
       id="g618"
       transform="matrix(1.0000015,0,0,1.0000015,-282.85768,9.6826733)">
      <g
         clip-path="url(#clipPath624)"
         id="g620">
        <g
           id="g626">
          <path
             id="path628"
             style="fill:none;stroke:#000000;stroke-width:0.1;stroke-linecap:round;stroke-linejoin:round;stroke-miterlimit:10;stroke-dasharray:none;stroke-opacity:1"
             d="m 80.573,82.1059 c -0.0328,0.126 -0.1465,0.2139 -0.2766,0.2139 -0.1579,0 -0.2859,-0.128 -0.2859,-0.2859 0,-0.0078 3e-4,-0.0156 9e-4,-0.0234" />
        </g>
      </g>
    </g>
    <g
       id="g630"
       transform="matrix(1.0000015,0,0,1.0000015,-282.85768,9.6826733)">
      <g
         clip-path="url(#clipPath636)"
         id="g632">
        <g
           id="g638">
          <path
             id="path640"
             style="fill:none;stroke:#000000;stroke-width:0.1;stroke-linecap:round;stroke-linejoin:round;stroke-miterlimit:10;stroke-dasharray:none;stroke-opacity:1"
             d="m 80.1297,81.1865 c 0.0319,-0.127 0.1461,-0.216 0.277,-0.216 0.1578,0 0.2857,0.1279 0.2857,0.2857 0,0.0086 -4e-4,0.0172 -0.0012,0.0258" />
        </g>
      </g>
    </g>
    <g
       id="g642"
       transform="matrix(1.0000015,0,0,1.0000015,-282.85768,9.6826733)">
      <g
         clip-path="url(#clipPath648)"
         id="g644">
        <g
           id="g650">
          <path
             id="path652"
             style="fill:none;stroke:#000000;stroke-width:0.1;stroke-linecap:round;stroke-linejoin:round;stroke-miterlimit:10;stroke-dasharray:none;stroke-opacity:1"
             d="m 81.4923,82.9147 c -0.0432,0.0248 -0.0922,0.0379 -0.1421,0.0379 -0.1579,0 -0.2859,-0.128 -0.2859,-0.2859 0,-0.085 0.0378,-0.1656 0.1032,-0.22" />
        </g>
      </g>
    </g>
    <g
       id="g654"
       transform="matrix(1.0000015,0,0,1.0000015,-282.85768,9.6826733)">
      <g
         clip-path="url(#clipPath660)"
         id="g656">
        <g
           id="g662">
          <path
             id="path664"
             style="fill:none;stroke:#000000;stroke-width:0.1;stroke-linecap:round;stroke-linejoin:round;stroke-miterlimit:10;stroke-dasharray:none;stroke-opacity:1"
             d="m 81.8389,81.9546 c 0.0437,-0.0255 0.0934,-0.039 0.1441,-0.039 0.1578,0 0.2857,0.1279 0.2857,0.2857 0,0.0858 -0.0386,0.1671 -0.105,0.2213" />
        </g>
      </g>
    </g>
    <g
       id="g666"
       transform="matrix(1.0000015,0,0,1.0000015,-282.85768,9.6826733)">
      <g
         clip-path="url(#clipPath672)"
         id="g668">
        <g
           id="g674">
          <path
             id="path676"
             style="fill:none;stroke:#000000;stroke-width:0.1;stroke-linecap:round;stroke-linejoin:round;stroke-miterlimit:10;stroke-dasharray:none;stroke-opacity:1"
             d="m 81.4923,82.9147 c -0.0432,0.0248 -0.0922,0.0379 -0.1421,0.0379 -0.1579,0 -0.2859,-0.128 -0.2859,-0.2859 0,-0.085 0.0378,-0.1656 0.1032,-0.22" />
        </g>
      </g>
    </g>
    <g
       id="g678"
       transform="matrix(1.0000015,0,0,1.0000015,-282.85768,9.6826733)">
      <g
         clip-path="url(#clipPath684)"
         id="g680">
        <g
           id="g686">
          <path
             id="path688"
             style="fill:none;stroke:#000000;stroke-width:0.1;stroke-linecap:round;stroke-linejoin:round;stroke-miterlimit:10;stroke-dasharray:none;stroke-opacity:1"
             d="m 81.8389,81.9546 c 0.0437,-0.0255 0.0934,-0.039 0.1441,-0.039 0.1578,0 0.2857,0.1279 0.2857,0.2857 0,0.0858 -0.0386,0.1671 -0.105,0.2213" />
        </g>
      </g>
    </g>
    <g
       id="g690"
       transform="matrix(1.0000015,0,0,1.0000015,-282.85768,9.6826733)">
      <g
         clip-path="url(#clipPath696)"
         id="g692">
        <g
           id="g698">
          <path
             id="path700"
             style="fill:none;stroke:#000000;stroke-width:0.1;stroke-linecap:round;stroke-linejoin:round;stroke-miterlimit:10;stroke-dasharray:none;stroke-opacity:1"
             d="m 78.5749,83.0941 c 0.1253,0.0332 0.2125,0.1466 0.2125,0.2763 0,0.1579 -0.128,0.2859 -0.2859,0.2859 -0.0083,0 -0.0165,-4e-4 -0.0248,-0.0011" />
        </g>
      </g>
    </g>
    <g
       id="g702"
       transform="matrix(1.0000015,0,0,1.0000015,-282.85768,9.6826733)">
      <g
         clip-path="url(#clipPath708)"
         id="g704">
        <g
           id="g710">
          <path
             id="path712"
             style="fill:none;stroke:#000000;stroke-width:0.1;stroke-linecap:round;stroke-linejoin:round;stroke-miterlimit:10;stroke-dasharray:none;stroke-opacity:1"
             d="m 77.6533,83.5329 c -0.1263,-0.0324 -0.2146,-0.1463 -0.2146,-0.2767 0,-0.1578 0.1279,-0.2857 0.2857,-0.2857 0.009,0 0.0181,4e-4 0.0272,0.0013" />
        </g>
      </g>
    </g>
    <g
       id="g714"
       transform="matrix(1.0000015,0,0,1.0000015,-282.85768,9.6826733)">
      <g
         clip-path="url(#clipPath720)"
         id="g716">
        <g
           id="g722">
          <path
             id="path724"
             style="fill:none;stroke:#000000;stroke-width:0.1;stroke-linecap:round;stroke-linejoin:round;stroke-miterlimit:10;stroke-dasharray:none;stroke-opacity:1"
             d="m 78.5749,83.0941 c 0.1253,0.0332 0.2125,0.1466 0.2125,0.2763 0,0.1579 -0.128,0.2859 -0.2859,0.2859 -0.0083,0 -0.0165,-4e-4 -0.0248,-0.0011" />
        </g>
      </g>
    </g>
    <g
       id="g726"
       transform="matrix(1.0000015,0,0,1.0000015,-282.85768,9.6826733)">
      <g
         clip-path="url(#clipPath732)"
         id="g728">
        <g
           id="g734">
          <path
             id="path736"
             style="fill:none;stroke:#000000;stroke-width:0.1;stroke-linecap:round;stroke-linejoin:round;stroke-miterlimit:10;stroke-dasharray:none;stroke-opacity:1"
             d="m 77.6533,83.5329 c -0.1263,-0.0324 -0.2146,-0.1463 -0.2146,-0.2767 0,-0.1578 0.1279,-0.2857 0.2857,-0.2857 0.009,0 0.0181,4e-4 0.0272,0.0013" />
        </g>
      </g>
    </g>
    <g
       id="g2322"
       transform="matrix(1.0000015,0,0,1.0000015,-282.85768,9.6826733)">
      <path
         id="path2324"
         style="fill:none;stroke:#000000;stroke-width:0.18000001;stroke-linecap:round;stroke-linejoin:round;stroke-miterlimit:10;stroke-dasharray:none;stroke-opacity:1"
         d="m 79.2792,86.4349 -0.3477,0.3406" />
    </g>
    <g
       id="g2326"
       transform="matrix(1.0000015,0,0,1.0000015,-282.85768,9.6826733)">
      <path
         id="path2328"
         style="fill:none;stroke:#000000;stroke-width:0.18000001;stroke-linecap:round;stroke-linejoin:round;stroke-miterlimit:10;stroke-dasharray:none;stroke-opacity:1"
         d="m 78.9315,86.7755 -0.2739,0.3674" />
    </g>
    <g
       id="g2330"
       transform="matrix(1.0000015,0,0,1.0000015,-282.85768,9.6826733)">
      <path
         id="path2332"
         style="fill:none;stroke:#000000;stroke-width:0.18000001;stroke-linecap:round;stroke-linejoin:round;stroke-miterlimit:10;stroke-dasharray:none;stroke-opacity:1"
         d="m 78.6576,87.1429 -0.1981,0.4469" />
    </g>
    <g
       id="g2334"
       transform="matrix(1.0000015,0,0,1.0000015,-282.85768,9.6826733)">
      <path
         id="path2336"
         style="fill:none;stroke:#000000;stroke-width:0.18000001;stroke-linecap:round;stroke-linejoin:round;stroke-miterlimit:10;stroke-dasharray:none;stroke-opacity:1"
         d="m 78.4595,87.5898 -0.1957,0.621" />
    </g>
    <g
       id="g2338"
       transform="matrix(1.0000015,0,0,1.0000015,-282.85768,9.6826733)">
      <path
         id="path2340"
         style="fill:none;stroke:#000000;stroke-width:0.18000001;stroke-linecap:round;stroke-linejoin:round;stroke-miterlimit:10;stroke-dasharray:none;stroke-opacity:1"
         d="m 78.2638,88.2108 -0.1701,0.196" />
    </g>
    <g
       id="g2342"
       transform="matrix(1.0000015,0,0,1.0000015,-282.85768,9.6826733)">
      <path
         id="path2344"
         style="fill:none;stroke:#000000;stroke-width:0.18000001;stroke-linecap:round;stroke-linejoin:round;stroke-miterlimit:10;stroke-dasharray:none;stroke-opacity:1"
         d="m 78.0937,88.4068 -0.2399,0.026" />
    </g>
    <g
       id="g2346"
       transform="matrix(1.0000015,0,0,1.0000015,-282.85768,9.6826733)">
      <path
         id="path2348"
         style="fill:none;stroke:#000000;stroke-width:0.18000001;stroke-linecap:round;stroke-linejoin:round;stroke-miterlimit:10;stroke-dasharray:none;stroke-opacity:1"
         d="M 77.8538,88.4328 77.6221,88.3052" />
    </g>
    <g
       id="g2350"
       transform="matrix(1.0000015,0,0,1.0000015,-282.85768,9.6826733)">
      <path
         id="path2352"
         style="fill:none;stroke:#000000;stroke-width:0.18000001;stroke-linecap:round;stroke-linejoin:round;stroke-miterlimit:10;stroke-dasharray:none;stroke-opacity:1"
         d="M 77.6221,88.3052 77.4766,88.0408" />
    </g>
    <g
       id="g2354"
       transform="matrix(1.0000015,0,0,1.0000015,-282.85768,9.6826733)">
      <path
         id="path2356"
         style="fill:none;stroke:#000000;stroke-width:0.18000001;stroke-linecap:round;stroke-linejoin:round;stroke-miterlimit:10;stroke-dasharray:none;stroke-opacity:1"
         d="m 77.4766,88.0408 0.0267,-0.4667" />
    </g>
    <g
       id="g2358"
       transform="matrix(1.0000015,0,0,1.0000015,-282.85768,9.6826733)">
      <path
         id="path2360"
         style="fill:none;stroke:#000000;stroke-width:0.18000001;stroke-linecap:round;stroke-linejoin:round;stroke-miterlimit:10;stroke-dasharray:none;stroke-opacity:1"
         d="m 77.5033,87.5741 0.2409,-0.6225" />
    </g>
    <g
       id="g2362"
       transform="matrix(1.0000015,0,0,1.0000015,-282.85768,9.6826733)">
      <path
         id="path2364"
         style="fill:none;stroke:#000000;stroke-width:0.18000001;stroke-linecap:round;stroke-linejoin:round;stroke-miterlimit:10;stroke-dasharray:none;stroke-opacity:1"
         d="m 77.7442,86.9516 0.4482,-0.6735" />
    </g>
    <g
       id="g2366"
       transform="matrix(1.0000015,0,0,1.0000015,-282.85768,9.6826733)">
      <path
         id="path2368"
         style="fill:none;stroke:#000000;stroke-width:0.18000001;stroke-linecap:round;stroke-linejoin:round;stroke-miterlimit:10;stroke-dasharray:none;stroke-opacity:1"
         d="m 78.1924,86.2781 0.6487,-0.6195" />
    </g>
    <g
       id="g2370"
       transform="matrix(1.0000015,0,0,1.0000015,-282.85768,9.6826733)">
      <path
         id="path2372"
         style="fill:none;stroke:#000000;stroke-width:0.18000001;stroke-linecap:round;stroke-linejoin:round;stroke-miterlimit:10;stroke-dasharray:none;stroke-opacity:1"
         d="m 78.8411,85.6586 1.0302,-0.5488" />
    </g>
    <g
       id="g2374"
       transform="matrix(1.0000015,0,0,1.0000015,-282.85768,9.6826733)">
      <path
         id="path2376"
         style="fill:none;stroke:#000000;stroke-width:0.18000001;stroke-linecap:round;stroke-linejoin:round;stroke-miterlimit:10;stroke-dasharray:none;stroke-opacity:1"
         d="m 79.8713,85.1098 1.1208,-0.411" />
    </g>
    <g
       id="g2378"
       transform="matrix(1.0000015,0,0,1.0000015,-282.85768,9.6826733)">
      <path
         id="path2380"
         style="fill:none;stroke:#000000;stroke-width:0.18000001;stroke-linecap:round;stroke-linejoin:round;stroke-miterlimit:10;stroke-dasharray:none;stroke-opacity:1"
         d="m 80.9921,84.6988 0.2727,-0.2236" />
    </g>
    <g
       id="g2382"
       transform="matrix(1.0000015,0,0,1.0000015,-282.85768,9.6826733)">
      <path
         id="path2384"
         style="fill:none;stroke:#000000;stroke-width:0.18000001;stroke-linecap:round;stroke-linejoin:round;stroke-miterlimit:10;stroke-dasharray:none;stroke-opacity:1"
         d="m 81.2648,84.4752 0.3467,-0.4341" />
    </g>
    <g
       id="g2386"
       transform="matrix(1.0000015,0,0,1.0000015,-282.85768,9.6826733)">
      <path
         id="path2388"
         style="fill:none;stroke:#000000;stroke-width:0.18000001;stroke-linecap:round;stroke-linejoin:round;stroke-miterlimit:10;stroke-dasharray:none;stroke-opacity:1"
         d="m 81.6115,84.0411 0.6077,-0.9068" />
    </g>
    <g
       id="g2390"
       transform="matrix(1.0000015,0,0,1.0000015,-282.85768,9.6826733)">
      <path
         id="path2392"
         style="fill:none;stroke:#000000;stroke-width:0.18000001;stroke-linecap:round;stroke-linejoin:round;stroke-miterlimit:10;stroke-dasharray:none;stroke-opacity:1"
         d="m 82.2192,83.1343 0.094,-0.136" />
    </g>
    <g
       id="g2394"
       transform="matrix(1.0000015,0,0,1.0000015,-282.85768,9.6826733)">
      <path
         id="path2396"
         style="fill:none;stroke:#000000;stroke-width:0.18000001;stroke-linecap:round;stroke-linejoin:round;stroke-miterlimit:10;stroke-dasharray:none;stroke-opacity:1"
         d="m 82.3132,82.9983 0.2243,-0.1459" />
    </g>
    <g
       id="g2398"
       transform="matrix(1.0000015,0,0,1.0000015,-282.85768,9.6826733)">
      <path
         id="path2400"
         style="fill:none;stroke:#000000;stroke-width:0.18000001;stroke-linecap:round;stroke-linejoin:round;stroke-miterlimit:10;stroke-dasharray:none;stroke-opacity:1"
         d="M 82.5375,82.8524 82.7821,82.89" />
    </g>
    <g
       id="g2402"
       transform="matrix(1.0000015,0,0,1.0000015,-282.85768,9.6826733)">
      <path
         id="path2404"
         style="fill:none;stroke:#000000;stroke-width:0.18000001;stroke-linecap:round;stroke-linejoin:round;stroke-miterlimit:10;stroke-dasharray:none;stroke-opacity:1"
         d="m 82.7821,82.89 0.194,0.1843" />
    </g>
    <g
       id="g2406"
       transform="matrix(1.0000015,0,0,1.0000015,-282.85768,9.6826733)">
      <path
         id="path2408"
         style="fill:none;stroke:#000000;stroke-width:0.18000001;stroke-linecap:round;stroke-linejoin:round;stroke-miterlimit:10;stroke-dasharray:none;stroke-opacity:1"
         d="m 82.9761,83.0743 0.0722,0.2943" />
    </g>
    <g
       id="g2410"
       transform="matrix(1.0000015,0,0,1.0000015,-282.85768,9.6826733)">
      <path
         id="path2412"
         style="fill:none;stroke:#000000;stroke-width:0.18000001;stroke-linecap:round;stroke-linejoin:round;stroke-miterlimit:10;stroke-dasharray:none;stroke-opacity:1"
         d="m 83.0483,83.3686 -0.1157,0.4019" />
    </g>
    <g
       id="g2414"
       transform="matrix(1.0000015,0,0,1.0000015,-282.85768,9.6826733)">
      <path
         id="path2416"
         style="fill:none;stroke:#000000;stroke-width:0.18000001;stroke-linecap:round;stroke-linejoin:round;stroke-miterlimit:10;stroke-dasharray:none;stroke-opacity:1"
         d="m 82.9326,83.7705 -0.2715,0.4674" />
    </g>
    <g
       id="g2418"
       transform="matrix(1.0000015,0,0,1.0000015,-282.85768,9.6826733)">
      <path
         id="path2420"
         style="fill:none;stroke:#000000;stroke-width:0.18000001;stroke-linecap:round;stroke-linejoin:round;stroke-miterlimit:10;stroke-dasharray:none;stroke-opacity:1"
         d="m 82.6611,84.2379 -0.7092,0.8425" />
    </g>
    <g
       id="g2422"
       transform="matrix(1.0000015,0,0,1.0000015,-282.85768,9.6826733)">
      <path
         id="path2424"
         style="fill:none;stroke:#000000;stroke-width:0.18000001;stroke-linecap:round;stroke-linejoin:round;stroke-miterlimit:10;stroke-dasharray:none;stroke-opacity:1"
         d="M 81.9519,85.0804 81.6355,85.402" />
    </g>
    <g
       id="g2426"
       transform="matrix(1.0000015,0,0,1.0000015,-282.85768,9.6826733)">
      <path
         id="path2428"
         style="fill:none;stroke:#000000;stroke-width:0.18000001;stroke-linecap:round;stroke-linejoin:round;stroke-miterlimit:10;stroke-dasharray:none;stroke-opacity:1"
         d="m 81.6355,85.402 -0.1203,0.2829" />
    </g>
    <g
       id="g2430"
       transform="matrix(1.0000015,0,0,1.0000015,-282.85768,9.6826733)">
      <path
         id="path2432"
         style="fill:none;stroke:#000000;stroke-width:0.18000001;stroke-linecap:round;stroke-linejoin:round;stroke-miterlimit:10;stroke-dasharray:none;stroke-opacity:1"
         d="m 81.5152,85.6849 -0.0374,0.4363" />
    </g>
    <g
       id="g2434"
       transform="matrix(1.0000015,0,0,1.0000015,-282.85768,9.6826733)">
      <path
         id="path2436"
         style="fill:none;stroke:#000000;stroke-width:0.18000001;stroke-linecap:round;stroke-linejoin:round;stroke-miterlimit:10;stroke-dasharray:none;stroke-opacity:1"
         d="m 81.4778,86.1212 0.185,1.9659" />
    </g>
  </g>
</svg>
